if (_typeface_js && _typeface_js.loadFace) _typeface_js.loadFace({"glyphs":{"0":{"ha":617,"x_min":68,"x_max":671,"o":"m 671 664 q 606 403 671 560 q 436 125 536 235 q 197 -4 319 -4 q 110 32 143 -4 q 68 163 68 76 q 221 600 68 365 q 522 840 378 840 q 632 793 593 840 q 671 664 671 746 m 585 703 q 515 814 585 814 q 351 665 443 814 q 210 356 272 536 q 150 90 150 181 q 211 18 150 18 q 381 161 288 18 q 524 457 461 283 q 585 703 585 621 z "},"1":{"ha":408,"x_min":54,"x_max":528,"o":"m 521 822 l 172 36 q 165 22 167 24 q 153 14 161 17 l 76 -3 q 60 1 65 -4 q 60 17 54 7 l 385 685 l 379 688 q 290 631 356 665 q 181 586 225 596 q 167 613 161 589 q 338 710 247 639 q 469 833 415 769 q 511 838 481 838 q 521 822 528 838 z "},"2":{"ha":565,"x_min":-8,"x_max":597,"o":"m 597 706 q 350 338 597 504 q 190 211 276 289 q 110 133 118 147 l 111 126 q 182 138 139 138 q 303 99 228 138 q 401 61 378 61 q 494 132 465 61 q 513 121 510 139 q 461 50 503 92 q 356 -4 407 -4 q 249 32 315 -4 q 124 68 182 68 q 29 3 71 68 q 13 -6 24 -7 q 4 17 -8 -4 q 44 88 24 51 q 146 215 86 153 q 288 354 217 285 q 446 542 390 458 q 519 742 519 654 q 458 817 519 817 q 298 693 392 817 q 204 485 204 569 q 221 428 204 450 q 215 417 222 422 q 203 417 210 413 q 172 529 172 449 q 254 729 172 628 q 457 840 344 840 q 558 805 519 840 q 597 706 597 769 z "},"3":{"ha":544,"x_min":13,"x_max":613,"o":"m 613 703 q 510 540 613 625 q 388 460 449 489 l 386 454 q 440 431 413 450 q 486 340 486 399 q 376 106 486 215 q 143 -3 265 -3 q 60 21 93 -3 q 25 65 32 40 q 28 74 25 71 q 13 115 13 88 q 37 178 13 149 q 93 207 61 207 q 136 157 136 207 q 114 93 136 125 q 64 61 92 61 q 49 61 54 61 q 128 22 75 22 q 306 147 213 22 q 394 353 394 265 q 336 428 394 428 q 299 417 322 428 q 269 403 285 410 q 258 407 265 401 q 250 419 250 413 q 260 429 250 425 q 401 510 354 468 q 497 626 458 561 q 536 743 536 692 q 474 814 536 814 q 337 738 406 814 q 268 593 268 661 q 275 556 268 569 q 268 542 282 546 q 243 568 253 538 q 235 610 235 593 q 303 771 235 703 q 468 839 371 839 q 574 799 535 839 q 613 703 613 760 z "},"4":{"ha":590,"x_min":39,"x_max":629,"o":"m 619 814 l 429 322 l 575 325 q 594 317 594 325 q 568 292 594 307 q 496 274 536 274 l 410 272 l 318 38 q 285 3 306 4 l 222 -4 q 214 -2 217 -6 q 213 11 211 1 q 218 28 214 18 l 322 272 l 57 271 q 39 283 39 271 q 46 296 39 289 q 336 568 190 421 q 567 821 514 749 q 606 838 578 838 q 619 814 629 838 m 504 701 l 497 703 l 164 340 q 157 326 156 333 q 167 319 157 319 l 343 322 l 504 701 z "},"5":{"ha":586,"x_min":42,"x_max":697,"o":"m 697 833 q 661 790 697 817 q 567 757 619 757 l 410 757 q 389 743 394 757 l 297 542 q 294 532 294 535 q 300 531 296 529 q 428 563 361 563 q 531 528 493 563 q 569 432 569 494 q 437 135 569 275 q 165 -4 304 -4 q 77 26 113 -4 q 42 108 42 57 q 67 181 42 150 q 125 211 93 211 q 176 150 176 211 q 155 95 176 117 q 106 74 133 74 q 90 76 100 74 q 78 79 81 79 q 74 75 74 79 q 94 43 74 58 q 154 25 121 25 q 379 190 272 25 q 474 450 474 338 q 396 529 474 529 q 278 482 342 529 q 219 425 236 451 q 196 417 211 415 q 189 439 181 419 l 358 813 q 385 833 368 835 q 551 829 475 826 q 638 838 588 831 q 686 844 688 844 q 697 833 697 844 z "},"6":{"ha":585,"x_min":56,"x_max":658,"o":"m 654 819 q 653 803 658 811 q 639 797 647 796 q 583 814 625 814 q 419 700 518 814 q 251 450 335 601 q 446 569 344 569 q 531 533 497 569 q 565 422 565 493 q 446 142 565 288 q 206 -4 326 -4 q 56 164 56 -4 q 140 427 56 263 q 339 708 225 592 q 582 840 471 840 q 654 819 631 840 m 488 465 q 429 538 488 538 q 333 490 390 538 q 258 414 289 454 q 243 404 251 404 q 232 411 233 404 q 124 110 124 203 q 193 19 124 19 q 386 189 281 19 q 488 465 488 353 z "},"7":{"ha":553,"x_min":118,"x_max":675,"o":"m 675 788 q 654 764 675 786 q 406 404 507 599 q 365 325 386 367 l 542 326 q 557 317 557 326 q 521 286 557 297 q 469 276 492 276 l 342 276 q 233 38 269 128 q 208 14 226 18 l 142 -4 q 118 10 118 -11 q 121 17 118 13 q 247 276 163 122 l 140 275 q 126 290 126 275 q 157 325 126 325 l 275 325 q 342 431 310 383 q 572 719 411 533 l 568 725 q 536 722 560 722 q 441 742 510 722 q 335 763 372 763 q 254 735 285 763 q 225 658 224 707 q 215 651 224 654 q 201 654 206 650 q 200 675 200 665 q 253 788 200 743 q 386 833 307 833 q 495 816 428 833 q 597 799 563 799 q 634 801 614 799 q 654 803 654 803 q 675 788 675 803 z "},"8":{"ha":576,"x_min":51,"x_max":644,"o":"m 644 714 q 585 575 644 640 q 446 479 531 517 q 401 457 419 467 q 451 338 444 358 q 476 218 476 271 q 401 60 476 125 q 231 -6 326 -6 q 101 40 151 -6 q 51 154 51 85 q 156 351 51 263 q 311 446 219 407 q 265 628 265 558 q 339 785 265 724 q 499 843 407 843 q 606 804 567 843 q 644 714 644 765 m 579 726 q 494 815 579 815 q 394 764 439 815 q 350 651 350 713 q 390 482 350 581 q 511 576 456 513 q 579 726 579 654 m 388 189 q 321 421 388 263 q 193 317 257 394 q 121 149 121 228 q 233 22 121 22 q 342 70 297 22 q 388 189 388 118 z "},"9":{"ha":585,"x_min":40,"x_max":643,"o":"m 643 672 q 560 411 643 574 q 360 128 474 244 q 115 -4 228 -4 q 44 17 67 -4 q 46 33 40 25 q 58 39 51 40 q 114 22 72 22 q 278 136 181 22 q 446 386 364 235 q 253 267 353 267 q 167 305 201 267 q 132 414 132 343 q 251 694 132 549 q 492 840 371 840 q 643 672 643 840 m 575 726 q 506 817 575 817 q 301 624 406 817 q 208 358 208 454 q 268 299 208 299 q 365 344 308 299 q 439 422 408 381 q 456 432 446 432 q 467 425 465 432 q 575 726 575 633 z "}," ":{"ha":307,"x_min":0,"x_max":0,"o":""},"!":{"ha":444,"x_min":90,"x_max":583,"o":"m 583 872 l 224 190 l 200 194 l 492 872 q 533 890 501 890 q 583 872 578 890 m 214 85 q 188 16 214 50 q 128 -18 161 -18 q 90 26 90 -18 q 117 94 90 60 q 176 129 144 129 q 214 85 214 129 z "},"\"":{"ha":374,"x_min":292,"x_max":651,"o":"m 651 989 q 596 826 651 906 q 463 724 540 747 l 449 742 q 532 800 496 763 q 579 888 572 843 q 532 939 532 894 q 556 1009 532 976 q 613 1042 581 1042 q 651 989 651 1042 m 494 989 q 439 826 494 906 q 304 724 383 747 l 292 742 q 374 800 338 763 q 421 888 414 843 q 374 939 374 894 q 398 1009 374 976 q 456 1042 422 1042 q 494 989 494 1042 z "},"#":{"ha":818,"x_min":79,"x_max":825,"o":"m 825 546 l 800 490 l 632 490 l 560 333 l 728 333 l 701 276 l 533 276 l 408 4 l 339 4 l 464 276 l 307 276 l 181 4 l 111 4 l 238 276 l 79 276 l 106 333 l 264 333 l 336 490 l 178 490 l 203 546 l 361 546 l 494 835 l 564 835 l 431 546 l 589 546 l 721 835 l 790 835 l 658 546 l 825 546 m 563 490 l 406 490 l 333 333 l 490 333 l 563 490 z "},"$":{"ha":510,"x_min":24,"x_max":551,"o":"m 551 656 q 532 581 551 617 q 468 536 508 536 q 428 585 428 536 q 469 664 428 632 q 510 701 510 696 q 472 742 510 725 l 339 469 q 401 390 385 418 q 431 290 431 343 q 358 121 431 196 q 175 42 282 42 q 132 47 153 42 l 93 -33 l 61 -33 l 104 56 q 24 171 24 89 q 44 244 24 208 q 108 288 69 288 q 150 240 150 288 q 74 149 150 172 q 63 132 63 146 q 115 78 63 99 l 260 374 q 189 533 189 460 q 253 696 189 619 q 418 779 322 779 q 457 775 438 779 l 500 865 l 532 865 l 483 765 q 551 656 551 732 m 446 753 q 418 756 431 756 q 310 710 354 756 q 265 607 265 664 q 318 492 265 554 l 446 753 m 344 218 q 281 349 344 272 l 143 69 q 178 65 163 65 q 298 109 251 65 q 344 218 344 153 z "},"%":{"ha":806,"x_min":138,"x_max":782,"o":"m 778 775 l 175 4 q 159 13 165 4 q 154 31 153 22 l 563 590 q 490 574 524 574 q 463 575 472 574 q 360 451 422 501 q 244 400 299 400 q 138 507 138 400 q 229 729 138 622 q 435 836 321 836 q 454 826 454 836 q 435 813 454 813 q 278 676 357 813 q 206 468 206 551 q 247 422 206 422 q 336 475 285 422 q 418 594 383 525 q 374 688 374 629 q 399 771 374 740 q 443 796 418 796 q 503 715 503 796 q 475 599 503 660 q 493 597 481 597 q 635 692 565 597 l 735 826 q 754 831 747 843 l 774 793 q 778 775 782 779 m 754 331 q 668 108 754 221 q 493 -4 582 -4 q 411 26 438 -4 q 385 100 385 57 q 475 315 385 207 q 681 429 571 429 q 754 331 754 429 m 457 724 q 438 769 457 769 q 414 692 414 769 q 431 619 414 642 q 457 724 457 681 m 713 365 q 669 408 713 408 q 530 288 604 408 q 456 64 456 167 q 497 18 456 18 q 638 136 564 18 q 713 365 713 254 z "},"&":{"ha":1447,"x_min":53,"x_max":1422,"o":"m 1422 388 q 1319 321 1400 356 q 1079 258 1219 278 q 994 249 1033 251 q 725 71 908 149 q 365 -3 550 -3 q 125 64 207 -3 q 53 229 53 125 q 218 482 53 372 q 588 618 365 579 q 532 728 532 664 q 690 943 532 840 q 1011 1046 847 1046 q 1104 1014 1072 1046 q 1132 940 1132 985 q 1101 851 1132 892 q 1026 811 1071 811 q 981 830 999 811 q 963 872 963 849 q 981 919 963 899 q 1032 940 1000 940 q 1042 938 1032 940 q 1061 936 1053 936 q 1099 974 1099 936 q 1078 1001 1099 988 q 1011 1019 1051 1019 q 767 907 914 1019 q 607 675 607 785 q 626 625 607 643 q 794 638 713 638 q 935 626 881 638 q 989 597 989 614 q 936 565 989 579 q 817 551 883 551 q 625 593 707 551 q 296 423 429 547 q 163 169 163 299 q 360 33 163 33 q 946 247 696 33 q 888 247 918 247 q 617 260 758 247 q 428 274 476 274 q 268 214 340 274 q 254 239 254 219 q 439 329 317 307 q 675 344 515 344 q 947 333 792 346 q 1142 321 1103 321 q 1279 343 1208 321 q 1393 406 1361 367 q 1422 388 1422 408 z "},"'":{"ha":374,"x_min":292,"x_max":494,"o":"m 494 989 q 439 826 494 906 q 304 724 383 747 l 292 742 q 374 800 338 763 q 421 888 414 843 q 374 939 374 894 q 398 1009 374 976 q 456 1042 422 1042 q 494 989 494 1042 z "},"(":{"ha":392,"x_min":106,"x_max":540,"o":"m 540 933 q 463 863 506 903 q 231 556 297 693 q 150 149 150 388 q 159 19 150 88 q 168 -54 168 -50 q 161 -69 168 -69 q 119 72 138 -69 q 106 256 106 185 q 181 594 106 450 q 406 864 250 729 q 467 907 424 879 q 525 940 515 940 q 540 933 540 940 z "},")":{"ha":428,"x_min":31,"x_max":464,"o":"m 464 618 q 389 279 464 424 q 164 10 321 144 q 43 -75 65 -75 q 31 -60 31 -75 q 106 0 67 -42 q 338 331 265 174 q 419 728 419 508 q 410 857 419 789 q 401 929 401 925 q 408 943 401 943 q 450 801 432 943 q 464 618 464 689 z "},"*":{"ha":506,"x_min":125,"x_max":418,"o":"m 418 781 q 400 754 418 761 q 365 753 389 750 q 326 749 340 757 l 299 732 l 328 715 q 368 708 344 706 q 401 708 393 711 q 418 682 418 701 q 404 644 418 664 q 374 625 390 625 q 356 631 364 625 q 338 660 347 638 q 314 692 328 683 l 286 708 l 286 675 q 301 635 286 656 q 317 608 315 615 q 271 572 322 572 q 226 608 222 572 q 243 639 228 619 q 258 675 258 658 l 258 708 l 226 690 q 199 657 204 678 q 186 631 193 636 q 169 625 179 625 q 139 644 153 625 q 125 681 125 663 q 151 711 125 711 q 167 708 157 711 q 185 706 178 706 q 213 714 199 706 l 243 732 l 214 750 q 185 758 199 758 q 167 755 178 758 q 151 751 156 751 q 125 782 125 751 q 140 818 125 800 q 171 836 154 836 q 188 831 181 836 q 201 806 194 826 q 228 774 208 785 l 258 756 l 258 790 q 243 831 258 815 q 226 853 228 846 q 271 890 222 890 q 317 853 321 890 q 301 829 315 846 q 286 790 286 813 l 286 757 l 313 772 q 340 805 329 782 q 356 833 350 828 q 372 838 363 838 q 403 818 389 838 q 418 781 418 799 z "},"+":{"ha":908,"x_min":217,"x_max":828,"o":"m 828 440 l 807 392 l 544 392 l 433 115 l 371 115 l 482 392 l 217 392 l 236 440 l 501 440 l 614 717 l 676 717 l 564 440 l 828 440 z "},",":{"ha":250,"x_min":-19,"x_max":183,"o":"m 183 76 q 128 -86 183 -7 q -7 -189 72 -165 l -19 -171 q 63 -112 28 -150 q 110 -25 103 -69 q 63 26 63 -19 q 87 97 63 64 q 144 129 111 129 q 183 76 183 129 z "},"-":{"ha":454,"x_min":61,"x_max":393,"o":"m 386 264 l 367 226 q 353 213 360 213 l 83 213 q 69 226 61 213 l 89 264 q 103 278 96 278 l 372 278 q 386 264 393 278 z "},".":{"ha":256,"x_min":63,"x_max":188,"o":"m 188 85 q 160 16 188 50 q 100 -18 133 -18 q 63 26 63 -18 q 90 94 63 60 q 150 129 117 129 q 188 85 188 129 z "},"/":{"ha":486,"x_min":-6,"x_max":788,"o":"m 788 1042 l 67 -46 l -6 -46 l 715 1042 l 788 1042 z "},":":{"ha":299,"x_min":63,"x_max":313,"o":"m 313 393 q 285 325 313 360 q 226 290 258 290 q 189 335 189 290 q 215 403 189 369 q 275 438 242 438 q 313 393 313 438 m 188 85 q 160 16 188 50 q 100 -18 133 -18 q 63 26 63 -18 q 90 94 63 60 q 150 129 117 129 q 188 85 188 129 z "},";":{"ha":297,"x_min":-19,"x_max":313,"o":"m 313 393 q 285 325 313 360 q 226 290 258 290 q 189 335 189 290 q 215 403 189 369 q 275 438 242 438 q 313 393 313 438 m 183 76 q 128 -86 183 -7 q -7 -189 72 -165 l -19 -171 q 63 -112 28 -150 q 110 -25 103 -69 q 63 26 63 -19 q 87 97 63 64 q 144 129 111 129 q 183 76 183 129 z "},"<":{"ha":988,"x_min":144,"x_max":919,"o":"m 919 707 l 896 639 l 240 410 l 710 181 l 686 129 l 144 393 l 163 439 l 919 707 z "},"=":{"ha":958,"x_min":144,"x_max":922,"o":"m 922 543 l 900 490 l 229 490 l 250 543 l 922 543 m 838 335 l 817 282 l 144 282 l 167 335 l 838 335 z "},">":{"ha":963,"x_min":107,"x_max":882,"o":"m 882 436 l 864 389 l 107 122 l 131 190 l 786 419 l 317 649 l 340 700 l 882 436 z "},"?":{"ha":631,"x_min":158,"x_max":726,"o":"m 726 738 q 671 583 726 661 q 488 394 615 506 q 311 194 371 292 q 296 189 303 189 q 272 204 281 189 q 386 364 292 268 q 547 533 522 501 q 629 736 629 638 q 600 811 629 785 q 524 838 571 838 q 369 771 454 838 q 279 625 279 699 q 346 551 279 551 q 438 590 397 551 q 447 578 447 589 q 412 540 447 558 q 336 522 376 522 q 272 549 300 522 q 244 617 244 575 q 356 801 244 721 q 569 876 458 876 q 681 842 640 876 q 726 738 726 806 m 282 85 q 256 16 282 50 q 196 -18 229 -18 q 158 26 158 -18 q 185 94 158 60 q 244 129 213 129 q 282 85 282 129 z "},"@":{"ha":1281,"x_min":88,"x_max":1260,"o":"m 1260 526 q 1171 226 1260 360 q 935 83 1075 83 q 799 231 811 83 q 589 85 706 85 q 463 142 514 85 q 406 307 406 204 q 512 563 406 440 q 732 685 618 685 q 881 549 843 685 l 918 669 l 1007 669 l 890 261 q 882 190 882 219 q 944 114 882 114 q 1119 206 1032 114 q 1233 521 1233 322 q 1108 832 1233 713 q 756 956 978 956 q 342 800 507 956 q 163 342 163 631 q 293 1 163 139 q 715 -156 444 -156 q 1138 -17 950 -156 l 1160 -37 q 985 -137 1064 -106 q 706 -187 858 -187 q 285 -60 457 -187 q 88 356 88 89 q 265 790 88 607 q 740 983 453 983 q 1143 835 1003 983 q 1260 526 1260 710 m 850 496 q 819 606 851 561 q 717 657 783 657 q 554 496 631 657 q 490 267 490 358 q 514 167 490 210 q 597 115 543 115 q 782 257 704 115 q 850 496 847 376 z "},"A":{"ha":1851,"x_min":58,"x_max":2040,"o":"m 2036 1025 q 1771 560 1953 876 q 1665 369 1718 469 q 1776 367 1746 367 q 1871 375 1810 367 q 1875 347 1889 367 q 1643 326 1832 326 q 1619 282 1631 304 q 1711 142 1711 231 q 1665 35 1711 75 q 1561 -4 1618 -4 q 1477 32 1511 -4 q 1443 125 1443 68 q 1507 292 1443 174 q 1286 325 1418 318 q 486 -8 871 -8 q 193 65 311 -8 q 58 299 58 149 q 250 594 58 474 q 644 706 426 706 q 1008 614 875 706 q 1013 606 1013 610 q 988 589 1013 582 q 692 668 889 668 q 307 547 483 668 q 121 254 121 421 q 228 82 121 149 q 471 21 328 21 q 1235 326 851 21 l 1101 329 l 524 332 q 478 332 485 332 q 464 346 464 335 q 502 380 464 358 q 571 401 540 401 q 836 393 592 401 q 1214 381 1110 383 l 1299 379 q 1360 435 1335 410 q 1954 1018 1649 718 q 2011 1046 1976 1038 q 2040 1038 2040 1053 q 2036 1025 2040 1033 m 1911 932 l 1900 933 q 1718 744 1890 922 q 1464 485 1535 556 q 1349 378 1410 431 l 1551 372 q 1686 585 1593 440 l 1911 932 m 1650 165 q 1603 249 1650 213 q 1524 58 1524 92 q 1558 18 1524 18 q 1620 64 1590 18 q 1650 165 1650 110 z "},"B":{"ha":1494,"x_min":25,"x_max":1611,"o":"m 1611 903 q 1474 671 1611 781 q 1206 528 1367 585 q 1282 535 1244 535 q 1429 485 1378 535 q 1476 363 1476 439 q 1358 119 1476 240 q 1100 -4 1236 -4 q 953 117 953 -4 q 975 178 953 151 q 1028 206 997 206 q 1088 142 1088 206 q 1063 85 1088 107 q 1010 64 1039 64 q 992 57 992 64 q 1013 39 992 50 q 1072 25 1039 25 q 1273 126 1174 25 q 1372 347 1372 228 q 1324 460 1372 419 q 1224 496 1282 496 q 1156 488 1181 496 q 1135 476 1144 482 q 1124 485 1128 476 q 1122 500 1119 493 q 1167 518 1133 510 q 1160 526 1160 521 q 1171 538 1160 533 q 1393 676 1293 586 q 1518 910 1518 792 q 1483 986 1518 961 q 1333 1014 1440 1014 q 813 883 1108 1014 q 318 564 518 751 q 99 172 99 357 q 158 60 99 101 q 317 19 217 19 q 633 122 478 19 q 858 339 763 207 q 1036 607 896 392 q 1193 828 1147 778 q 1336 947 1304 947 q 1353 933 1353 947 q 1326 907 1353 931 q 1265 838 1292 875 q 1156 642 1211 740 q 965 356 1057 467 q 307 -10 667 -10 q 101 52 178 -10 q 25 222 25 114 q 253 601 25 401 q 771 913 463 786 q 1336 1042 1086 1042 q 1611 903 1611 1042 z "},"C":{"ha":1356,"x_min":47,"x_max":1601,"o":"m 1601 924 q 1374 632 1601 781 q 908 413 1194 514 q 524 307 672 329 q 489 165 489 226 q 542 65 489 101 q 676 29 594 29 q 1025 103 840 29 q 1314 265 1186 167 q 1335 247 1340 265 q 1058 79 1232 153 q 688 -7 860 -7 q 411 243 411 -7 q 417 296 411 267 q 354 293 381 293 q 154 328 247 293 q 51 392 75 357 q 54 408 47 403 q 75 413 61 413 q 360 329 179 329 q 425 332 388 329 q 651 668 469 497 q 1040 935 821 829 q 1438 1043 1265 1043 q 1561 1008 1517 1043 q 1601 924 1601 978 m 1557 946 q 1463 1014 1557 1014 q 932 793 1218 1014 q 544 351 669 590 q 894 467 669 376 q 1338 688 1165 575 q 1557 946 1557 831 z "},"D":{"ha":1710,"x_min":40,"x_max":1743,"o":"m 1743 569 q 1513 158 1743 322 q 958 -1 1288 -1 q 627 40 835 -1 q 246 81 419 81 q 61 14 144 81 q 46 17 51 10 q 44 35 40 24 q 139 103 71 67 q 340 154 236 154 q 730 101 465 154 q 1106 47 994 47 q 1461 179 1300 47 q 1640 549 1640 328 q 1504 817 1640 706 q 1374 601 1465 768 q 1219 342 1274 418 q 1501 493 1347 389 q 1524 482 1524 500 q 1521 472 1524 478 q 1176 283 1389 360 q 1085 181 1143 235 q 974 100 1019 118 q 956 107 956 93 q 967 122 956 115 q 1090 254 1033 161 q 715 200 903 200 q 315 303 469 200 q 156 582 156 408 q 407 900 156 756 q 940 1043 654 1043 q 1536 904 1308 1043 q 1667 967 1617 960 q 1672 958 1672 965 q 1665 947 1671 951 q 1569 882 1624 926 q 1743 569 1743 760 m 1464 847 q 899 989 1254 989 q 394 856 610 989 q 193 586 193 731 q 356 357 193 443 q 764 274 514 274 q 1122 311 974 274 q 1274 593 1197 451 q 1464 847 1365 751 z "},"E":{"ha":985,"x_min":53,"x_max":1156,"o":"m 1156 965 q 988 797 1156 863 q 618 729 839 739 q 607 675 607 700 q 626 625 607 643 q 794 638 713 638 q 935 626 881 638 q 989 597 989 614 q 936 565 989 579 q 817 551 883 551 q 625 593 707 551 q 296 423 429 547 q 163 169 163 299 q 360 33 163 33 q 988 286 729 33 q 1001 267 1007 286 q 714 67 910 143 q 365 -3 536 -3 q 125 64 207 -3 q 53 229 53 125 q 218 482 53 372 q 588 618 365 579 q 532 728 533 663 q 293 779 421 732 q 150 856 181 819 q 153 869 147 863 q 165 875 158 875 q 282 815 192 850 q 533 758 404 767 q 701 956 553 865 q 1011 1046 850 1046 q 1156 965 1156 1046 m 1101 976 q 1032 1019 1101 1019 q 797 936 922 1019 q 629 757 681 856 q 947 836 792 765 q 1101 976 1101 907 z "},"F":{"ha":1632,"x_min":90,"x_max":1951,"o":"m 1947 963 q 1894 900 1933 928 q 1776 861 1843 861 q 1556 925 1732 861 q 1274 989 1381 989 q 999 896 1136 989 q 822 689 861 803 q 1097 572 967 660 q 1100 564 1100 568 q 1083 553 1100 553 q 1071 556 1078 553 q 814 660 960 631 q 810 622 810 640 q 828 542 810 586 q 821 531 831 532 q 801 538 811 529 q 774 633 774 583 q 775 660 774 646 l 776 665 q 696 671 735 671 q 319 551 482 671 q 164 299 164 436 q 303 86 164 158 q 615 24 421 24 q 1218 371 1006 24 l 1017 368 q 801 301 854 368 q 781 300 793 294 q 768 314 767 304 q 838 375 790 347 q 996 417 907 415 q 1249 422 1056 417 q 1356 615 1301 518 q 1447 751 1410 713 q 1568 842 1496 803 q 1649 876 1622 872 q 1667 868 1667 879 q 1649 850 1667 857 q 1507 719 1581 821 q 1440 594 1483 686 q 1360 425 1374 453 l 1633 432 q 1664 419 1664 429 q 1658 407 1664 414 q 1642 383 1646 386 q 1615 376 1633 376 q 1332 372 1603 376 q 1271 278 1300 314 q 1021 90 1185 169 q 606 -6 824 -6 q 230 83 369 -6 q 90 314 90 171 q 251 578 90 460 q 657 704 422 704 q 783 694 722 704 q 993 929 822 826 q 1422 1044 1182 1044 q 1673 991 1510 1044 q 1858 938 1836 938 q 1926 982 1900 938 q 1943 983 1936 988 q 1947 963 1951 978 z "},"G":{"ha":1144,"x_min":19,"x_max":1276,"o":"m 1276 919 q 1117 638 1276 806 q 757 356 968 482 q 192 76 440 167 q 310 21 228 21 q 715 176 463 21 q 1021 410 922 304 q 1056 414 1043 421 l 1061 422 q 1136 517 1118 510 q 1178 528 1163 528 q 1196 514 1196 528 q 1182 494 1196 507 q 1163 475 1168 482 q 1031 218 1143 444 q 875 -51 929 13 q 669 -222 799 -144 q 490 -300 556 -290 q 490 -278 474 -290 q 599 -217 525 -268 q 731 -103 681 -161 q 892 136 782 -44 q 1039 386 965 261 q 703 121 908 235 q 308 -4 482 -4 q 153 63 206 -4 q 35 35 78 38 q 36 65 19 49 q 138 86 78 68 q 108 214 108 138 q 281 588 108 386 q 676 908 442 778 q 1118 1044 921 1044 q 1276 919 1276 1044 m 1232 942 q 1111 1019 1232 1019 q 693 849 926 1019 q 329 485 486 697 q 172 153 172 274 q 181 101 172 124 q 519 263 326 153 q 844 474 704 367 q 1118 725 1013 600 q 1232 942 1232 858 z "},"H":{"ha":1703,"x_min":36,"x_max":1950,"o":"m 1601 1019 q 1481 956 1558 988 q 1297 913 1378 913 q 1014 954 1218 913 q 676 996 810 996 q 313 919 464 996 q 124 757 192 858 q 69 614 69 678 q 75 560 69 583 q 65 547 75 551 q 49 551 57 544 q 36 621 36 579 q 317 961 36 840 q 757 1051 526 1051 q 1106 1015 906 1051 q 1354 979 1307 979 q 1583 1042 1507 979 q 1603 1024 1603 1043 q 1601 1019 1603 1021 m 1950 985 q 1867 831 1950 917 q 1600 653 1772 732 q 1522 622 1565 638 q 1325 90 1325 283 q 1390 26 1325 26 q 1563 94 1463 26 q 1692 214 1644 151 q 1708 217 1701 219 q 1714 204 1715 214 q 1603 88 1678 147 q 1371 -3 1488 -3 q 1232 133 1232 -3 q 1408 585 1232 299 q 1254 547 1335 563 q 1039 265 1149 367 q 721 70 911 144 q 357 -4 531 -4 q 185 38 249 -4 q 121 154 121 79 q 242 361 121 264 q 582 518 364 458 q 886 568 710 553 q 1185 590 1035 579 q 1346 832 1247 690 q 1489 947 1396 890 q 1503 943 1499 949 q 1501 932 1507 938 q 1415 842 1456 906 q 1288 603 1379 774 q 1440 633 1371 615 q 1672 918 1554 806 q 1881 1042 1800 1042 q 1950 985 1950 1042 m 1899 986 q 1872 1015 1899 1015 q 1731 914 1822 1015 q 1551 669 1643 818 q 1764 792 1658 711 q 1899 986 1899 897 m 1142 526 q 811 485 1065 514 q 540 440 626 463 q 282 324 396 401 q 151 153 151 236 q 204 58 151 94 q 343 22 257 22 q 641 83 483 22 q 913 243 799 144 q 1142 526 1006 325 z "},"I":{"ha":1161,"x_min":72,"x_max":1442,"o":"m 1438 968 q 1399 944 1424 958 q 1410 939 1407 943 q 1404 926 1413 933 q 1293 790 1329 858 q 1215 578 1290 785 q 1076 307 1154 408 q 788 84 972 171 q 422 -3 603 -3 q 157 65 250 -3 q 72 239 72 129 q 286 500 72 397 q 622 583 460 583 q 883 538 799 583 q 881 525 888 531 q 864 521 875 519 q 678 554 810 554 q 324 450 503 554 q 131 204 131 339 q 214 67 131 114 q 419 25 289 25 q 754 119 589 25 q 997 347 914 211 q 1118 590 1035 410 q 1232 794 1186 740 q 1371 931 1300 878 q 1193 885 1275 885 q 904 945 1101 885 q 594 1006 707 1006 q 278 903 419 1006 q 147 713 147 808 q 154 660 147 676 q 131 664 147 646 q 117 718 117 688 q 257 944 117 854 q 669 1043 411 1043 q 1029 997 811 1043 q 1279 950 1247 950 q 1419 985 1364 950 q 1436 981 1431 986 q 1438 968 1442 976 z "},"J":{"ha":1031,"x_min":63,"x_max":1276,"o":"m 1272 975 q 1211 940 1258 960 q 1213 919 1229 938 q 1140 822 1188 890 q 883 290 1069 669 q 988 322 971 314 q 1082 403 1072 361 q 1097 404 1088 407 q 1110 397 1107 403 q 997 294 1097 340 q 860 246 975 283 q 750 61 793 122 q 497 -182 650 -81 q 219 -283 344 -283 q 93 -176 93 -283 q 394 131 93 -22 q 771 260 501 185 q 904 540 878 488 q 1047 778 979 688 q 1194 933 1131 888 q 1007 900 1104 900 q 753 943 939 900 q 481 986 567 986 q 210 879 331 986 q 96 664 96 776 q 114 592 96 622 q 103 581 113 586 q 88 578 93 575 q 63 686 63 613 q 238 951 63 847 q 590 1044 394 1044 q 863 1003 681 1044 q 1144 963 1044 963 q 1257 994 1214 963 q 1272 975 1276 990 m 747 208 q 408 72 507 126 q 125 -186 125 -81 q 203 -257 125 -257 q 471 -151 325 -257 q 711 132 626 -39 q 747 208 725 161 z "},"K":{"ha":1840,"x_min":68,"x_max":2072,"o":"m 2072 1022 q 2056 1014 2072 1013 q 2033 1016 2051 1014 q 2001 1018 2014 1018 q 1842 921 1929 1018 q 1693 721 1799 872 q 1553 549 1603 590 q 1394 446 1476 486 q 1306 413 1336 418 q 1289 408 1293 411 q 1293 399 1288 406 q 1519 125 1381 286 q 1688 40 1603 40 q 1811 103 1750 40 q 1829 85 1829 101 q 1769 33 1811 56 q 1643 4 1714 4 q 1306 217 1469 4 q 1228 313 1247 292 q 1154 365 1189 354 q 833 92 1025 189 q 419 -6 640 -6 q 168 50 263 -6 q 68 221 68 111 q 218 451 68 354 q 638 556 381 556 q 829 529 761 556 q 832 514 835 524 q 822 503 831 506 q 669 525 771 525 q 301 428 471 525 q 124 186 124 324 q 201 68 124 114 q 390 22 278 22 q 1000 294 756 22 q 1181 569 1063 364 q 1356 824 1290 763 q 1475 922 1406 872 q 1249 874 1338 874 q 912 935 1181 874 q 531 996 643 996 q 237 886 368 996 q 106 653 106 776 q 114 593 106 621 q 104 585 111 588 q 92 588 96 583 q 75 679 75 619 q 260 951 75 849 q 628 1042 419 1042 q 1013 996 719 1042 q 1357 950 1307 950 q 1589 1000 1496 950 q 1599 990 1594 999 q 1597 975 1601 981 q 1514 938 1581 963 q 1506 915 1521 926 q 1419 828 1468 889 q 1329 664 1399 803 q 1190 418 1250 508 q 1451 547 1338 432 q 1593 735 1482 578 q 1772 947 1694 879 q 2004 1047 1886 1047 q 2072 1022 2072 1047 z "},"L":{"ha":1774,"x_min":89,"x_max":1846,"o":"m 1846 864 q 1501 468 1846 646 q 789 272 1181 301 q 646 153 719 193 q 660 154 650 153 q 674 154 668 154 q 1031 125 850 154 q 1294 71 1115 111 q 1476 42 1424 42 q 1689 94 1632 42 q 1715 72 1718 93 q 1604 19 1689 43 q 1357 -8 1499 -8 q 924 53 1207 -8 q 628 114 640 114 q 571 106 585 114 q 432 47 529 81 q 185 1 294 1 q 89 24 89 1 q 192 90 89 53 q 593 153 338 144 q 661 219 622 175 q 694 268 674 235 q 669 268 671 268 q 392 328 456 268 q 390 335 390 332 q 418 347 390 349 q 533 315 443 331 q 693 299 622 299 q 713 299 688 299 q 935 694 790 449 q 1156 917 1028 829 q 1568 1042 1340 1042 q 1786 985 1714 1042 q 1846 864 1846 938 m 1775 879 q 1578 1014 1775 1014 q 1276 914 1431 1014 q 1054 690 1135 821 q 944 500 999 596 q 815 304 872 378 q 1281 425 1051 326 q 1636 643 1497 517 q 1775 879 1775 769 z "},"M":{"ha":2174,"x_min":68,"x_max":2267,"o":"m 2251 1021 q 1992 557 2139 847 q 1857 267 1917 410 q 1792 64 1792 108 q 1826 26 1792 26 q 2004 115 1892 26 q 2146 265 2111 199 q 2172 251 2167 272 q 2019 90 2129 176 q 1826 -3 1901 -3 q 1701 129 1701 -3 q 1747 292 1701 193 q 1854 489 1776 357 q 2046 806 1946 640 l 2031 796 q 1725 393 1932 663 q 1489 140 1636 283 q 1342 7 1369 25 q 1321 1 1328 -3 q 1322 26 1311 7 q 1456 260 1360 85 q 1676 678 1576 506 q 1811 903 1736 779 l 1801 904 q 1394 456 1672 765 q 1032 163 1246 285 q 458 -3 746 -3 q 181 71 286 -3 q 68 285 68 149 q 294 611 68 475 q 790 740 511 740 q 1021 713 917 740 q 1129 665 1100 690 q 1119 657 1131 661 q 1096 656 1108 653 q 807 708 999 708 q 349 563 568 708 q 129 258 129 418 q 463 28 129 28 q 949 157 697 28 q 1353 464 1183 276 q 1888 1025 1810 969 q 1935 1042 1900 1033 q 1963 1031 1963 1049 q 1957 1021 1963 1026 q 1818 794 1918 986 q 1590 347 1738 631 q 1469 164 1514 217 l 1474 160 q 1592 292 1493 176 q 1819 572 1717 438 q 2160 1008 1983 783 q 2210 1036 2169 1021 q 2244 1043 2231 1043 q 2251 1021 2267 1043 z "},"N":{"ha":1725,"x_min":56,"x_max":2013,"o":"m 2013 933 q 1763 465 2013 776 q 1499 178 1649 326 q 1304 4 1374 56 q 1288 -3 1296 -3 q 1276 10 1276 -3 q 1283 28 1276 18 q 1411 254 1351 124 q 1583 661 1467 393 q 1669 836 1643 789 l 1663 840 q 1508 646 1639 800 q 1211 343 1342 451 q 419 -4 797 -4 q 161 69 261 -4 q 56 278 56 146 q 243 567 56 450 q 713 683 431 683 q 1117 597 953 683 q 1114 583 1119 592 q 1101 575 1108 575 q 739 653 932 653 q 311 528 506 653 q 113 240 113 400 q 203 79 113 139 q 400 24 285 24 q 820 130 590 24 q 1240 415 1050 236 q 1601 810 1411 575 q 1768 1024 1685 917 q 1814 1044 1789 1044 q 1828 1029 1828 1044 q 1810 999 1828 1026 q 1772 932 1786 964 q 1604 472 1719 768 q 1440 175 1513 278 l 1447 175 q 1571 293 1474 190 q 1768 539 1688 419 q 1964 972 1964 828 q 1958 1014 1964 997 q 1981 1029 1961 1032 q 2013 933 2013 993 z "},"O":{"ha":1208,"x_min":75,"x_max":1318,"o":"m 1318 779 q 1165 386 1318 575 q 810 103 1028 213 q 396 -6 593 -6 q 325 0 360 -6 q 381 -90 342 -47 q 372 -105 382 -99 q 353 -107 363 -111 q 288 7 306 -62 q 75 281 75 57 q 232 665 75 479 q 594 940 372 832 q 1003 1044 811 1044 q 1200 1015 1129 1044 q 1200 1001 1204 1008 q 1186 993 1194 994 q 1003 1015 1125 1015 q 626 892 832 1015 q 292 593 426 771 q 147 226 147 401 q 281 38 147 81 q 272 136 272 82 q 385 531 272 331 q 675 857 499 731 q 1058 992 864 992 q 1254 926 1183 992 q 1318 779 1318 868 m 1265 797 q 1207 919 1265 876 q 1058 963 1149 963 q 704 817 888 963 q 423 481 538 683 q 308 110 308 278 q 317 29 308 67 q 361 25 340 25 q 750 141 535 25 q 1108 429 965 257 q 1265 797 1265 618 z "},"P":{"ha":1453,"x_min":104,"x_max":1615,"o":"m 1615 768 q 1421 440 1615 593 q 1032 293 1232 293 q 990 294 1010 293 q 686 -119 878 51 q 306 -299 486 -299 q 164 -258 208 -299 q 183 -236 156 -237 q 294 -267 236 -267 q 516 -189 404 -267 q 725 29 628 -111 q 889 315 792 126 q 753 503 753 367 q 896 761 753 654 q 1088 851 997 838 q 1103 843 1099 850 q 1100 832 1107 838 q 943 738 1028 814 q 821 490 821 629 q 903 343 821 379 q 1001 533 953 438 q 1093 693 1056 635 q 1222 867 1161 799 q 1300 932 1279 932 q 1321 921 1321 932 q 1283 878 1304 900 q 1003 324 1221 801 l 1015 324 q 1365 492 1197 321 q 1525 804 1525 654 q 1249 1008 1525 1008 q 703 882 968 1008 q 297 572 454 764 q 140 188 140 381 q 153 94 140 140 q 138 76 156 76 q 125 79 131 76 q 104 235 104 125 q 282 660 104 464 q 703 942 442 835 q 1199 1043 954 1043 q 1615 768 1615 1043 z "},"Q":{"ha":1283,"x_min":47,"x_max":1419,"o":"m 1419 761 q 1256 406 1419 597 q 864 99 1093 214 q 1056 46 992 46 q 1207 97 1143 46 q 1219 85 1215 97 q 1217 63 1224 71 q 1021 1 1133 1 q 772 58 926 1 q 469 -4 614 -4 q 201 126 281 -4 q 71 36 117 92 q 54 38 61 32 q 50 56 47 44 q 185 158 90 110 q 161 281 161 213 q 331 678 161 492 q 718 944 479 842 q 1150 1042 946 1042 q 1213 1036 1174 1042 q 1265 1018 1265 1028 q 1249 1013 1265 1010 q 1136 1018 1201 1018 q 744 900 957 1018 q 392 607 532 782 q 239 235 239 417 q 243 183 239 208 q 463 221 346 221 q 803 125 578 221 q 1203 472 1029 249 q 1371 835 1371 686 q 1319 940 1371 906 q 1222 968 1279 968 q 878 836 1051 968 q 622 556 728 725 q 522 297 522 399 q 508 250 522 250 q 499 292 499 250 q 713 778 499 558 q 1193 999 926 999 q 1419 761 1419 999 m 711 82 q 389 161 504 161 q 254 143 321 161 q 458 26 297 26 q 711 82 579 26 z "},"R":{"ha":1635,"x_min":4,"x_max":1706,"o":"m 1706 857 q 1519 588 1706 714 q 1083 425 1340 468 q 1254 250 1188 314 q 1532 44 1468 44 q 1600 60 1571 44 q 1608 33 1621 51 q 1485 0 1558 0 q 1236 118 1365 0 q 990 364 1083 257 q 917 275 953 315 q 600 58 794 136 q 293 -7 436 -7 q 86 51 164 -7 q 4 217 4 111 q 260 653 4 449 q 813 939 475 825 q 1340 1040 1118 1040 q 1706 857 1706 1040 m 1593 856 q 1535 960 1593 918 q 1338 1008 1467 1008 q 843 897 1139 1008 q 317 606 526 778 q 72 197 72 403 q 133 65 72 110 q 297 19 194 19 q 603 109 444 19 q 874 350 763 199 q 915 408 890 372 q 879 408 896 408 q 853 421 853 408 q 879 435 853 435 q 935 436 906 435 q 1078 650 940 444 q 1199 813 1151 760 q 1311 924 1258 882 q 1365 954 1351 954 q 1383 936 1383 954 q 1301 846 1344 904 q 1199 682 1276 811 q 1057 454 1115 540 q 1058 453 1057 454 q 1428 604 1272 496 q 1593 856 1593 722 z "},"S":{"ha":1253,"x_min":58,"x_max":1608,"o":"m 1608 960 q 1504 735 1608 861 q 1228 510 1394 603 q 476 -1 1021 -1 q 172 79 286 -1 q 58 289 58 160 q 282 606 58 481 q 699 713 476 713 q 946 665 861 713 q 929 644 946 644 q 732 683 850 683 q 335 571 521 683 q 132 279 132 447 q 225 94 132 157 q 486 31 318 31 q 1097 447 888 31 q 758 382 928 382 q 542 426 610 382 q 536 439 536 432 q 553 451 536 451 q 744 422 633 422 q 1118 490 946 422 q 1178 640 1149 558 q 1350 939 1239 818 q 1532 1050 1453 1050 q 1608 960 1608 1050 m 1565 983 q 1532 1022 1565 1022 q 1399 918 1469 1022 q 1268 624 1322 807 q 1246 556 1258 590 q 1488 783 1396 647 q 1565 983 1565 899 z "},"T":{"ha":1692,"x_min":35,"x_max":1853,"o":"m 1847 968 q 1776 938 1832 956 q 1640 910 1708 915 q 1621 897 1635 903 q 1464 836 1522 863 q 1213 675 1314 767 q 1026 444 1094 569 q 961 238 961 328 q 1022 90 961 146 q 1214 32 1090 32 q 1469 85 1339 32 q 1646 188 1579 129 q 1664 184 1658 190 q 1665 167 1669 178 q 1497 61 1604 108 q 1213 -3 1356 -3 q 948 67 1049 -3 q 847 257 847 138 q 943 508 847 375 q 1185 733 1036 638 q 1568 908 1346 835 q 1117 947 1451 910 q 614 982 794 982 q 231 893 404 982 q 63 711 63 807 q 151 597 63 638 q 311 567 221 567 q 783 644 550 567 q 1129 819 992 713 q 1144 816 1140 821 q 1146 800 1149 811 q 847 624 1054 711 q 397 521 603 521 q 139 569 239 521 q 35 708 35 621 q 231 929 35 831 q 800 1040 451 1040 q 1324 1004 978 1040 q 1692 968 1669 968 q 1832 994 1778 968 q 1847 985 1842 994 q 1847 968 1853 976 z "},"U":{"ha":1704,"x_min":56,"x_max":1813,"o":"m 1806 1008 q 1586 547 1742 874 q 1397 61 1397 144 q 1406 41 1397 51 q 1426 31 1415 31 q 1578 132 1483 31 q 1694 288 1651 213 q 1713 294 1704 294 q 1722 283 1722 293 q 1615 118 1688 203 q 1419 -1 1513 -1 q 1314 101 1314 -1 q 1451 478 1314 207 q 1286 274 1350 344 q 881 -8 1031 -8 q 775 101 775 -8 q 885 371 775 185 q 1088 690 886 375 q 1197 911 1197 863 q 1142 983 1197 954 q 1004 1013 1088 1013 q 561 896 785 1013 q 232 647 368 797 q 104 411 104 506 q 239 292 104 292 q 456 338 336 292 q 682 467 581 386 q 886 679 789 551 q 992 850 971 790 q 1019 896 1007 896 q 1028 879 1028 896 q 1021 844 1028 865 q 929 675 1001 781 q 704 433 832 535 q 467 301 597 349 q 246 260 349 260 q 56 426 56 260 q 182 694 56 549 q 506 935 308 839 q 957 1040 725 1040 q 1261 860 1261 1040 q 1151 589 1261 776 q 947 268 1119 535 q 836 63 836 99 q 896 24 836 24 q 1058 108 947 24 q 1263 308 1168 193 q 1575 718 1396 471 l 1714 990 q 1747 1019 1721 1010 q 1803 1039 1801 1039 q 1813 1029 1813 1039 q 1806 1008 1813 1022 z "},"V":{"ha":1549,"x_min":26,"x_max":1736,"o":"m 1736 839 q 1585 447 1736 658 q 1260 128 1453 264 q 957 -6 1074 -6 q 851 35 894 -6 q 808 147 808 76 q 904 389 808 229 q 1083 664 994 526 q 1179 888 1179 818 q 1117 975 1179 940 q 936 1013 1050 1013 q 585 925 789 1013 q 231 700 371 833 q 68 393 68 547 q 219 268 68 268 q 694 485 438 268 q 1033 883 914 668 q 1056 874 1053 893 q 703 426 925 606 q 232 236 465 236 q 81 285 136 236 q 26 424 26 335 q 185 754 26 603 q 539 964 319 883 q 911 1038 739 1038 q 1246 840 1246 1038 q 1150 588 1246 751 q 971 306 1060 446 q 874 89 874 151 q 954 19 874 19 q 1253 167 1079 19 q 1538 507 1419 310 q 1665 889 1665 721 q 1622 1010 1665 982 q 1633 1028 1618 1021 q 1701 968 1672 1013 q 1736 839 1736 914 z "},"W":{"ha":2001,"x_min":56,"x_max":2176,"o":"m 2176 786 q 2051 425 2176 617 q 1758 122 1935 244 q 1418 -4 1576 -4 q 1278 136 1285 -4 q 961 -7 1085 -7 q 876 29 911 -7 q 842 126 842 65 q 938 379 842 217 q 1113 656 1025 518 q 1207 868 1207 807 q 1144 968 1207 932 q 956 1008 1076 1008 q 574 906 782 1008 q 240 665 376 808 q 97 392 97 517 q 232 282 97 282 q 592 388 406 282 q 872 611 743 475 q 1011 806 983 729 q 1039 803 1028 817 q 744 435 960 603 q 271 250 508 250 q 56 413 56 250 q 182 698 56 550 q 507 940 308 846 q 943 1042 721 1042 q 1189 981 1103 1042 q 1271 826 1271 924 q 1172 574 1271 747 q 992 278 1153 539 q 894 81 894 121 q 956 22 894 22 q 1278 181 1083 22 q 1383 485 1290 304 q 1583 782 1472 657 q 1775 917 1701 917 q 1831 858 1831 917 q 1686 551 1831 749 q 1360 201 1546 360 q 1346 104 1346 144 q 1438 21 1346 21 q 1731 154 1571 21 q 1988 468 1882 282 q 2097 829 2097 664 q 2003 1001 2097 947 q 2018 1025 1993 1022 q 2115 950 2068 1007 q 2176 786 2176 876 m 1794 864 q 1774 892 1794 892 q 1580 678 1714 892 q 1381 269 1446 465 q 1669 605 1544 425 q 1794 864 1794 785 z "},"X":{"ha":1603,"x_min":29,"x_max":1883,"o":"m 1883 938 q 1858 864 1883 897 q 1790 828 1829 828 q 1729 896 1729 828 q 1756 958 1729 931 q 1815 986 1782 986 q 1825 993 1825 986 q 1788 1006 1825 1006 q 1483 821 1660 1006 q 1210 429 1322 651 q 1474 437 1436 435 q 1558 446 1511 439 q 1600 451 1600 451 q 1613 438 1613 451 q 1558 404 1613 424 q 1442 385 1500 385 q 1186 381 1396 385 q 1110 111 1110 217 q 1133 48 1110 72 q 1193 24 1157 24 q 1426 115 1289 24 q 1600 272 1547 196 q 1622 256 1619 275 q 1446 88 1581 175 q 1194 -6 1301 -6 q 1088 37 1128 -6 q 1047 147 1047 79 q 1081 339 1047 233 q 800 94 958 189 q 497 -4 638 -4 q 417 24 449 -4 q 385 97 385 51 q 412 164 385 138 q 472 190 439 190 q 542 128 542 190 q 514 72 542 94 q 454 49 486 49 q 438 51 454 49 q 431 47 431 51 q 447 29 431 39 q 492 19 464 19 q 761 125 613 19 q 1015 378 900 224 l 840 375 q 813 390 813 375 q 825 413 813 403 q 850 422 838 422 q 1050 426 868 422 q 1193 804 1193 638 q 915 1011 1193 1011 q 532 894 742 1011 q 203 635 342 788 q 64 379 64 483 q 97 291 64 325 q 182 257 129 257 q 622 469 361 257 q 924 819 863 665 q 942 819 932 822 q 954 807 953 815 q 654 440 890 638 q 206 226 397 226 q 83 263 131 226 q 29 389 29 306 q 155 669 29 514 q 471 928 281 825 q 903 1043 685 1043 q 1182 971 1086 1043 q 1268 794 1268 906 q 1251 665 1268 732 q 1503 922 1367 825 q 1774 1028 1649 1028 q 1855 1003 1826 1028 q 1883 938 1883 978 z "},"Y":{"ha":1500,"x_min":63,"x_max":1794,"o":"m 1790 1004 q 1561 579 1722 904 q 1383 207 1472 393 q 1207 -94 1278 -10 q 829 -315 1025 -315 q 742 -284 776 -315 q 708 -201 708 -253 q 731 -139 708 -162 q 788 -115 754 -115 q 838 -135 817 -115 q 858 -187 858 -156 q 838 -236 858 -215 q 792 -257 818 -257 q 772 -262 775 -257 q 781 -277 769 -268 q 825 -286 792 -286 q 1119 -75 969 -286 q 1275 199 1172 0 q 1435 514 1356 356 q 1217 263 1308 358 q 829 -1 965 -1 q 729 106 729 -1 q 835 351 729 179 q 1031 653 932 501 q 1136 889 1136 821 q 972 1003 1136 1003 q 529 888 744 1003 q 222 639 347 789 q 107 403 107 500 q 143 310 107 342 q 224 282 175 282 q 643 458 439 282 q 840 667 746 546 q 946 835 929 779 q 975 829 964 858 q 882 660 957 768 q 663 425 785 521 q 239 250 443 250 q 63 418 63 250 q 181 688 63 540 q 485 932 300 835 q 906 1040 690 1040 q 1207 849 1207 1040 q 1099 568 1207 750 q 896 267 1056 496 q 788 74 788 110 q 835 35 788 35 q 1194 297 949 35 q 1560 750 1469 592 l 1706 1007 q 1758 1024 1707 1011 q 1794 1015 1794 1033 q 1790 1004 1794 1011 z "},"Z":{"ha":1556,"x_min":31,"x_max":1775,"o":"m 1775 1017 q 1672 939 1775 985 q 1415 864 1560 888 q 1335 796 1369 832 q 1118 549 1279 733 l 1269 547 q 1406 556 1382 547 q 1424 553 1419 561 q 1411 536 1426 544 q 1250 503 1356 503 q 1076 503 1206 503 q 914 331 985 403 q 1193 149 1018 283 q 1399 44 1328 44 q 1511 78 1467 44 q 1531 63 1529 78 q 1456 22 1506 40 q 1333 -1 1393 -1 q 1175 49 1256 -1 q 1031 160 1131 75 q 867 283 932 244 q 817 238 838 256 q 239 -10 542 -10 q 31 107 31 -10 q 188 306 31 217 q 582 400 354 400 q 865 350 731 400 q 1001 504 917 406 l 781 504 q 764 529 758 504 q 796 554 769 554 q 1042 550 797 554 q 1206 726 1150 675 q 1368 857 1300 811 q 1240 850 1301 850 q 842 919 1092 850 q 503 988 593 988 q 240 896 360 988 q 129 722 129 810 q 138 664 129 682 q 111 657 131 649 q 93 732 93 679 q 244 949 93 858 q 569 1033 389 1033 q 994 959 682 1033 q 1399 885 1307 885 q 1526 968 1463 926 q 1733 1042 1653 1042 q 1775 1017 1775 1042 m 825 306 q 561 368 701 368 q 235 282 388 368 q 82 100 82 196 q 228 22 82 22 q 825 306 553 22 z "},"[":{"ha":510,"x_min":50,"x_max":736,"o":"m 736 1060 l 721 1019 l 642 1019 q 588 1006 606 1019 q 556 957 571 992 l 167 -6 q 160 -39 160 -25 q 197 -71 160 -71 l 279 -71 l 264 -111 l 50 -111 l 522 1060 l 736 1060 z "},"\\":{"ha":471,"x_min":13,"x_max":433,"o":"m 433 -128 l 379 -128 l 13 971 l 67 971 l 433 -128 z "},"]":{"ha":511,"x_min":-3,"x_max":683,"o":"m 683 1060 l 211 -111 l -3 -111 l 13 -71 l 94 -71 q 178 -6 151 -71 l 567 957 q 576 994 576 982 q 532 1019 576 1019 l 453 1019 l 469 1060 l 683 1060 z "},"^":{"ha":932,"x_min":54,"x_max":882,"o":"m 882 725 l 788 725 l 467 1031 l 144 725 l 54 725 l 413 1110 l 524 1110 l 882 725 z "},"_":{"ha":689,"x_min":4,"x_max":685,"o":"m 685 -131 l 4 -131 l 4 -60 l 685 -60 l 685 -131 z "},"`":{"ha":299,"x_min":81,"x_max":244,"o":"m 244 904 q 239 900 244 901 q 150 963 215 900 q 81 1068 81 1028 q 108 1093 81 1093 q 147 1053 136 1093 q 178 971 164 992 q 221 926 193 950 q 244 904 244 908 z "},"a":{"ha":489,"x_min":4,"x_max":461,"o":"m 461 414 q 453 397 461 410 q 379 231 450 393 q 317 57 317 88 q 333 36 317 36 q 439 122 365 36 q 451 118 444 124 q 456 106 457 113 q 300 -1 381 -1 q 235 64 235 -1 q 257 146 235 86 q 75 1 143 1 q 4 89 4 1 q 125 322 4 211 q 365 429 242 429 q 456 421 428 429 q 461 414 461 418 m 343 368 q 324 393 343 393 q 170 260 267 393 q 74 61 74 126 q 96 36 74 36 q 242 174 132 36 q 317 289 292 238 q 343 368 343 340 z "},"b":{"ha":415,"x_min":18,"x_max":506,"o":"m 506 779 q 481 696 506 749 q 397 572 450 632 q 215 424 331 499 q 179 340 197 382 q 322 429 263 429 q 400 346 400 429 q 307 121 400 239 q 114 -1 210 -1 q 43 22 68 -1 q 18 81 18 46 q 94 354 18 169 q 265 674 171 539 q 450 829 374 829 q 506 779 506 829 m 453 774 q 435 796 453 796 q 372 739 413 796 q 292 596 331 682 q 240 483 271 553 q 374 607 318 529 q 453 774 453 717 m 317 361 q 294 389 317 389 q 226 344 274 389 q 138 235 175 296 q 85 63 85 96 q 118 26 85 26 q 246 154 174 26 q 317 361 317 278 z "},"c":{"ha":364,"x_min":21,"x_max":351,"o":"m 351 356 q 331 302 351 321 q 289 283 311 283 q 247 324 247 283 q 269 360 247 343 q 290 386 290 378 q 276 400 290 400 q 161 258 229 400 q 99 63 99 125 q 125 32 99 32 q 211 76 160 32 q 271 140 254 113 q 285 137 278 143 q 293 121 293 131 q 228 51 268 86 q 111 -1 167 -1 q 21 114 21 -1 q 109 322 21 214 q 282 431 197 431 q 351 356 351 431 z "},"d":{"ha":483,"x_min":4,"x_max":610,"o":"m 607 786 q 374 229 531 600 q 311 56 311 86 q 324 35 311 35 q 386 72 347 35 q 433 121 410 96 q 449 104 449 121 q 294 -3 374 -3 q 233 57 233 -3 q 256 144 233 85 q 75 0 142 0 q 24 27 44 0 q 4 96 4 54 q 106 304 4 196 q 364 426 219 426 q 372 426 361 426 q 524 776 511 750 q 533 790 529 786 q 549 798 538 794 q 588 808 560 801 q 610 796 610 814 q 607 786 610 792 m 346 365 q 322 390 346 390 q 167 250 264 390 q 74 60 74 115 q 90 35 74 35 q 240 172 132 35 q 317 286 292 236 q 346 365 346 347 z "},"e":{"ha":371,"x_min":17,"x_max":358,"o":"m 358 368 q 254 206 358 278 q 101 143 171 150 q 85 75 85 99 q 136 26 85 26 q 231 64 178 26 q 294 125 272 94 q 317 113 313 135 q 251 47 293 79 q 124 0 186 0 q 17 106 17 0 q 110 322 17 213 q 285 431 203 431 q 358 368 358 431 m 301 376 q 282 403 301 403 q 199 325 253 403 q 113 174 149 256 q 238 246 175 176 q 301 376 301 315 z "},"f":{"ha":332,"x_min":-94,"x_max":521,"o":"m 521 767 q 356 488 521 672 q 215 354 279 404 l 183 278 q 251 276 229 276 q 331 289 303 276 q 344 289 342 294 q 342 275 349 283 q 217 235 303 235 q 167 235 192 235 q -33 -249 82 26 q -76 -281 -42 -267 q -90 -278 -86 -283 q -92 -257 -94 -274 q 88 236 -85 -219 q 57 236 65 236 q 26 236 18 236 q 13 249 13 238 q 47 272 13 256 q 117 314 93 296 l 167 444 q 299 679 215 565 q 474 815 400 815 q 521 767 521 815 m 474 767 q 457 789 474 789 q 329 628 415 789 q 235 404 313 594 q 357 543 306 474 q 474 767 474 703 z "},"g":{"ha":446,"x_min":-74,"x_max":453,"o":"m 451 414 q 444 397 450 410 q 319 86 406 303 q 371 132 357 114 q 394 114 388 132 q 301 40 371 86 l 292 13 q 165 -196 250 -99 q -15 -308 68 -308 q -74 -250 -74 -308 q -35 -167 -74 -217 q 63 -78 4 -118 q 207 14 101 -50 q 256 146 225 64 q 75 1 142 1 q 3 89 3 1 q 124 322 3 211 q 364 429 242 429 q 447 421 418 429 q 451 414 453 418 m 342 368 q 322 393 342 393 q 170 260 267 393 q 74 61 74 126 q 96 36 74 36 q 242 174 132 36 q 316 289 290 238 q 342 368 342 340 m 190 -29 q 103 -86 122 -71 q 25 -168 58 -124 q -14 -250 -14 -219 q 8 -275 -14 -275 q 94 -209 44 -275 q 179 -58 144 -143 l 190 -29 z "},"h":{"ha":451,"x_min":-15,"x_max":524,"o":"m 524 750 q 404 535 524 667 q 210 371 300 418 q 138 192 175 288 q 249 319 179 249 q 349 409 318 390 q 410 428 379 428 q 426 413 426 428 q 407 378 426 417 q 328 210 378 319 q 268 51 268 72 q 292 31 268 31 q 394 119 343 31 q 421 111 419 128 q 368 44 400 76 q 276 -1 321 -1 q 199 61 199 -1 q 242 206 199 106 q 294 315 271 275 l 290 322 q 233 267 279 315 q 156 174 185 213 q 78 39 99 96 q 0 0 71 21 q -11 3 -8 -3 q -10 24 -15 10 l 207 546 q 324 728 250 647 q 469 814 404 814 q 524 750 524 814 m 469 757 q 453 779 469 779 q 360 685 418 779 q 232 422 315 617 q 381 571 299 461 q 469 757 469 690 z "},"i":{"ha":292,"x_min":22,"x_max":321,"o":"m 321 569 q 303 523 321 544 q 261 501 286 501 q 214 556 214 501 q 231 602 214 581 q 274 624 249 624 q 321 569 321 624 m 263 408 q 172 225 217 317 q 100 51 100 76 q 115 33 100 33 q 178 68 136 33 q 231 119 213 96 q 242 116 235 121 q 247 104 249 111 q 193 46 228 76 q 92 -1 138 -1 q 22 65 22 -1 q 88 238 22 93 q 149 369 114 292 q 139 385 154 385 q 108 406 108 385 q 132 425 108 426 q 246 431 192 421 q 261 426 256 432 q 263 408 267 419 z "},"j":{"ha":254,"x_min":-157,"x_max":300,"o":"m 300 554 q 283 508 300 529 q 243 488 267 488 q 197 540 197 488 q 214 585 197 565 q 254 606 231 606 q 300 554 300 606 m 240 408 q 133 153 194 300 q 107 24 126 136 q 61 -132 88 -82 q -21 -237 29 -190 q -106 -285 -71 -285 q -157 -236 -157 -285 q -53 -35 -157 -169 q 36 54 -10 22 q 50 149 40 117 q 140 372 94 256 q 129 383 144 383 q 93 399 93 383 q 107 418 93 415 q 165 418 125 418 q 222 431 204 421 q 242 419 242 440 q 240 408 242 414 m 32 14 q -19 -42 1 -12 q -103 -215 -103 -154 q -87 -247 -103 -247 q -33 -192 -67 -247 q 18 -83 1 -137 q 32 14 28 -49 z "},"k":{"ha":485,"x_min":-17,"x_max":522,"o":"m 522 750 q 403 535 522 667 q 208 371 299 418 q 151 231 182 304 q 242 331 210 301 q 408 425 344 425 q 471 368 471 425 q 385 242 471 307 q 207 160 299 176 q 332 43 286 47 q 417 74 383 38 q 424 78 419 78 q 440 63 440 78 q 436 54 440 58 q 297 0 371 0 q 194 51 246 0 q 118 146 185 61 q 76 39 81 53 q -1 0 71 21 q -12 3 -10 -3 q -11 24 -17 10 l 206 546 q 322 728 249 647 q 468 814 403 814 q 522 750 522 814 m 468 757 q 451 779 468 779 q 358 685 417 779 q 231 422 314 617 q 379 571 297 461 q 468 757 468 690 m 389 381 q 374 393 389 393 q 246 293 339 393 q 157 189 157 200 q 181 181 157 181 q 312 254 235 181 q 389 381 389 328 z "},"l":{"ha":306,"x_min":10,"x_max":504,"o":"m 504 757 q 467 644 504 717 q 382 518 432 578 q 194 347 296 413 q 75 44 75 79 q 94 24 75 24 q 171 56 124 24 q 225 101 211 82 q 246 85 246 99 q 190 35 226 60 q 83 -1 136 -1 q 10 64 10 -1 q 86 294 10 115 q 213 558 154 456 q 333 728 268 657 q 461 808 408 808 q 504 757 504 808 m 454 758 q 442 774 454 774 q 375 703 425 774 q 290 556 325 633 l 219 401 q 365 565 307 474 q 454 758 454 704 z "},"m":{"ha":669,"x_min":0,"x_max":636,"o":"m 636 413 q 617 378 636 417 q 539 210 588 319 q 478 51 478 72 q 503 31 478 31 q 604 119 553 31 q 631 111 629 128 q 578 44 611 76 q 488 -1 531 -1 q 408 61 408 -1 q 451 206 408 106 q 504 315 481 275 l 500 322 q 365 174 465 303 q 269 25 314 106 q 203 0 261 7 q 183 7 183 -3 q 247 147 183 14 q 325 313 317 290 l 319 319 q 185 171 286 301 q 79 31 119 88 q 54 12 75 22 q 17 1 33 1 q 0 18 0 1 q 76 182 0 28 q 144 356 144 321 q 125 382 144 382 q 76 367 122 382 q 67 376 71 367 q 67 389 64 385 q 176 426 117 426 q 232 378 232 426 q 160 189 232 333 l 165 188 q 276 315 206 243 q 378 406 347 388 q 446 425 408 425 q 465 414 465 425 q 446 376 465 415 l 367 217 q 558 408 486 365 q 619 428 589 428 q 636 413 636 428 z "},"n":{"ha":482,"x_min":-1,"x_max":449,"o":"m 449 413 q 429 378 449 417 q 351 210 400 319 q 290 51 290 72 q 315 31 290 31 q 417 119 365 31 q 443 111 443 128 q 392 44 424 76 q 300 -1 343 -1 q 221 61 221 -1 q 264 206 221 106 q 318 315 294 275 l 313 322 q 178 174 279 303 q 72 32 113 89 q 15 3 53 3 q -1 19 -1 3 q 75 185 -1 22 q 142 354 142 328 q 122 381 142 381 q 68 365 115 381 q 58 388 53 371 q 172 426 111 426 q 208 413 192 426 q 224 376 224 400 q 153 192 224 333 l 158 189 q 269 317 199 244 q 371 409 340 390 q 433 428 401 428 q 449 413 449 428 z "},"o":{"ha":422,"x_min":24,"x_max":419,"o":"m 414 196 q 361 172 390 172 q 349 174 357 172 q 246 49 308 100 q 131 -1 183 -1 q 24 106 24 -1 q 115 327 24 221 q 321 433 207 433 q 340 425 340 433 q 321 411 340 411 q 164 275 243 411 q 92 65 92 150 q 133 21 92 21 q 220 72 171 21 q 304 193 269 124 q 260 286 260 226 q 283 368 260 339 q 329 393 304 393 q 389 314 389 393 q 360 197 389 258 q 371 196 369 196 q 406 211 388 196 q 414 196 419 208 m 343 321 q 324 368 343 368 q 299 290 299 368 q 317 218 299 240 q 343 321 343 279 z "},"p":{"ha":422,"x_min":-147,"x_max":421,"o":"m 421 360 q 335 136 421 264 q 153 -1 242 -1 q 75 24 106 -1 q -74 -282 17 -103 q -94 -299 -78 -290 q -125 -308 -111 -308 q -147 -292 -147 -308 q -144 -278 -147 -286 l 124 339 q 128 357 128 349 q 111 379 128 379 q 78 356 106 379 q 51 371 57 347 q 154 429 92 429 q 203 371 203 429 q 176 268 203 321 q 350 429 281 429 q 421 360 421 429 m 343 371 q 331 394 343 394 q 238 299 310 394 q 119 122 174 213 q 86 46 103 83 q 131 28 106 28 q 274 167 197 28 q 343 371 343 293 z "},"q":{"ha":456,"x_min":7,"x_max":468,"o":"m 468 411 q 451 386 468 406 q 317 69 449 383 q 164 -281 206 -196 q 101 -303 151 -303 q 79 -290 79 -303 q 83 -278 79 -286 q 251 110 165 -89 l 246 114 q 186 51 233 92 q 72 -3 122 -3 q 7 81 7 -3 q 115 304 7 188 q 365 429 232 429 q 468 411 468 429 m 358 364 q 360 372 360 368 q 325 389 360 389 q 161 244 254 389 q 78 51 78 111 q 94 26 78 26 q 181 82 124 26 q 267 185 231 131 q 358 364 304 240 z "},"r":{"ha":317,"x_min":57,"x_max":285,"o":"m 281 115 q 228 49 261 82 q 131 0 176 0 q 78 19 100 0 q 57 69 57 39 q 135 243 57 106 q 199 368 199 356 q 182 386 199 386 q 142 356 163 386 q 93 292 104 303 q 89 290 92 290 q 74 297 82 290 q 68 310 67 303 q 113 374 107 360 q 92 447 92 415 q 142 515 92 515 q 188 467 188 515 q 179 418 188 432 l 183 414 q 243 431 228 431 q 278 381 278 431 q 253 301 278 350 q 201 207 251 297 q 150 116 175 161 q 125 51 125 71 q 142 31 125 31 q 214 75 168 31 q 268 135 244 103 q 281 115 285 131 z "},"s":{"ha":343,"x_min":-18,"x_max":322,"o":"m 322 461 q 297 431 322 451 q 271 382 271 410 q 283 326 271 358 q 294 256 294 294 q 226 74 294 147 q 68 0 157 0 q -18 79 -18 0 q 1 140 -18 117 q 44 164 21 164 q 92 115 92 164 q 72 71 92 88 q 31 54 53 54 q 19 46 18 54 q 60 21 26 21 q 164 96 118 21 q 210 267 210 171 q 196 310 210 297 q 178 310 188 319 q 107 235 147 276 q 92 239 100 232 q 85 253 83 246 q 190 374 117 286 q 249 450 219 411 q 299 485 275 485 q 322 461 322 485 z "},"t":{"ha":319,"x_min":17,"x_max":340,"o":"m 339 593 l 251 406 l 315 406 q 335 388 335 406 q 315 369 335 369 l 233 369 l 104 93 q 93 53 93 69 q 114 25 93 25 q 219 103 151 25 q 242 96 235 108 q 97 0 175 0 q 17 67 17 0 q 29 119 17 92 l 149 369 l 90 369 q 72 388 72 369 q 90 406 72 406 l 165 406 l 254 593 q 303 619 267 619 q 340 603 340 619 q 339 593 340 599 z "},"u":{"ha":500,"x_min":18,"x_max":476,"o":"m 467 411 q 313 53 313 119 q 326 31 313 31 q 385 72 347 31 q 435 139 424 113 q 463 133 456 147 q 406 56 447 99 q 300 -1 351 -1 q 263 15 279 -1 q 242 64 242 33 q 265 158 242 94 q 81 0 143 0 q 18 61 18 0 q 75 218 18 96 q 146 369 110 294 q 135 385 151 385 q 104 406 104 385 q 129 425 104 426 q 242 431 188 421 q 258 426 253 433 q 258 410 264 421 q 175 242 217 326 q 97 58 97 82 q 111 46 97 46 q 315 275 146 46 q 379 404 346 338 q 404 428 390 428 q 427 429 410 428 q 450 431 444 431 q 467 411 476 431 z "},"v":{"ha":422,"x_min":24,"x_max":404,"o":"m 404 317 q 303 102 404 207 q 108 -3 201 -3 q 47 22 71 -3 q 24 85 24 46 q 38 146 24 115 l 128 349 q 121 382 143 382 q 71 367 100 382 q 61 396 56 374 q 165 426 108 426 q 222 378 222 426 q 217 350 222 363 l 101 101 q 89 54 89 75 q 117 24 89 24 q 258 126 182 24 q 335 332 335 228 q 260 411 335 411 q 251 429 251 419 q 260 443 253 439 q 356 413 314 443 q 404 317 404 376 z "},"w":{"ha":635,"x_min":-6,"x_max":628,"o":"m 628 325 q 524 100 628 211 q 324 -11 421 -11 q 265 9 288 -11 q 243 61 243 29 q 333 324 243 143 l 329 329 q 197 175 290 294 q 69 17 110 61 q 43 4 64 11 q 14 -3 22 -3 q 8 25 -6 -3 q 81 190 31 72 q 144 364 144 342 q 128 385 144 385 q 76 368 107 385 q 70 378 72 368 q 69 393 68 388 q 178 428 125 428 q 229 375 229 428 q 222 338 229 357 l 153 171 l 160 167 q 276 314 189 210 q 411 424 375 424 q 451 408 451 424 q 436 378 451 411 q 313 44 313 93 q 339 17 313 17 q 488 135 411 17 q 560 339 560 249 q 490 419 560 419 q 482 432 483 422 q 486 443 481 442 q 587 412 546 443 q 628 325 628 381 z "},"x":{"ha":521,"x_min":-29,"x_max":532,"o":"m 532 386 q 515 344 532 365 q 479 324 499 324 q 446 357 446 324 q 471 397 446 385 q 467 404 482 404 q 406 353 444 404 q 335 235 368 303 l 419 235 q 435 222 435 235 q 410 201 435 201 l 321 201 q 286 69 286 121 q 322 22 286 22 q 460 114 374 22 q 476 100 476 115 q 413 42 454 71 q 304 -1 354 -1 q 242 22 267 -1 q 218 82 218 44 q 222 117 218 97 q 29 0 119 0 q -29 58 -29 0 q -12 107 -29 86 q 26 128 6 128 q 69 89 69 128 q 49 53 69 71 q 28 31 28 35 q 39 22 28 22 q 211 201 110 22 l 136 201 q 121 214 121 201 q 147 235 121 235 l 229 235 q 276 367 276 326 q 244 400 276 400 q 153 367 207 400 q 86 318 111 343 q 65 335 67 315 q 138 392 81 358 q 256 429 204 429 q 314 408 290 429 q 338 353 338 386 q 336 335 338 343 q 486 429 417 429 q 532 386 532 429 z "},"y":{"ha":444,"x_min":-83,"x_max":429,"o":"m 426 404 q 308 85 419 389 q 361 132 347 113 q 385 114 378 132 q 292 40 361 86 l 282 13 q 156 -197 240 -99 q -25 -308 58 -308 q -83 -250 -83 -308 q -44 -167 -83 -217 q 53 -78 -6 -118 q 197 14 92 -51 l 240 121 q 164 46 211 83 q 74 -1 106 -1 q 27 18 46 -1 q 8 65 8 38 q 75 224 8 106 q 147 371 147 351 q 129 393 147 393 q 74 371 114 393 q 54 390 58 375 q 157 429 85 429 q 222 372 222 429 q 147 201 222 342 q 71 46 71 61 q 85 31 71 31 q 206 121 126 31 q 296 253 274 201 l 353 392 q 378 421 365 418 q 406 425 397 425 q 429 413 429 425 q 426 404 429 410 m 181 -29 q 93 -86 113 -71 q 15 -168 49 -124 q -24 -250 -24 -219 q -1 -275 -24 -275 q 85 -209 35 -275 q 169 -58 135 -143 l 181 -29 z "},"z":{"ha":464,"x_min":-4,"x_max":456,"o":"m 456 397 q 413 335 456 365 q 332 306 369 306 q 307 308 319 306 q 263 244 286 288 l 342 244 q 354 232 354 244 q 342 219 354 219 l 249 219 q 224 172 239 203 q 294 126 268 160 q 325 72 300 119 q 358 46 340 46 q 417 111 388 46 q 438 96 435 114 q 397 36 424 65 q 329 -1 364 -1 q 258 51 288 -1 q 206 135 218 124 q 50 -4 129 -4 q -4 40 -4 -4 q 49 133 -4 89 q 167 178 101 178 q 192 176 178 178 q 213 219 204 203 l 160 219 q 147 232 147 219 q 160 244 147 244 l 228 244 q 286 315 254 285 q 221 353 253 335 q 138 376 179 376 q 86 356 107 376 q 65 311 65 336 q 71 282 65 292 q 60 276 68 279 q 46 278 51 275 q 39 311 39 293 q 83 390 39 351 q 179 429 126 429 q 267 397 222 429 q 322 364 313 364 q 426 415 386 415 q 456 397 456 415 m 179 150 q 154 154 167 154 q 79 115 111 154 q 50 51 50 83 q 68 24 50 24 q 179 150 114 24 z "},"{":{"ha":543,"x_min":153,"x_max":854,"o":"m 854 1028 l 842 996 q 674 942 724 989 q 585 782 635 906 l 558 717 q 446 519 499 569 q 243 432 386 463 q 332 399 307 417 q 374 319 374 372 q 324 135 374 261 l 296 68 q 256 -64 256 -32 q 386 -131 256 -126 l 374 -162 q 246 -151 281 -162 q 175 -62 175 -131 q 208 71 175 -12 l 267 217 q 297 324 297 290 q 153 413 297 394 l 168 450 q 338 496 296 469 q 440 646 394 532 l 500 792 q 581 936 539 889 q 719 1014 633 994 q 854 1028 772 1025 z "},"|":{"ha":485,"x_min":207,"x_max":279,"o":"m 279 -325 l 207 -325 l 207 1061 l 279 1061 l 279 -325 z "},"}":{"ha":668,"x_min":-74,"x_max":626,"o":"m 626 450 l 611 413 q 471 381 519 401 q 369 283 404 350 q 339 217 356 260 l 279 71 q 149 -115 224 -68 q -74 -162 75 -162 l -61 -131 q 103 -85 54 -126 q 190 68 142 -51 l 217 135 q 332 340 278 286 q 538 432 396 403 q 400 547 400 467 q 451 717 400 588 l 478 782 q 521 924 521 888 q 394 996 521 988 l 407 1028 q 575 994 533 1024 q 607 928 607 972 q 571 792 607 881 l 513 646 q 485 536 485 576 q 533 467 485 485 q 626 450 540 464 z "},"~":{"ha":907,"x_min":53,"x_max":872,"o":"m 872 1044 q 800 946 849 985 q 656 896 739 896 q 458 938 590 896 q 264 981 326 981 q 90 874 161 981 l 53 894 q 156 1017 104 981 q 282 1054 208 1054 q 475 1013 349 1054 q 668 971 601 971 q 838 1067 771 971 l 872 1044 z "},"":{"ha":1851,"x_min":63,"x_max":2151,"o":"m 2040 1025 q 1775 560 1957 876 q 1669 369 1722 469 q 1781 367 1750 367 q 1875 375 1814 367 q 1879 347 1893 367 q 1647 326 1836 326 q 1624 282 1635 304 q 1715 142 1715 231 q 1669 35 1715 75 q 1565 -4 1622 -4 q 1481 32 1515 -4 q 1447 125 1447 68 q 1511 292 1447 174 q 1290 325 1422 318 q 490 -8 875 -8 q 197 65 315 -8 q 63 299 63 149 q 254 594 63 474 q 649 706 431 706 q 1013 614 879 706 q 1017 606 1017 610 q 992 589 1017 582 q 696 668 893 668 q 311 547 488 668 q 125 254 125 421 q 232 82 125 149 q 475 21 332 21 q 1239 326 856 21 l 1106 329 l 528 332 q 482 332 489 332 q 468 346 468 335 q 506 380 468 358 q 575 401 544 401 q 840 393 596 401 q 1218 381 1114 383 l 1303 379 q 1364 435 1339 410 q 1958 1018 1653 718 q 2015 1046 1981 1038 q 2044 1038 2044 1053 q 2040 1025 2044 1033 m 1915 932 l 1904 933 q 1722 744 1894 922 q 1468 485 1539 556 q 1353 378 1414 431 l 1556 372 q 1690 585 1597 440 l 1915 932 m 1654 165 q 1607 249 1654 213 q 1528 58 1528 92 q 1563 18 1528 18 q 1624 64 1594 18 q 1654 165 1654 110 m 2151 1163 q 2106 1111 2151 1111 q 2076 1144 2076 1111 q 2118 1192 2076 1192 q 2151 1163 2151 1192 m 2010 1163 q 1964 1111 2010 1111 q 1933 1144 1933 1111 q 1975 1192 1933 1192 q 2010 1163 2010 1192 z "},"":{"ha":1851,"x_min":63,"x_max":2192,"o":"m 2040 1025 q 1775 560 1957 876 q 1669 369 1722 469 q 1781 367 1750 367 q 1875 375 1814 367 q 1879 347 1893 367 q 1647 326 1836 326 q 1624 282 1635 304 q 1715 142 1715 231 q 1669 35 1715 75 q 1565 -4 1622 -4 q 1481 32 1515 -4 q 1447 125 1447 68 q 1511 292 1447 174 q 1290 325 1422 318 q 490 -8 875 -8 q 197 65 315 -8 q 63 299 63 149 q 254 594 63 474 q 649 706 431 706 q 1013 614 879 706 q 1017 606 1017 610 q 992 589 1017 582 q 696 668 893 668 q 311 547 488 668 q 125 254 125 421 q 232 82 125 149 q 475 21 332 21 q 1239 326 856 21 l 1106 329 l 528 332 q 482 332 489 332 q 468 346 468 335 q 506 380 468 358 q 575 401 544 401 q 840 393 596 401 q 1218 381 1114 383 l 1303 379 q 1364 435 1339 410 q 1958 1018 1653 718 q 2015 1046 1981 1038 q 2044 1038 2044 1053 q 2040 1025 2044 1033 m 1915 932 l 1904 933 q 1722 744 1894 922 q 1468 485 1539 556 q 1353 378 1414 431 l 1556 372 q 1690 585 1597 440 l 1915 932 m 1654 165 q 1607 249 1654 213 q 1528 58 1528 92 q 1563 18 1528 18 q 1624 64 1594 18 q 1654 165 1654 110 m 2192 1215 q 2152 1128 2192 1167 q 2063 1089 2113 1089 q 2003 1112 2026 1089 q 1979 1171 1979 1135 q 2018 1259 1979 1221 q 2107 1297 2057 1297 q 2167 1274 2143 1297 q 2192 1215 2192 1251 m 2153 1207 q 2099 1260 2153 1260 q 2041 1235 2067 1260 q 2015 1179 2015 1211 q 2069 1126 2015 1126 q 2127 1151 2101 1126 q 2153 1207 2153 1176 z "},"":{"ha":1356,"x_min":47,"x_max":1601,"o":"m 1601 924 q 1374 632 1601 781 q 908 413 1194 514 q 524 307 672 329 q 489 165 489 226 q 542 65 489 101 q 676 29 594 29 q 1025 103 840 29 q 1314 265 1186 167 q 1335 247 1340 265 q 1058 79 1232 153 q 688 -7 860 -7 q 669 -6 678 -7 l 618 -79 l 638 -79 q 722 -125 722 -79 q 665 -204 722 -174 q 565 -228 618 -228 q 524 -224 539 -228 q 517 -217 515 -222 q 526 -210 519 -210 q 671 -143 651 -218 q 672 -132 672 -137 q 626 -103 672 -103 l 594 -103 l 586 -89 l 646 -6 q 411 243 411 11 q 417 296 411 267 q 354 293 381 293 q 154 328 247 293 q 51 392 75 357 q 54 408 47 403 q 75 413 61 413 q 360 329 179 329 q 425 332 388 329 q 651 668 469 497 q 1040 935 821 829 q 1438 1043 1265 1043 q 1561 1008 1517 1043 q 1601 924 1601 978 m 1557 946 q 1463 1014 1557 1014 q 932 793 1218 1014 q 544 351 669 590 q 894 467 669 376 q 1338 688 1165 575 q 1557 946 1557 831 z "},"":{"ha":985,"x_min":57,"x_max":1160,"o":"m 1160 965 q 992 797 1160 863 q 622 729 843 739 q 611 675 611 700 q 631 625 611 643 q 799 638 717 638 q 939 626 885 638 q 993 597 993 614 q 940 565 993 579 q 821 551 888 551 q 629 593 711 551 q 300 423 433 547 q 167 169 167 299 q 364 33 167 33 q 992 286 733 33 q 1006 267 1011 286 q 718 67 914 143 q 369 -3 540 -3 q 129 64 211 -3 q 57 229 57 125 q 222 482 57 372 q 592 618 369 579 q 536 728 538 663 q 297 779 425 732 q 154 856 185 819 q 157 869 151 863 q 169 875 163 875 q 286 815 196 850 q 538 758 408 767 q 706 956 557 865 q 1015 1046 854 1046 q 1160 965 1160 1046 m 1106 976 q 1036 1019 1106 1019 q 801 936 926 1019 q 633 757 685 856 q 951 836 796 765 q 1106 976 1106 907 m 1138 1256 q 1070 1151 1138 1215 q 979 1088 1003 1088 q 974 1092 974 1089 q 997 1114 974 1096 q 1040 1158 1025 1138 q 1071 1240 1054 1179 q 1110 1281 1082 1281 q 1138 1256 1138 1281 z "},"":{"ha":1725,"x_min":60,"x_max":2068,"o":"m 2017 933 q 1767 465 2017 776 q 1503 178 1653 326 q 1308 4 1378 56 q 1292 -3 1300 -3 q 1281 10 1281 -3 q 1288 28 1281 18 q 1415 254 1356 124 q 1588 661 1471 393 q 1674 836 1647 789 l 1667 840 q 1513 646 1643 800 q 1215 343 1346 451 q 424 -4 801 -4 q 165 69 265 -4 q 60 278 60 146 q 247 567 60 450 q 717 683 435 683 q 1121 597 957 683 q 1118 583 1124 592 q 1106 575 1113 575 q 743 653 936 653 q 315 528 510 653 q 117 240 117 400 q 207 79 117 139 q 404 24 289 24 q 824 130 594 24 q 1244 415 1054 236 q 1606 810 1415 575 q 1772 1024 1689 917 q 1818 1044 1793 1044 q 1832 1029 1832 1044 q 1814 999 1832 1026 q 1776 932 1790 964 q 1608 472 1724 768 q 1444 175 1517 278 l 1451 175 q 1575 293 1478 190 q 1772 539 1692 419 q 1968 972 1968 828 q 1963 1014 1968 997 q 1985 1029 1965 1032 q 2017 933 2017 993 m 2067 1185 q 2046 1143 2065 1167 q 1974 1114 2017 1110 q 1903 1140 1949 1117 q 1833 1165 1858 1163 q 1788 1147 1807 1168 q 1768 1126 1769 1125 q 1764 1133 1764 1126 q 1788 1175 1765 1149 q 1847 1206 1815 1210 q 1923 1178 1874 1203 q 1996 1151 1972 1153 q 2045 1170 2028 1147 q 2063 1193 2063 1193 q 2067 1185 2068 1193 z "},"":{"ha":1208,"x_min":79,"x_max":1322,"o":"m 1322 779 q 1169 386 1322 575 q 815 103 1032 213 q 400 -6 597 -6 q 329 0 364 -6 q 385 -90 346 -47 q 376 -105 386 -99 q 357 -107 367 -111 q 292 7 310 -62 q 79 281 79 57 q 236 665 79 479 q 599 940 376 832 q 1007 1044 815 1044 q 1204 1015 1133 1044 q 1204 1001 1208 1008 q 1190 993 1199 994 q 1007 1015 1129 1015 q 631 892 836 1015 q 296 593 431 771 q 151 226 151 401 q 285 38 151 81 q 276 136 276 82 q 390 531 276 331 q 679 857 503 731 q 1063 992 868 992 q 1258 926 1188 992 q 1322 779 1322 868 m 1269 797 q 1211 919 1269 876 q 1063 963 1153 963 q 708 817 892 963 q 427 481 542 683 q 313 110 313 278 q 321 29 313 67 q 365 25 344 25 q 754 141 539 25 q 1113 429 969 257 q 1269 797 1269 618 m 1196 1163 q 1150 1111 1196 1111 q 1121 1144 1121 1111 q 1163 1192 1121 1192 q 1196 1163 1196 1192 m 1054 1163 q 1008 1111 1054 1111 q 978 1144 978 1111 q 1019 1192 978 1192 q 1054 1163 1054 1192 z "},"":{"ha":1704,"x_min":60,"x_max":1817,"o":"m 1810 1008 q 1590 547 1746 874 q 1401 61 1401 144 q 1410 41 1401 51 q 1431 31 1419 31 q 1582 132 1488 31 q 1699 288 1656 213 q 1717 294 1708 294 q 1726 283 1726 293 q 1619 118 1692 203 q 1424 -1 1517 -1 q 1318 101 1318 -1 q 1456 478 1318 207 q 1290 274 1354 344 q 885 -8 1035 -8 q 779 101 779 -8 q 889 371 779 185 q 1092 690 890 375 q 1201 911 1201 863 q 1147 983 1201 954 q 1008 1013 1092 1013 q 565 896 789 1013 q 236 647 372 797 q 108 411 108 506 q 243 292 108 292 q 460 338 340 292 q 686 467 585 386 q 890 679 793 551 q 996 850 975 790 q 1024 896 1011 896 q 1032 879 1032 896 q 1025 844 1032 865 q 933 675 1006 781 q 708 433 836 535 q 471 301 601 349 q 250 260 353 260 q 60 426 60 260 q 186 694 60 549 q 510 935 313 839 q 961 1040 729 1040 q 1265 860 1265 1040 q 1156 589 1265 776 q 951 268 1124 535 q 840 63 840 99 q 900 24 840 24 q 1062 108 951 24 q 1267 308 1172 193 q 1579 718 1400 471 l 1718 990 q 1751 1019 1725 1010 q 1807 1039 1806 1039 q 1817 1029 1817 1039 q 1810 1008 1817 1022 m 1636 1154 q 1590 1103 1636 1103 q 1561 1136 1561 1103 q 1603 1183 1561 1183 q 1636 1154 1636 1183 m 1494 1154 q 1449 1103 1494 1103 q 1418 1136 1418 1103 q 1460 1183 1418 1183 q 1494 1154 1494 1183 z "},"":{"ha":489,"x_min":8,"x_max":532,"o":"m 465 414 q 457 397 465 410 q 383 231 454 393 q 321 57 321 88 q 338 36 321 36 q 443 122 369 36 q 455 118 449 124 q 460 106 461 113 q 304 -1 385 -1 q 239 64 239 -1 q 261 146 239 86 q 79 1 147 1 q 8 89 8 1 q 129 322 8 211 q 369 429 246 429 q 460 421 432 429 q 465 414 465 418 m 347 368 q 328 393 347 393 q 174 260 271 393 q 78 61 78 126 q 100 36 78 36 q 246 174 136 36 q 322 289 296 238 q 347 368 347 340 m 532 640 q 463 535 532 601 q 374 474 397 474 q 368 478 368 475 q 394 502 368 481 q 434 544 419 524 q 465 626 449 565 q 504 667 476 667 q 532 640 532 667 z "},"":{"ha":489,"x_min":8,"x_max":465,"o":"m 465 414 q 457 397 465 410 q 383 231 454 393 q 321 57 321 88 q 338 36 321 36 q 443 122 369 36 q 455 118 449 124 q 460 106 461 113 q 304 -1 385 -1 q 239 64 239 -1 q 261 146 239 86 q 79 1 147 1 q 8 89 8 1 q 129 322 8 211 q 369 429 246 429 q 460 421 432 429 q 465 414 465 418 m 347 368 q 328 393 347 393 q 174 260 271 393 q 78 61 78 126 q 100 36 78 36 q 246 174 136 36 q 322 289 296 238 q 347 368 347 340 m 435 481 q 429 476 435 478 q 342 539 406 476 q 272 644 272 606 q 299 669 272 669 q 338 631 326 669 q 369 547 354 568 q 411 504 383 526 q 435 481 435 485 z "},"":{"ha":489,"x_min":8,"x_max":497,"o":"m 465 414 q 457 397 465 410 q 383 231 454 393 q 321 57 321 88 q 338 36 321 36 q 443 122 369 36 q 455 118 449 124 q 460 106 461 113 q 304 -1 385 -1 q 239 64 239 -1 q 261 146 239 86 q 79 1 147 1 q 8 89 8 1 q 129 322 8 211 q 369 429 246 429 q 460 421 432 429 q 465 414 465 418 m 347 368 q 328 393 347 393 q 174 260 271 393 q 78 61 78 126 q 100 36 78 36 q 246 174 136 36 q 322 289 296 238 q 347 368 347 340 m 497 469 q 494 468 496 468 q 449 522 481 468 q 413 592 419 571 q 314 510 371 553 q 249 468 257 468 q 244 469 244 468 q 310 533 244 472 q 422 661 383 603 l 439 661 q 471 534 444 603 q 497 469 497 465 z "},"":{"ha":489,"x_min":8,"x_max":499,"o":"m 465 414 q 457 397 465 410 q 383 231 454 393 q 321 57 321 88 q 338 36 321 36 q 443 122 369 36 q 455 118 449 124 q 460 106 461 113 q 304 -1 385 -1 q 239 64 239 -1 q 261 146 239 86 q 79 1 147 1 q 8 89 8 1 q 129 322 8 211 q 369 429 246 429 q 460 421 432 429 q 465 414 465 418 m 347 368 q 328 393 347 393 q 174 260 271 393 q 78 61 78 126 q 100 36 78 36 q 246 174 136 36 q 322 289 296 238 q 347 368 347 340 m 499 546 q 453 494 499 494 q 424 528 424 494 q 465 575 424 575 q 499 546 499 575 m 357 546 q 311 494 357 494 q 281 528 281 494 q 322 575 281 575 q 357 546 357 575 z "},"":{"ha":489,"x_min":8,"x_max":532,"o":"m 465 414 q 457 397 465 410 q 383 231 454 393 q 321 57 321 88 q 338 36 321 36 q 443 122 369 36 q 455 118 449 124 q 460 106 461 113 q 304 -1 385 -1 q 239 64 239 -1 q 261 146 239 86 q 79 1 147 1 q 8 89 8 1 q 129 322 8 211 q 369 429 246 429 q 460 421 432 429 q 465 414 465 418 m 347 368 q 328 393 347 393 q 174 260 271 393 q 78 61 78 126 q 100 36 78 36 q 246 174 136 36 q 322 289 296 238 q 347 368 347 340 m 531 554 q 510 513 529 535 q 438 483 482 478 q 367 509 413 486 q 297 535 322 532 q 253 516 272 538 q 232 494 233 494 q 228 503 228 494 q 251 544 231 518 q 311 575 279 578 q 387 547 338 572 q 461 519 436 522 q 509 540 492 517 q 528 563 526 563 q 531 554 532 561 z "},"":{"ha":489,"x_min":8,"x_max":531,"o":"m 465 414 q 457 397 465 410 q 383 231 454 393 q 321 57 321 88 q 338 36 321 36 q 443 122 369 36 q 455 118 449 124 q 460 106 461 113 q 304 -1 385 -1 q 239 64 239 -1 q 261 146 239 86 q 79 1 147 1 q 8 89 8 1 q 129 322 8 211 q 369 429 246 429 q 460 421 432 429 q 465 414 465 418 m 347 368 q 328 393 347 393 q 174 260 271 393 q 78 61 78 126 q 100 36 78 36 q 246 174 136 36 q 322 289 296 238 q 347 368 347 340 m 531 618 q 491 530 531 568 q 401 492 451 492 q 342 515 365 492 q 318 574 318 538 q 357 662 318 624 q 446 700 396 700 q 506 677 482 700 q 531 618 531 654 m 492 610 q 438 663 492 663 q 380 638 406 663 q 354 582 354 613 q 408 529 354 529 q 466 553 440 529 q 492 610 492 578 z "},"":{"ha":364,"x_min":-40,"x_max":351,"o":"m 351 356 q 331 302 351 321 q 289 283 311 283 q 247 324 247 283 q 269 360 247 343 q 290 386 290 378 q 276 400 290 400 q 161 258 229 400 q 99 63 99 125 q 125 32 99 32 q 211 76 160 32 q 271 140 254 113 q 285 137 278 143 q 293 121 293 131 q 213 39 260 72 q 108 -1 157 -1 l 63 -67 l 81 -67 q 167 -114 167 -67 q 108 -192 167 -161 q 10 -215 61 -215 q -32 -212 -18 -215 q -39 -204 -40 -210 q -31 -197 -37 -197 q 114 -132 94 -206 q 115 -119 115 -125 q 71 -90 115 -90 l 38 -90 l 31 -76 l 86 3 q 21 114 21 18 q 109 322 21 214 q 282 431 197 431 q 351 356 351 431 z "},"":{"ha":367,"x_min":15,"x_max":422,"o":"m 357 368 q 253 206 357 278 q 100 143 169 150 q 83 75 83 99 q 135 26 83 26 q 229 64 176 26 q 293 125 271 94 q 315 113 311 135 q 250 47 292 79 q 122 0 185 0 q 15 106 15 0 q 108 322 15 213 q 283 431 201 431 q 357 368 357 431 m 300 376 q 281 403 300 403 q 197 325 251 403 q 111 174 147 256 q 237 246 174 176 q 300 376 300 315 m 422 640 q 360 535 422 601 q 279 474 301 474 q 268 474 274 474 q 260 478 260 475 q 285 502 260 481 q 326 544 311 524 q 357 626 340 565 q 396 667 368 667 q 422 640 422 667 z "},"":{"ha":367,"x_min":21,"x_max":363,"o":"m 363 368 q 258 206 363 278 q 106 143 175 150 q 89 75 89 99 q 140 26 89 26 q 235 64 182 26 q 299 125 276 94 q 321 113 317 135 q 256 47 297 79 q 128 0 190 0 q 21 106 21 0 q 114 322 21 213 q 289 431 207 431 q 363 368 363 431 m 306 376 q 286 403 306 403 q 203 325 257 403 q 117 174 153 256 q 242 246 179 176 q 306 376 306 315 m 354 481 q 347 476 354 478 q 260 539 325 476 q 190 644 190 606 q 218 669 190 669 q 257 631 244 669 q 288 547 274 568 q 331 504 303 526 q 354 481 354 485 z "},"":{"ha":367,"x_min":21,"x_max":417,"o":"m 363 368 q 258 206 363 278 q 106 143 175 150 q 89 75 89 99 q 140 26 89 26 q 235 64 182 26 q 299 125 276 94 q 321 113 317 135 q 256 47 297 79 q 128 0 190 0 q 21 106 21 0 q 114 322 21 213 q 289 431 207 431 q 363 368 363 431 m 306 376 q 286 403 306 403 q 203 325 257 403 q 117 174 153 256 q 242 246 179 176 q 306 376 306 315 m 417 469 q 414 468 415 468 q 367 522 400 468 q 332 592 338 571 q 233 510 290 553 q 168 468 176 468 q 164 469 164 468 q 228 533 164 472 q 342 661 303 603 l 358 661 q 390 534 364 603 q 417 469 415 465 z "},"":{"ha":367,"x_min":21,"x_max":424,"o":"m 363 368 q 258 206 363 278 q 106 143 175 150 q 89 75 89 99 q 140 26 89 26 q 235 64 182 26 q 299 125 276 94 q 321 113 317 135 q 256 47 297 79 q 128 0 190 0 q 21 106 21 0 q 114 322 21 213 q 289 431 207 431 q 363 368 363 431 m 306 376 q 286 403 306 403 q 203 325 257 403 q 117 174 153 256 q 242 246 179 176 q 306 376 306 315 m 424 546 q 376 494 424 494 q 347 528 347 494 q 389 575 347 575 q 424 546 424 575 m 281 546 q 235 494 281 494 q 206 528 206 494 q 247 575 206 575 q 281 546 281 575 z "},"":{"ha":292,"x_min":26,"x_max":321,"o":"m 267 408 q 176 225 221 317 q 104 51 104 76 q 119 33 104 33 q 182 68 140 33 q 235 119 217 96 q 246 116 239 121 q 251 104 253 111 q 197 46 232 76 q 96 -1 142 -1 q 26 65 26 -1 q 92 238 26 93 q 153 369 118 292 q 143 385 158 385 q 113 406 113 385 q 136 425 113 426 q 250 431 196 421 q 265 426 260 432 q 267 408 271 419 m 321 640 q 251 535 321 601 q 164 474 186 474 q 157 478 157 475 q 183 502 157 481 q 223 544 208 524 q 254 626 238 565 q 293 667 265 667 q 321 640 321 667 z "},"":{"ha":292,"x_min":26,"x_max":286,"o":"m 267 408 q 176 225 221 317 q 104 51 104 76 q 119 33 104 33 q 182 68 140 33 q 235 119 217 96 q 246 116 239 121 q 251 104 253 111 q 197 46 232 76 q 96 -1 142 -1 q 26 65 26 -1 q 92 238 26 93 q 153 369 118 292 q 143 385 158 385 q 113 406 113 385 q 136 425 113 426 q 250 431 196 421 q 265 426 260 432 q 267 408 271 419 m 286 481 q 281 476 286 478 q 192 539 257 476 q 122 644 122 606 q 150 669 122 669 q 189 631 178 669 q 220 547 206 568 q 263 504 235 526 q 286 481 286 485 z "},"":{"ha":292,"x_min":26,"x_max":343,"o":"m 267 408 q 176 225 221 317 q 104 51 104 76 q 119 33 104 33 q 182 68 140 33 q 235 119 217 96 q 246 116 239 121 q 251 104 253 111 q 197 46 232 76 q 96 -1 142 -1 q 26 65 26 -1 q 92 238 26 93 q 153 369 118 292 q 143 385 158 385 q 113 406 113 385 q 136 425 113 426 q 250 431 196 421 q 265 426 260 432 q 267 408 271 419 m 343 469 q 340 468 342 468 q 294 522 326 468 q 258 592 265 571 q 160 510 217 553 q 94 468 103 468 q 90 469 90 468 q 156 533 90 472 q 268 661 229 603 l 285 661 q 317 534 290 603 q 343 469 343 465 z "},"":{"ha":292,"x_min":26,"x_max":342,"o":"m 267 408 q 176 225 221 317 q 104 51 104 76 q 119 33 104 33 q 182 68 140 33 q 235 119 217 96 q 246 116 239 121 q 251 104 253 111 q 197 46 232 76 q 96 -1 142 -1 q 26 65 26 -1 q 92 238 26 93 q 153 369 118 292 q 143 385 158 385 q 113 406 113 385 q 136 425 113 426 q 250 431 196 421 q 265 426 260 432 q 267 408 271 419 m 342 546 q 294 494 342 494 q 265 528 265 494 q 307 575 265 575 q 342 546 342 575 m 199 546 q 153 494 199 494 q 124 528 124 494 q 165 575 124 575 q 199 546 199 575 z "},"":{"ha":482,"x_min":3,"x_max":479,"o":"m 453 413 q 433 378 453 417 q 356 210 404 319 q 294 51 294 72 q 319 31 294 31 q 421 119 369 31 q 447 111 447 128 q 396 44 428 76 q 304 -1 347 -1 q 225 61 225 -1 q 268 206 225 106 q 322 315 299 275 l 317 322 q 182 174 283 303 q 76 32 117 89 q 19 3 57 3 q 3 19 3 3 q 79 185 3 22 q 146 354 146 328 q 126 381 146 381 q 72 365 119 381 q 63 388 57 371 q 176 426 115 426 q 212 413 196 426 q 228 376 228 400 q 157 192 228 333 l 163 189 q 274 317 203 244 q 375 409 344 390 q 438 428 406 428 q 453 413 453 428 m 479 556 q 457 514 476 538 q 386 485 429 481 q 316 510 361 488 q 246 536 271 533 q 200 517 219 539 q 179 497 181 496 q 176 504 175 497 q 200 546 178 519 q 260 576 228 581 q 334 549 285 574 q 408 522 383 524 q 456 541 439 518 q 475 564 474 564 q 479 556 479 564 z "},"":{"ha":422,"x_min":28,"x_max":447,"o":"m 418 196 q 365 172 394 172 q 353 174 361 172 q 250 49 313 100 q 135 -1 188 -1 q 28 106 28 -1 q 119 327 28 221 q 325 433 211 433 q 344 425 344 433 q 325 411 344 411 q 168 275 247 411 q 96 65 96 150 q 138 21 96 21 q 224 72 175 21 q 308 193 274 124 q 264 286 264 226 q 288 368 264 339 q 333 393 308 393 q 393 314 393 393 q 364 197 393 258 q 375 196 374 196 q 410 211 392 196 q 418 196 424 208 m 347 321 q 328 368 347 368 q 303 290 303 368 q 321 218 303 240 q 347 321 347 279 m 447 640 q 378 535 447 601 q 290 474 314 474 q 285 478 285 475 q 310 502 285 481 q 351 544 336 524 q 382 626 365 565 q 421 667 393 667 q 447 640 447 667 z "},"":{"ha":422,"x_min":28,"x_max":424,"o":"m 418 196 q 365 172 394 172 q 353 174 361 172 q 250 49 313 100 q 135 -1 188 -1 q 28 106 28 -1 q 119 327 28 221 q 325 433 211 433 q 344 425 344 433 q 325 411 344 411 q 168 275 247 411 q 96 65 96 150 q 138 21 96 21 q 224 72 175 21 q 308 193 274 124 q 264 286 264 226 q 288 368 264 339 q 333 393 308 393 q 393 314 393 393 q 364 197 393 258 q 375 196 374 196 q 410 211 392 196 q 418 196 424 208 m 347 321 q 328 368 347 368 q 303 290 303 368 q 321 218 303 240 q 347 321 347 279 m 369 481 q 364 476 369 478 q 275 539 340 476 q 206 644 206 606 q 233 669 206 669 q 272 631 261 669 q 303 547 289 568 q 346 504 318 526 q 369 481 369 485 z "},"":{"ha":422,"x_min":28,"x_max":446,"o":"m 418 196 q 365 172 394 172 q 353 174 361 172 q 250 49 313 100 q 135 -1 188 -1 q 28 106 28 -1 q 119 327 28 221 q 325 433 211 433 q 344 425 344 433 q 325 411 344 411 q 168 275 247 411 q 96 65 96 150 q 138 21 96 21 q 224 72 175 21 q 308 193 274 124 q 264 286 264 226 q 288 368 264 339 q 333 393 308 393 q 393 314 393 393 q 364 197 393 258 q 375 196 374 196 q 410 211 392 196 q 418 196 424 208 m 347 321 q 328 368 347 368 q 303 290 303 368 q 321 218 303 240 q 347 321 347 279 m 446 469 q 443 468 444 468 q 397 522 429 468 q 361 592 368 571 q 263 510 319 553 q 197 468 206 468 q 193 469 193 468 q 258 533 193 472 q 371 661 332 603 l 388 661 q 419 534 393 603 q 446 469 446 465 z "},"":{"ha":422,"x_min":28,"x_max":449,"o":"m 418 196 q 365 172 394 172 q 353 174 361 172 q 250 49 313 100 q 135 -1 188 -1 q 28 106 28 -1 q 119 327 28 221 q 325 433 211 433 q 344 425 344 433 q 325 411 344 411 q 168 275 247 411 q 96 65 96 150 q 138 21 96 21 q 224 72 175 21 q 308 193 274 124 q 264 286 264 226 q 288 368 264 339 q 333 393 308 393 q 393 314 393 393 q 364 197 393 258 q 375 196 374 196 q 410 211 392 196 q 418 196 424 208 m 347 321 q 328 368 347 368 q 303 290 303 368 q 321 218 303 240 q 347 321 347 279 m 449 546 q 401 494 449 494 q 372 528 372 494 q 414 575 372 575 q 449 546 449 575 m 306 546 q 260 494 306 494 q 231 528 231 494 q 272 575 231 575 q 306 546 306 575 z "},"":{"ha":422,"x_min":28,"x_max":490,"o":"m 418 196 q 365 172 394 172 q 353 174 361 172 q 250 49 313 100 q 135 -1 188 -1 q 28 106 28 -1 q 119 327 28 221 q 325 433 211 433 q 344 425 344 433 q 325 411 344 411 q 168 275 247 411 q 96 65 96 150 q 138 21 96 21 q 224 72 175 21 q 308 193 274 124 q 264 286 264 226 q 288 368 264 339 q 333 393 308 393 q 393 314 393 393 q 364 197 393 258 q 375 196 374 196 q 410 211 392 196 q 418 196 424 208 m 347 321 q 328 368 347 368 q 303 290 303 368 q 321 218 303 240 q 347 321 347 279 m 489 539 q 468 497 488 519 q 396 468 440 463 q 326 494 371 471 q 256 519 281 517 q 211 501 231 522 q 190 479 192 479 q 186 488 186 479 q 210 529 189 503 q 269 560 238 563 q 345 532 296 557 q 419 504 394 507 q 467 524 450 501 q 486 547 485 547 q 489 539 490 546 z "},"":{"ha":500,"x_min":22,"x_max":485,"o":"m 471 411 q 317 53 317 119 q 331 31 317 31 q 390 72 351 31 q 439 139 428 113 q 467 133 460 147 q 410 56 451 99 q 304 -1 356 -1 q 267 15 283 -1 q 246 64 246 33 q 269 158 246 94 q 85 0 147 0 q 22 61 22 0 q 79 218 22 96 q 150 369 114 294 q 139 385 156 385 q 108 406 108 385 q 133 425 108 426 q 246 431 192 421 q 263 426 257 433 q 263 410 268 421 q 179 242 221 326 q 101 58 101 82 q 115 46 101 46 q 319 275 150 46 q 383 404 350 338 q 408 428 394 428 q 431 429 414 428 q 454 431 449 431 q 471 411 481 431 m 485 640 q 415 535 485 601 q 326 474 350 474 q 321 478 321 475 q 347 502 321 481 q 387 544 372 524 q 418 626 401 565 q 457 667 429 667 q 485 640 485 667 z "},"":{"ha":500,"x_min":22,"x_max":481,"o":"m 471 411 q 317 53 317 119 q 331 31 317 31 q 390 72 351 31 q 439 139 428 113 q 467 133 460 147 q 410 56 451 99 q 304 -1 356 -1 q 267 15 283 -1 q 246 64 246 33 q 269 158 246 94 q 85 0 147 0 q 22 61 22 0 q 79 218 22 96 q 150 369 114 294 q 139 385 156 385 q 108 406 108 385 q 133 425 108 426 q 246 431 192 421 q 263 426 257 433 q 263 410 268 421 q 179 242 221 326 q 101 58 101 82 q 115 46 101 46 q 319 275 150 46 q 383 404 350 338 q 408 428 394 428 q 431 429 414 428 q 454 431 449 431 q 471 411 481 431 m 378 481 q 372 476 378 478 q 283 539 349 476 q 214 644 214 606 q 242 669 214 669 q 281 631 269 669 q 312 547 297 568 q 354 504 326 526 q 378 481 378 485 z "},"":{"ha":500,"x_min":22,"x_max":481,"o":"m 471 411 q 317 53 317 119 q 331 31 317 31 q 390 72 351 31 q 439 139 428 113 q 467 133 460 147 q 410 56 451 99 q 304 -1 356 -1 q 267 15 283 -1 q 246 64 246 33 q 269 158 246 94 q 85 0 147 0 q 22 61 22 0 q 79 218 22 96 q 150 369 114 294 q 139 385 156 385 q 108 406 108 385 q 133 425 108 426 q 246 431 192 421 q 263 426 257 433 q 263 410 268 421 q 179 242 221 326 q 101 58 101 82 q 115 46 101 46 q 319 275 150 46 q 383 404 350 338 q 408 428 394 428 q 431 429 414 428 q 454 431 449 431 q 471 411 481 431 m 453 469 q 450 468 451 468 q 404 522 436 468 q 368 592 375 571 q 269 510 326 553 q 204 468 213 468 q 200 469 200 468 q 265 533 200 472 q 378 661 339 603 l 394 661 q 426 534 400 603 q 453 469 453 465 z "},"":{"ha":500,"x_min":22,"x_max":481,"o":"m 471 411 q 317 53 317 119 q 331 31 317 31 q 390 72 351 31 q 439 139 428 113 q 467 133 460 147 q 410 56 451 99 q 304 -1 356 -1 q 267 15 283 -1 q 246 64 246 33 q 269 158 246 94 q 85 0 147 0 q 22 61 22 0 q 79 218 22 96 q 150 369 114 294 q 139 385 156 385 q 108 406 108 385 q 133 425 108 426 q 246 431 192 421 q 263 426 257 433 q 263 410 268 421 q 179 242 221 326 q 101 58 101 82 q 115 46 101 46 q 319 275 150 46 q 383 404 350 338 q 408 428 394 428 q 431 429 414 428 q 454 431 449 431 q 471 411 481 431 m 449 546 q 401 494 449 494 q 372 528 372 494 q 414 575 372 575 q 449 546 449 575 m 306 546 q 260 494 306 494 q 231 528 231 494 q 272 575 231 575 q 306 546 306 575 z "},"":{"ha":797,"x_min":199,"x_max":753,"o":"m 753 740 q 719 704 753 704 q 617 721 683 704 q 513 740 546 739 q 471 568 493 692 q 397 381 457 494 q 225 -4 299 194 l 199 -4 q 331 401 286 211 q 421 594 349 474 q 490 740 447 638 q 401 722 463 739 q 322 706 340 706 q 290 722 303 706 q 276 758 276 739 q 318 793 276 793 q 408 776 349 793 q 499 758 467 758 q 531 908 518 824 q 546 992 542 978 q 603 1043 563 1043 q 647 1000 647 1043 q 576 863 647 963 q 519 760 540 813 l 533 760 q 619 777 564 760 q 704 794 675 794 q 739 778 725 794 q 753 740 753 761 z "},"":{"ha":729,"x_min":132,"x_max":676,"o":"m 676 681 q 617 607 676 607 q 563 660 563 607 q 588 701 563 682 q 614 728 614 721 q 597 757 614 750 l 269 83 q 285 82 276 82 q 464 158 374 82 q 567 275 526 213 q 590 253 589 275 q 476 133 546 190 q 281 47 372 47 q 254 50 267 47 l 214 -31 l 175 -31 l 219 60 q 132 239 132 96 q 278 588 132 406 q 568 781 425 771 l 611 868 l 650 868 l 607 778 q 676 681 676 761 m 557 757 q 326 524 446 732 q 211 186 211 324 q 239 100 211 126 l 557 757 z "},"":{"ha":767,"x_min":8,"x_max":810,"o":"m 810 757 q 783 715 810 736 q 738 694 757 694 q 715 718 715 694 q 717 733 715 722 q 718 749 718 743 q 647 804 718 804 q 524 761 585 804 q 440 661 464 718 q 403 444 417 604 l 540 444 l 526 400 l 399 400 q 261 119 378 249 q 407 85 329 85 q 639 243 565 85 q 650 246 646 246 q 663 229 663 246 q 661 218 663 221 q 622 156 653 197 q 360 0 508 0 q 215 69 271 0 q 69 3 126 3 q 27 17 46 3 q 8 56 8 32 q 49 131 8 99 q 132 164 89 164 q 224 135 175 164 q 285 263 268 206 q 304 400 299 311 l 189 400 l 203 444 l 307 444 q 338 588 314 529 q 474 762 379 690 q 675 833 568 833 q 757 813 713 833 q 810 757 810 789 m 188 92 q 117 129 156 129 q 70 110 89 129 q 51 64 51 92 q 82 38 51 38 q 188 92 135 38 z "},"":{"ha":561,"x_min":56,"x_max":633,"o":"m 633 769 q 608 710 633 736 q 549 683 582 683 q 518 710 518 683 q 551 753 518 729 q 583 794 583 778 q 524 821 583 821 q 436 788 474 821 q 399 706 399 756 q 471 581 399 664 q 543 442 543 499 q 477 315 543 365 q 332 264 411 264 q 381 158 381 210 q 304 32 381 83 q 157 -12 235 -12 q 56 56 56 -12 q 78 118 56 88 q 132 149 101 149 q 167 124 167 149 q 137 70 167 99 q 107 38 107 42 q 169 8 107 8 q 261 36 222 8 q 306 119 306 68 q 235 249 306 158 q 164 394 164 339 q 233 517 164 465 q 371 563 297 563 q 322 668 322 628 q 394 794 322 740 q 536 843 461 843 q 601 826 572 843 q 633 769 633 806 m 469 394 q 389 542 469 465 q 296 522 339 542 q 242 453 242 497 q 269 365 242 422 q 321 288 296 307 q 418 314 374 288 q 469 394 469 344 z "},"":{"ha":607,"x_min":139,"x_max":471,"o":"m 471 410 q 422 292 471 340 q 304 243 374 243 q 188 292 236 243 q 139 410 139 340 q 188 526 139 478 q 304 575 236 575 q 422 526 374 575 q 471 410 471 478 z "},"":{"ha":817,"x_min":68,"x_max":799,"o":"m 799 1004 l 779 956 l 692 956 l 306 0 l 251 0 l 638 956 l 511 956 l 125 0 l 68 0 l 283 532 q 100 667 100 533 q 225 908 100 807 q 483 1004 343 1004 l 799 1004 z "},"":{"ha":415,"x_min":-276,"x_max":535,"o":"m 535 736 q 507 607 535 681 q 440 493 479 533 q 371 382 371 422 q 383 319 371 360 q 394 256 394 278 q 332 81 394 157 q 168 0 265 0 q 82 79 82 0 q 97 135 82 111 q 144 164 115 164 q 192 115 192 164 q 174 72 192 90 q 131 54 156 54 q 119 51 126 54 q 160 21 121 21 q 274 113 228 21 q 310 267 310 189 q 303 319 310 285 q 296 371 296 353 q 339 456 296 411 q 414 522 376 488 q 475 616 451 557 q 499 724 499 675 q 471 768 499 768 q 357 651 426 768 q 213 379 285 515 q -17 -26 56 85 q -217 -225 -144 -225 q -259 -207 -242 -225 q -276 -164 -276 -189 q -262 -157 -271 -157 q -246 -168 -251 -157 q -217 -196 -244 -196 q -18 63 -151 -196 q 225 544 103 304 q 468 804 371 804 q 535 736 535 804 z "},"":{"ha":875,"x_min":96,"x_max":832,"o":"m 832 700 q 724 440 832 549 q 464 332 617 332 q 204 440 313 332 q 96 700 96 549 q 204 960 96 853 q 464 1068 313 1068 q 724 960 615 1068 q 832 700 832 851 m 792 700 q 696 932 792 836 q 464 1028 600 1028 q 233 932 329 1028 q 136 700 136 836 q 233 469 136 565 q 464 372 329 372 q 696 469 600 372 q 792 700 792 565 m 692 485 q 679 476 692 476 q 574 510 608 476 q 536 585 553 531 q 494 671 517 649 q 403 699 467 699 l 403 546 q 436 506 403 508 q 461 493 461 504 q 453 479 461 479 q 411 481 439 479 q 369 483 383 483 q 328 481 356 483 q 288 479 300 479 q 278 493 278 483 q 288 506 278 501 q 322 513 313 506 q 332 546 332 519 l 332 876 q 301 918 332 918 q 292 918 306 918 q 278 931 278 918 q 288 943 278 940 q 356 942 308 943 q 424 942 401 942 q 453 942 433 942 q 482 943 472 943 q 570 910 533 943 q 607 824 607 876 q 514 711 607 749 q 579 665 560 693 q 603 607 592 649 q 626 543 614 565 q 685 493 646 511 q 692 485 692 489 m 533 824 q 454 911 533 911 q 403 876 403 911 l 403 722 q 533 824 533 722 z "},"":{"ha":957,"x_min":65,"x_max":907,"o":"m 907 415 q 784 118 907 242 q 488 -6 661 -6 q 189 118 313 -6 q 65 415 65 242 q 189 713 65 590 q 488 836 313 836 q 784 713 661 836 q 907 415 907 590 m 869 415 q 758 685 869 574 q 488 797 646 797 q 217 685 329 797 q 104 415 104 574 q 217 145 104 257 q 488 33 329 33 q 758 145 646 33 q 869 415 869 257 m 686 183 q 681 174 689 174 q 642 169 667 174 q 588 153 638 168 q 504 143 554 143 q 306 222 389 143 q 222 410 222 301 q 308 597 222 517 q 511 676 394 676 q 576 667 538 676 q 639 650 629 653 q 675 642 676 644 q 675 639 675 640 l 674 636 q 665 542 664 601 q 657 538 664 538 l 656 538 q 646 546 646 539 l 646 556 q 601 629 653 601 q 510 651 558 653 q 356 578 418 647 q 294 411 294 510 q 357 240 294 311 q 510 169 419 169 q 633 207 589 169 q 658 275 664 232 q 668 283 658 282 l 669 283 q 678 279 676 285 q 686 183 676 215 z "},"":{"ha":860,"x_min":72,"x_max":861,"o":"m 861 664 l 693 664 l 693 697 l 722 697 q 742 722 742 697 l 742 900 l 640 664 l 615 664 l 508 900 l 508 747 q 560 697 508 697 l 560 664 l 428 664 l 428 697 q 475 747 475 697 l 475 938 q 454 963 475 963 l 429 963 l 429 996 l 536 996 l 644 756 l 749 996 l 861 996 l 861 963 l 829 963 q 810 938 810 963 l 810 722 q 818 699 810 703 q 832 697 822 697 l 861 697 l 861 664 m 399 899 l 369 899 q 354 946 358 939 q 313 963 343 963 l 269 963 l 269 722 q 278 699 269 703 q 292 697 282 697 l 324 697 l 324 664 l 150 664 l 150 697 l 182 697 q 203 722 203 697 l 203 963 l 158 963 q 117 944 129 963 q 101 899 113 939 l 72 899 l 75 996 l 396 996 l 399 899 z "},"":{"ha":304,"x_min":74,"x_max":238,"o":"m 238 1076 q 170 972 238 1036 q 79 908 103 908 q 74 913 74 910 q 97 935 74 917 q 140 979 125 958 q 171 1061 154 1000 q 210 1101 182 1101 q 238 1076 238 1101 z "},"":{"ha":338,"x_min":74,"x_max":292,"o":"m 292 1067 q 246 1015 292 1015 q 217 1049 217 1015 q 258 1096 217 1096 q 292 1067 292 1096 m 150 1067 q 104 1015 150 1015 q 74 1049 74 1015 q 115 1096 74 1096 q 150 1067 150 1096 z "},"":{"ha":2407,"x_min":28,"x_max":2578,"o":"m 2578 965 q 2410 797 2578 863 q 2040 729 2261 739 q 2029 675 2029 700 q 2049 625 2029 643 q 2217 638 2135 638 q 2357 626 2303 638 q 2411 597 2411 614 q 2358 565 2411 579 q 2239 551 2306 551 q 2047 593 2129 551 q 1718 423 1851 547 q 1585 169 1585 299 q 1782 33 1585 33 q 2410 286 2151 33 q 2424 267 2429 286 q 2136 67 2332 143 q 1788 -3 1958 -3 q 1547 64 1629 -3 q 1475 229 1475 125 q 1493 319 1475 276 q 1364 325 1446 326 q 1256 325 1264 324 q 456 -8 840 -8 q 163 65 281 -8 q 28 299 28 149 q 219 594 28 474 q 614 706 396 706 q 978 614 844 706 q 982 606 982 610 q 957 589 982 582 q 661 668 858 668 q 276 547 453 668 q 90 254 90 421 q 197 82 90 149 q 440 21 297 21 q 1204 326 821 21 l 1071 329 l 493 332 q 447 332 454 332 q 433 346 433 335 q 472 380 433 358 q 540 401 510 401 q 806 393 563 401 q 1183 381 1083 383 l 1268 379 q 1329 435 1304 410 q 1924 1018 1618 718 q 1981 1046 1946 1038 q 2010 1038 2010 1053 q 2006 1025 2010 1033 q 1740 560 1921 876 l 1722 529 q 2010 618 1849 590 q 1956 746 1956 663 q 2114 950 1956 854 q 2433 1046 2268 1046 q 2578 965 2578 1046 m 2524 976 q 2454 1019 2524 1019 q 2219 936 2344 1019 q 2051 757 2103 856 q 2369 836 2214 765 q 2524 976 2524 907 m 1881 932 l 1869 933 q 1688 744 1860 922 q 1433 485 1504 556 q 1318 378 1379 431 l 1521 372 q 1656 585 1563 440 l 1881 932 z "},"":{"ha":1208,"x_min":53,"x_max":1360,"o":"m 1360 1032 l 1246 933 q 1318 779 1318 875 q 1165 386 1318 575 q 810 103 1028 213 q 396 -6 593 -6 q 325 0 360 -6 q 381 -90 342 -47 q 372 -105 382 -99 q 353 -107 363 -111 q 288 7 306 -62 q 204 39 242 18 l 53 -92 l 53 -40 l 171 61 q 75 281 75 138 q 232 665 75 479 q 594 940 372 832 q 1003 1044 811 1044 q 1200 1015 1129 1044 q 1200 1001 1204 1008 q 1186 993 1194 994 q 1003 1015 1125 1015 q 626 892 832 1015 q 292 593 426 771 q 147 226 147 401 q 200 86 147 142 l 272 149 q 390 538 276 340 q 679 860 504 735 q 1058 992 865 992 q 1213 957 1149 992 l 1360 1083 l 1360 1032 m 1186 933 q 1058 963 1133 963 q 722 832 894 963 q 453 529 568 715 q 314 185 340 349 l 1186 933 m 1265 797 q 1218 910 1265 867 l 308 128 q 308 110 308 119 q 317 29 308 67 q 361 25 340 25 q 750 141 535 25 q 1108 429 965 257 q 1265 797 1265 618 m 281 38 q 274 99 275 65 l 231 61 q 281 38 253 46 z "},"":{"ha":444,"x_min":107,"x_max":474,"o":"m 472 825 q 467 813 472 822 q 407 679 464 808 q 357 540 357 565 q 369 522 357 522 q 456 593 396 522 q 468 579 463 590 q 343 493 408 493 q 292 546 292 493 q 308 611 292 563 q 164 496 218 496 q 107 565 107 496 q 202 751 107 664 q 396 838 297 838 q 468 831 446 838 q 472 825 474 829 m 378 789 q 363 810 378 810 q 240 703 317 810 q 163 543 163 596 q 181 522 163 522 q 297 633 210 522 q 358 725 338 683 q 378 789 378 767 z "},"":{"ha":396,"x_min":114,"x_max":431,"o":"m 428 647 q 383 628 408 628 q 375 629 381 628 q 292 531 342 571 q 200 490 243 490 q 114 575 114 490 q 188 753 114 668 q 353 838 261 838 q 368 831 368 838 q 351 819 368 819 q 226 711 290 819 q 169 543 169 611 q 203 507 169 507 q 272 549 232 507 q 339 646 311 590 q 303 719 303 672 q 322 786 303 761 q 358 806 339 806 q 407 742 407 806 q 383 649 407 697 q 393 647 392 647 q 421 660 406 647 q 428 647 431 658 m 369 749 q 354 786 369 786 q 335 724 335 786 q 349 665 335 683 q 369 749 369 714 z "},"":{"ha":632,"x_min":13,"x_max":613,"o":"m 613 368 q 508 206 613 278 q 356 143 425 150 q 339 75 339 99 q 390 26 339 26 q 485 64 432 26 q 549 125 526 94 q 571 113 567 135 q 504 47 547 79 q 378 0 440 0 q 271 106 271 0 q 276 157 271 131 q 240 115 258 138 q 83 1 146 1 q 13 89 13 1 q 133 322 13 211 q 374 429 250 429 q 464 421 436 429 q 469 414 469 418 q 468 410 469 413 q 539 431 507 431 q 613 368 613 431 m 556 376 q 536 403 556 403 q 453 325 506 403 q 367 174 403 256 q 492 246 429 176 q 556 376 556 315 m 351 368 q 332 393 351 393 q 178 260 275 393 q 82 61 82 126 q 104 36 82 36 q 250 174 140 36 q 326 289 300 238 q 351 368 351 340 z "},"":{"ha":419,"x_min":14,"x_max":413,"o":"m 407 196 q 354 172 383 172 q 342 174 350 172 q 239 49 301 100 q 124 -1 176 -1 q 63 11 88 -1 l 14 -49 l 14 -8 l 43 28 q 17 106 17 56 q 108 327 17 221 q 314 433 200 433 q 333 425 333 433 q 314 411 333 411 q 161 281 239 411 q 85 79 92 165 l 253 286 q 278 369 253 339 q 322 393 297 393 q 338 392 331 393 l 401 469 l 401 429 l 361 379 q 382 314 382 358 q 353 197 382 258 q 364 196 363 196 q 399 211 381 196 q 407 196 413 208 m 336 321 q 333 346 336 336 l 292 294 l 292 290 q 310 218 292 240 q 336 321 336 279 m 297 193 q 257 251 267 215 l 88 43 q 126 21 96 21 q 213 72 164 21 q 297 193 263 124 z "},"":{"ha":563,"x_min":67,"x_max":635,"o":"m 635 832 q 608 763 635 797 q 547 729 581 729 q 510 774 510 729 q 537 842 510 807 q 597 876 564 876 q 635 832 635 876 m 549 242 q 438 56 549 138 q 222 -18 333 -18 q 110 17 153 -18 q 67 121 67 53 q 121 272 67 197 q 306 464 178 353 q 482 664 422 565 q 497 668 489 668 q 521 653 513 668 q 406 493 501 590 q 246 324 269 356 q 164 121 164 219 q 192 47 164 74 q 269 19 221 19 q 422 86 339 19 q 513 233 513 158 q 447 306 513 306 q 356 267 396 306 q 346 281 346 269 q 381 317 346 299 q 456 335 417 335 q 521 308 493 335 q 549 242 549 282 z "},"":{"ha":428,"x_min":63,"x_max":556,"o":"m 556 828 q 528 760 556 794 q 468 725 501 725 q 431 769 431 725 q 458 838 431 804 q 518 872 485 872 q 556 828 556 872 m 444 660 l 154 -18 l 63 -18 l 421 664 l 444 660 z "},"":{"ha":464,"x_min":1,"x_max":390,"o":"m 389 507 l 376 450 l 372 443 l 257 364 l 338 222 l 294 194 l 190 372 q 196 386 186 381 l 376 511 q 386 515 383 515 q 389 507 390 514 m 210 507 l 199 450 l 193 443 l 78 364 l 158 222 l 110 194 l 6 372 q 11 386 1 381 l 197 511 q 208 514 204 515 q 210 507 211 514 z "},"":{"ha":475,"x_min":113,"x_max":501,"o":"m 497 317 q 493 301 501 308 l 306 178 q 296 174 299 174 q 293 182 292 175 l 306 238 l 310 246 l 425 324 l 344 467 l 394 494 l 497 317 m 313 317 q 308 301 317 308 l 126 178 q 117 174 119 174 q 115 182 113 175 l 126 238 l 131 246 l 247 324 l 165 467 l 210 494 l 313 317 z "},"":{"ha":754,"x_min":63,"x_max":665,"o":"m 665 85 q 638 16 665 50 q 578 -18 611 -18 q 540 26 540 -18 q 567 94 540 60 q 628 129 594 129 q 665 85 665 129 m 426 85 q 399 16 426 50 q 339 -18 372 -18 q 301 26 301 -18 q 328 94 301 60 q 389 129 356 129 q 426 85 426 129 m 188 85 q 160 16 188 50 q 100 -18 133 -18 q 63 26 63 -18 q 90 94 63 60 q 150 129 117 129 q 188 85 188 129 z "},"":{"ha":307,"x_min":0,"x_max":0,"o":""},"":{"ha":1851,"x_min":63,"x_max":2082,"o":"m 2040 1025 q 1775 560 1957 876 q 1669 369 1722 469 q 1781 367 1750 367 q 1875 375 1814 367 q 1879 347 1893 367 q 1647 326 1836 326 q 1624 282 1635 304 q 1715 142 1715 231 q 1669 35 1715 75 q 1565 -4 1622 -4 q 1481 32 1515 -4 q 1447 125 1447 68 q 1511 292 1447 174 q 1290 325 1422 318 q 490 -8 875 -8 q 197 65 315 -8 q 63 299 63 149 q 254 594 63 474 q 649 706 431 706 q 1013 614 879 706 q 1017 606 1017 610 q 992 589 1017 582 q 696 668 893 668 q 311 547 488 668 q 125 254 125 421 q 232 82 125 149 q 475 21 332 21 q 1239 326 856 21 l 1106 329 l 528 332 q 482 332 489 332 q 468 346 468 335 q 506 380 468 358 q 575 401 544 401 q 840 393 596 401 q 1218 381 1114 383 l 1303 379 q 1364 435 1339 410 q 1958 1018 1653 718 q 2015 1046 1981 1038 q 2044 1038 2044 1053 q 2040 1025 2044 1033 m 1915 932 l 1904 933 q 1722 744 1894 922 q 1468 485 1539 556 q 1353 378 1414 431 l 1556 372 q 1690 585 1597 440 l 1915 932 m 1654 165 q 1607 249 1654 213 q 1528 58 1528 92 q 1563 18 1528 18 q 1624 64 1594 18 q 1654 165 1654 110 m 2082 1079 q 2076 1075 2082 1076 q 1988 1138 2053 1075 q 1918 1243 1918 1203 q 1946 1268 1918 1268 q 1985 1228 1974 1268 q 2016 1146 2001 1167 q 2058 1101 2031 1125 q 2082 1079 2082 1083 z "},"":{"ha":1851,"x_min":63,"x_max":2188,"o":"m 2040 1025 q 1775 560 1957 876 q 1669 369 1722 469 q 1781 367 1750 367 q 1875 375 1814 367 q 1879 347 1893 367 q 1647 326 1836 326 q 1624 282 1635 304 q 1715 142 1715 231 q 1669 35 1715 75 q 1565 -4 1622 -4 q 1481 32 1515 -4 q 1447 125 1447 68 q 1511 292 1447 174 q 1290 325 1422 318 q 490 -8 875 -8 q 197 65 315 -8 q 63 299 63 149 q 254 594 63 474 q 649 706 431 706 q 1013 614 879 706 q 1017 606 1017 610 q 992 589 1017 582 q 696 668 893 668 q 311 547 488 668 q 125 254 125 421 q 232 82 125 149 q 475 21 332 21 q 1239 326 856 21 l 1106 329 l 528 332 q 482 332 489 332 q 468 346 468 335 q 506 380 468 358 q 575 401 544 401 q 840 393 596 401 q 1218 381 1114 383 l 1303 379 q 1364 435 1339 410 q 1958 1018 1653 718 q 2015 1046 1981 1038 q 2044 1038 2044 1053 q 2040 1025 2044 1033 m 1915 932 l 1904 933 q 1722 744 1894 922 q 1468 485 1539 556 q 1353 378 1414 431 l 1556 372 q 1690 585 1597 440 l 1915 932 m 1654 165 q 1607 249 1654 213 q 1528 58 1528 92 q 1563 18 1528 18 q 1624 64 1594 18 q 1654 165 1654 110 m 2188 1181 q 2165 1139 2185 1163 q 2094 1110 2138 1106 q 2024 1135 2069 1113 q 1954 1161 1979 1158 q 1908 1142 1928 1164 q 1888 1122 1889 1121 q 1885 1129 1883 1122 q 1908 1171 1886 1144 q 1968 1201 1936 1206 q 2042 1174 1993 1199 q 2117 1147 2092 1149 q 2165 1166 2147 1143 q 2183 1189 2182 1189 q 2188 1181 2188 1189 z "},"":{"ha":1208,"x_min":79,"x_max":1322,"o":"m 1322 779 q 1169 386 1322 575 q 815 103 1032 213 q 400 -6 597 -6 q 329 0 364 -6 q 385 -90 346 -47 q 376 -105 386 -99 q 357 -107 367 -111 q 292 7 310 -62 q 79 281 79 57 q 236 665 79 479 q 599 940 376 832 q 1007 1044 815 1044 q 1204 1015 1133 1044 q 1204 1001 1208 1008 q 1190 993 1199 994 q 1007 1015 1129 1015 q 631 892 836 1015 q 296 593 431 771 q 151 226 151 401 q 285 38 151 81 q 276 136 276 82 q 390 531 276 331 q 679 857 503 731 q 1063 992 868 992 q 1258 926 1188 992 q 1322 779 1322 868 m 1269 797 q 1211 919 1269 876 q 1063 963 1153 963 q 708 817 892 963 q 427 481 542 683 q 313 110 313 278 q 321 29 313 67 q 365 25 344 25 q 754 141 539 25 q 1113 429 969 257 q 1269 797 1269 618 m 1288 1181 q 1265 1139 1285 1163 q 1194 1110 1238 1106 q 1124 1135 1169 1113 q 1054 1161 1079 1158 q 1008 1142 1028 1164 q 988 1122 989 1121 q 985 1129 983 1122 q 1008 1171 986 1144 q 1068 1201 1036 1206 q 1142 1174 1093 1199 q 1217 1147 1192 1149 q 1265 1166 1247 1143 q 1283 1189 1282 1189 q 1288 1181 1288 1189 z "},"":{"ha":1642,"x_min":36,"x_max":1813,"o":"m 1813 965 q 1644 797 1813 863 q 1275 729 1496 739 q 1264 675 1264 700 q 1283 625 1264 643 q 1451 638 1371 638 q 1592 626 1538 638 q 1647 597 1647 614 q 1594 565 1647 579 q 1475 551 1540 551 q 1282 593 1364 551 q 953 423 1086 547 q 819 169 819 299 q 1018 33 819 33 q 1646 286 1388 33 q 1658 267 1664 286 q 1371 67 1568 143 q 1022 -3 1193 -3 q 756 93 832 -3 q 357 -6 563 -6 q 286 0 321 -6 q 342 -90 303 -47 q 333 -105 343 -99 q 314 -107 324 -111 q 249 7 267 -62 q 36 281 36 57 q 193 665 36 479 q 556 940 333 832 q 964 1044 772 1044 q 1161 1015 1090 1044 q 1161 1001 1165 1008 q 1147 993 1156 994 q 964 1015 1086 1015 q 588 892 793 1015 q 253 593 388 771 q 108 226 108 401 q 242 38 108 81 q 233 136 233 82 q 347 531 233 331 q 636 857 460 731 q 1019 992 825 992 q 1253 869 1203 992 q 1437 996 1321 946 q 1669 1046 1553 1046 q 1813 965 1813 1046 m 1758 976 q 1690 1019 1758 1019 q 1456 936 1579 1019 q 1288 757 1338 856 q 1604 836 1450 765 q 1758 976 1758 907 m 1244 618 q 1190 735 1188 665 q 1224 832 1192 785 q 1153 931 1211 894 q 1019 963 1100 963 q 665 817 849 963 q 384 481 499 683 q 269 110 269 278 q 278 29 269 67 q 322 25 301 25 q 725 144 525 25 q 710 229 710 183 q 875 482 710 372 q 1244 618 1022 579 z "},"":{"ha":604,"x_min":17,"x_max":592,"o":"m 592 368 q 486 206 592 278 q 333 143 403 150 q 318 75 318 99 q 368 26 318 26 q 463 64 410 26 q 526 125 506 94 q 550 113 544 135 q 483 47 525 79 q 357 0 418 0 q 256 63 274 0 q 124 -1 185 -1 q 17 106 17 -1 q 108 327 17 221 q 314 433 200 433 q 333 425 333 433 q 314 411 333 411 q 157 275 236 411 q 85 65 85 150 q 126 21 85 21 q 250 117 179 21 q 275 215 251 163 q 253 286 253 244 q 276 368 253 339 q 322 393 297 393 q 375 356 360 393 q 518 431 453 431 q 592 368 592 431 m 533 376 q 514 403 533 403 q 431 325 485 403 q 346 174 381 256 q 471 246 408 176 q 533 376 533 315 m 336 321 q 317 368 336 368 q 292 290 292 368 q 294 254 292 269 q 336 314 313 285 q 336 321 336 318 z "},"":{"ha":615,"x_min":61,"x_max":554,"o":"m 547 264 l 528 226 q 514 213 521 213 l 83 213 q 69 226 61 213 l 89 264 q 103 278 96 278 l 533 278 q 547 264 554 278 z "},"":{"ha":1106,"x_min":61,"x_max":1044,"o":"m 1038 264 l 1018 226 q 1004 213 1011 213 l 83 213 q 69 226 61 213 l 89 264 q 103 278 96 278 l 1024 278 q 1038 264 1044 278 z "},"":{"ha":525,"x_min":244,"x_max":606,"o":"m 606 1024 q 522 965 558 1003 q 475 878 482 922 q 522 826 522 871 q 498 756 522 788 q 440 724 474 724 q 403 776 403 724 q 458 939 403 860 q 592 1042 514 1018 l 606 1024 m 447 1024 q 365 965 400 1003 q 317 878 324 922 q 365 826 365 871 q 340 756 365 788 q 283 724 315 724 q 244 776 244 724 q 300 939 244 860 q 433 1042 356 1018 l 447 1024 z "},"":{"ha":374,"x_min":292,"x_max":651,"o":"m 651 989 q 596 826 651 906 q 463 724 540 747 l 449 742 q 532 800 496 763 q 579 888 572 843 q 532 939 532 894 q 556 1009 532 976 q 613 1042 581 1042 q 651 989 651 1042 m 494 989 q 439 826 494 906 q 304 724 383 747 l 292 742 q 374 800 338 763 q 421 888 414 843 q 374 939 374 894 q 398 1009 374 976 q 456 1042 422 1042 q 494 989 494 1042 z "},"":{"ha":372,"x_min":244,"x_max":447,"o":"m 447 1024 q 365 965 400 1003 q 317 878 324 922 q 365 826 365 871 q 340 756 365 788 q 283 724 315 724 q 244 776 244 724 q 300 939 244 860 q 433 1042 356 1018 l 447 1024 z "},"":{"ha":374,"x_min":292,"x_max":494,"o":"m 494 989 q 439 826 494 906 q 304 724 383 747 l 292 742 q 374 800 338 763 q 421 888 414 843 q 374 939 374 894 q 398 1009 374 976 q 456 1042 422 1042 q 494 989 494 1042 z "},"":{"ha":444,"x_min":-79,"x_max":433,"o":"m 431 404 q 313 85 424 389 q 365 132 351 113 q 389 114 382 132 q 296 40 365 86 l 286 13 q 160 -197 244 -99 q -21 -308 63 -308 q -79 -250 -79 -308 q -40 -167 -79 -217 q 57 -78 -1 -118 q 201 14 96 -51 l 244 121 q 168 46 215 83 q 78 -1 110 -1 q 31 18 50 -1 q 13 65 13 38 q 79 224 13 106 q 151 371 151 351 q 133 393 151 393 q 78 371 118 393 q 58 390 63 375 q 161 429 89 429 q 226 372 226 429 q 151 201 226 342 q 75 46 75 61 q 89 31 75 31 q 210 121 131 31 q 300 253 278 201 l 357 392 q 382 421 369 418 q 410 425 401 425 q 433 413 433 425 q 431 404 433 410 m 185 -29 q 97 -86 117 -71 q 19 -168 53 -124 q -19 -250 -19 -219 q 3 -275 -19 -275 q 89 -209 39 -275 q 174 -58 139 -143 l 185 -29 m 426 546 q 381 494 426 494 q 351 528 351 494 q 393 575 351 575 q 426 546 426 575 m 285 546 q 239 494 285 494 q 208 528 208 494 q 250 575 208 575 q 285 546 285 575 z "},"":{"ha":1504,"x_min":67,"x_max":1799,"o":"m 1794 1004 q 1565 579 1726 904 q 1388 207 1476 393 q 1211 -94 1282 -10 q 833 -315 1029 -315 q 747 -284 781 -315 q 713 -201 713 -253 q 735 -139 713 -162 q 792 -115 758 -115 q 842 -135 821 -115 q 863 -187 863 -156 q 842 -236 863 -215 q 796 -257 822 -257 q 776 -262 779 -257 q 785 -277 774 -268 q 829 -286 796 -286 q 1124 -75 974 -286 q 1279 199 1176 0 q 1439 514 1360 356 q 1221 263 1313 358 q 833 -1 969 -1 q 733 106 733 -1 q 839 351 733 179 q 1035 653 936 501 q 1140 889 1140 821 q 976 1003 1140 1003 q 533 888 749 1003 q 226 639 351 789 q 111 403 111 500 q 147 310 111 342 q 228 282 179 282 q 647 458 443 282 q 844 667 750 546 q 950 835 933 779 q 979 829 968 858 q 886 660 961 768 q 667 425 789 521 q 243 250 447 250 q 67 418 67 250 q 185 688 67 540 q 489 932 304 835 q 910 1040 694 1040 q 1211 849 1211 1040 q 1103 568 1211 750 q 900 267 1060 496 q 792 74 792 110 q 839 35 792 35 q 1199 297 953 35 q 1564 750 1474 592 l 1710 1007 q 1763 1024 1711 1011 q 1799 1015 1799 1033 q 1794 1004 1799 1011 m 1622 1154 q 1576 1103 1622 1103 q 1547 1136 1547 1103 q 1589 1183 1547 1183 q 1622 1154 1622 1183 m 1481 1154 q 1435 1103 1481 1103 q 1404 1136 1404 1103 q 1446 1183 1404 1183 q 1481 1154 1481 1183 z "},"":{"ha":832,"x_min":19,"x_max":825,"o":"m 825 714 q 807 656 825 681 q 757 632 789 632 q 696 685 696 632 q 725 739 696 717 q 754 768 754 761 q 717 806 754 806 q 556 713 644 806 q 406 497 475 629 l 658 497 l 631 458 l 386 458 q 342 353 361 406 l 575 353 l 547 314 l 328 314 q 297 154 297 221 q 381 36 297 36 q 588 128 481 36 q 701 256 663 192 q 726 231 725 256 q 599 96 678 160 q 376 -1 481 -1 q 207 215 207 -1 q 221 314 207 263 l 19 314 l 47 353 l 231 353 q 275 458 247 406 l 103 458 l 131 497 l 296 497 q 492 729 376 636 q 717 828 613 828 q 799 793 768 828 q 825 714 825 761 z "},"":{"ha":338,"x_min":61,"x_max":264,"o":"m 263 507 l 251 450 l 246 443 l 131 364 l 211 222 l 168 194 l 65 372 q 69 386 61 381 l 251 511 q 261 515 258 515 q 263 507 264 514 z "},"":{"ha":358,"x_min":113,"x_max":317,"o":"m 313 317 q 308 301 317 308 l 126 178 q 117 174 119 174 q 115 182 113 175 l 126 238 l 131 246 l 247 324 l 165 467 l 210 494 l 313 317 z "},"":{"ha":756,"x_min":257,"x_max":808,"o":"m 808 749 q 769 711 808 711 q 670 730 736 711 q 569 749 604 749 q 556 663 558 711 q 506 578 528 625 q 596 597 538 578 q 686 615 654 615 q 723 599 708 615 q 738 560 738 583 q 696 524 738 524 q 597 542 663 524 q 499 560 532 560 q 460 407 482 522 q 393 239 444 332 q 285 0 325 115 l 257 0 q 340 258 293 75 q 421 443 363 342 q 475 560 439 482 q 388 542 444 560 q 303 525 332 525 q 271 542 283 525 q 258 579 258 560 q 300 614 258 614 q 392 597 332 614 q 482 578 451 579 q 497 668 497 629 q 547 749 522 696 q 460 731 517 749 q 375 714 404 714 q 344 731 356 714 q 332 765 332 747 q 374 803 332 803 q 464 785 404 803 q 554 767 524 768 q 586 917 576 840 q 600 1001 594 985 q 660 1050 618 1050 q 703 1007 703 1050 q 649 893 703 976 q 576 767 588 799 q 666 786 607 768 q 756 804 725 804 q 808 749 808 804 z "},"":{"ha":239,"x_min":63,"x_max":188,"o":"m 188 85 q 160 16 188 50 q 100 -18 133 -18 q 63 26 63 -18 q 90 94 63 60 q 150 129 117 129 q 188 85 188 129 z "},"":{"ha":257,"x_min":-19,"x_max":183,"o":"m 183 76 q 128 -86 183 -7 q -7 -189 72 -165 l -19 -171 q 63 -112 28 -150 q 110 -25 103 -69 q 63 26 63 -19 q 87 97 63 64 q 144 129 111 129 q 183 76 183 129 z "},"":{"ha":374,"x_min":-19,"x_max":342,"o":"m 342 76 q 286 -86 342 -7 q 151 -189 231 -165 l 139 -171 q 221 -112 185 -150 q 268 -25 261 -69 q 221 26 221 -19 q 245 97 221 64 q 303 129 269 129 q 342 76 342 129 m 183 76 q 128 -86 183 -7 q -7 -189 72 -165 l -19 -171 q 63 -112 28 -150 q 110 -25 103 -69 q 63 26 63 -19 q 87 97 63 64 q 144 129 111 129 q 183 76 183 129 z "},"":{"ha":1161,"x_min":138,"x_max":1124,"o":"m 1124 331 q 1038 108 1124 221 q 864 -4 951 -4 q 779 28 808 -4 q 756 100 756 57 q 846 315 756 207 q 1051 429 940 429 q 1124 331 1124 429 m 778 775 l 175 4 q 159 13 165 4 q 154 31 153 22 l 563 590 q 490 574 524 574 q 463 575 472 574 q 360 451 422 501 q 244 400 299 400 q 138 507 138 400 q 229 729 138 622 q 435 836 321 836 q 454 826 454 836 q 435 813 454 813 q 278 676 357 813 q 206 468 206 551 q 247 422 206 422 q 336 475 285 422 q 418 594 383 525 q 374 688 374 629 q 399 771 374 740 q 443 796 418 796 q 503 715 503 796 q 475 599 503 660 q 493 597 481 597 q 635 692 565 597 l 735 826 q 754 831 747 843 l 774 793 q 778 775 782 779 m 754 331 q 668 108 754 221 q 493 -4 582 -4 q 411 26 438 -4 q 385 100 385 57 q 475 315 385 207 q 681 429 571 429 q 754 331 754 429 m 1083 365 q 1039 408 1083 408 q 900 288 975 408 q 825 64 825 167 q 868 18 825 18 q 1009 136 935 18 q 1083 365 1083 254 m 457 724 q 438 769 457 769 q 414 692 414 769 q 431 619 414 642 q 457 724 457 681 m 713 365 q 669 408 713 408 q 530 288 604 408 q 456 64 456 167 q 497 18 456 18 q 638 136 564 18 q 713 365 713 254 z "},"":{"ha":1851,"x_min":63,"x_max":2143,"o":"m 2040 1025 q 1775 560 1957 876 q 1669 369 1722 469 q 1781 367 1750 367 q 1875 375 1814 367 q 1879 347 1893 367 q 1647 326 1836 326 q 1624 282 1635 304 q 1715 142 1715 231 q 1669 35 1715 75 q 1565 -4 1622 -4 q 1481 32 1515 -4 q 1447 125 1447 68 q 1511 292 1447 174 q 1290 325 1422 318 q 490 -8 875 -8 q 197 65 315 -8 q 63 299 63 149 q 254 594 63 474 q 649 706 431 706 q 1013 614 879 706 q 1017 606 1017 610 q 992 589 1017 582 q 696 668 893 668 q 311 547 488 668 q 125 254 125 421 q 232 82 125 149 q 475 21 332 21 q 1239 326 856 21 l 1106 329 l 528 332 q 482 332 489 332 q 468 346 468 335 q 506 380 468 358 q 575 401 544 401 q 840 393 596 401 q 1218 381 1114 383 l 1303 379 q 1364 435 1339 410 q 1958 1018 1653 718 q 2015 1046 1981 1038 q 2044 1038 2044 1053 q 2040 1025 2044 1033 m 1915 932 l 1904 933 q 1722 744 1894 922 q 1468 485 1539 556 q 1353 378 1414 431 l 1556 372 q 1690 585 1597 440 l 1915 932 m 1654 165 q 1607 249 1654 213 q 1528 58 1528 92 q 1563 18 1528 18 q 1624 64 1594 18 q 1654 165 1654 110 m 2143 1072 q 2140 1071 2142 1071 q 2094 1125 2126 1071 q 2058 1194 2065 1174 q 1960 1113 2017 1156 q 1894 1071 1903 1071 q 1890 1072 1890 1071 q 1956 1136 1890 1075 q 2068 1264 2029 1206 l 2085 1264 q 2117 1137 2090 1206 q 2143 1072 2143 1068 z "},"":{"ha":985,"x_min":57,"x_max":1164,"o":"m 1160 965 q 992 797 1160 863 q 622 729 843 739 q 611 675 611 700 q 631 625 611 643 q 799 638 717 638 q 939 626 885 638 q 993 597 993 614 q 940 565 993 579 q 821 551 888 551 q 629 593 711 551 q 300 423 433 547 q 167 169 167 299 q 364 33 167 33 q 992 286 733 33 q 1006 267 1011 286 q 718 67 914 143 q 369 -3 540 -3 q 129 64 211 -3 q 57 229 57 125 q 222 482 57 372 q 592 618 369 579 q 536 728 538 663 q 297 779 425 732 q 154 856 185 819 q 157 869 151 863 q 169 875 163 875 q 286 815 196 850 q 538 758 408 767 q 706 956 557 865 q 1015 1046 854 1046 q 1160 965 1160 1046 m 1106 976 q 1036 1019 1106 1019 q 801 936 926 1019 q 633 757 685 856 q 951 836 796 765 q 1106 976 1106 907 m 1164 1075 q 1161 1074 1163 1074 q 1115 1128 1147 1074 q 1079 1197 1086 1176 q 981 1116 1038 1158 q 915 1074 924 1074 q 911 1075 911 1074 q 976 1139 911 1078 q 1089 1267 1050 1208 l 1106 1267 q 1138 1140 1111 1208 q 1164 1075 1164 1071 z "},"":{"ha":1851,"x_min":63,"x_max":2131,"o":"m 2040 1025 q 1775 560 1957 876 q 1669 369 1722 469 q 1781 367 1750 367 q 1875 375 1814 367 q 1879 347 1893 367 q 1647 326 1836 326 q 1624 282 1635 304 q 1715 142 1715 231 q 1669 35 1715 75 q 1565 -4 1622 -4 q 1481 32 1515 -4 q 1447 125 1447 68 q 1511 292 1447 174 q 1290 325 1422 318 q 490 -8 875 -8 q 197 65 315 -8 q 63 299 63 149 q 254 594 63 474 q 649 706 431 706 q 1013 614 879 706 q 1017 606 1017 610 q 992 589 1017 582 q 696 668 893 668 q 311 547 488 668 q 125 254 125 421 q 232 82 125 149 q 475 21 332 21 q 1239 326 856 21 l 1106 329 l 528 332 q 482 332 489 332 q 468 346 468 335 q 506 380 468 358 q 575 401 544 401 q 840 393 596 401 q 1218 381 1114 383 l 1303 379 q 1364 435 1339 410 q 1958 1018 1653 718 q 2015 1046 1981 1038 q 2044 1038 2044 1053 q 2040 1025 2044 1033 m 1915 932 l 1904 933 q 1722 744 1894 922 q 1468 485 1539 556 q 1353 378 1414 431 l 1556 372 q 1690 585 1597 440 l 1915 932 m 1654 165 q 1607 249 1654 213 q 1528 58 1528 92 q 1563 18 1528 18 q 1624 64 1594 18 q 1654 165 1654 110 m 2131 1256 q 2061 1150 2131 1215 q 1974 1088 1997 1088 q 1968 1092 1968 1089 q 1992 1114 1968 1096 q 2034 1158 2019 1138 q 2065 1240 2049 1179 q 2104 1281 2076 1281 q 2131 1256 2131 1281 z "},"":{"ha":985,"x_min":57,"x_max":1160,"o":"m 1160 965 q 992 797 1160 863 q 622 729 843 739 q 611 675 611 700 q 631 625 611 643 q 799 638 717 638 q 939 626 885 638 q 993 597 993 614 q 940 565 993 579 q 821 551 888 551 q 629 593 711 551 q 300 423 433 547 q 167 169 167 299 q 364 33 167 33 q 992 286 733 33 q 1006 267 1011 286 q 718 67 914 143 q 369 -3 540 -3 q 129 64 211 -3 q 57 229 57 125 q 222 482 57 372 q 592 618 369 579 q 536 728 538 663 q 297 779 425 732 q 154 856 185 819 q 157 869 151 863 q 169 875 163 875 q 286 815 196 850 q 538 758 408 767 q 706 956 557 865 q 1015 1046 854 1046 q 1160 965 1160 1046 m 1106 976 q 1036 1019 1106 1019 q 801 936 926 1019 q 633 757 685 856 q 951 836 796 765 q 1106 976 1106 907 m 1142 1163 q 1094 1111 1142 1111 q 1065 1144 1065 1111 q 1107 1192 1065 1192 q 1142 1163 1142 1192 m 999 1163 q 953 1111 999 1111 q 924 1144 924 1111 q 965 1192 924 1192 q 999 1163 999 1192 z "},"":{"ha":985,"x_min":57,"x_max":1160,"o":"m 1160 965 q 992 797 1160 863 q 622 729 843 739 q 611 675 611 700 q 631 625 611 643 q 799 638 717 638 q 939 626 885 638 q 993 597 993 614 q 940 565 993 579 q 821 551 888 551 q 629 593 711 551 q 300 423 433 547 q 167 169 167 299 q 364 33 167 33 q 992 286 733 33 q 1006 267 1011 286 q 718 67 914 143 q 369 -3 540 -3 q 129 64 211 -3 q 57 229 57 125 q 222 482 57 372 q 592 618 369 579 q 536 728 538 663 q 297 779 425 732 q 154 856 185 819 q 157 869 151 863 q 169 875 163 875 q 286 815 196 850 q 538 758 408 767 q 706 956 557 865 q 1015 1046 854 1046 q 1160 965 1160 1046 m 1106 976 q 1036 1019 1106 1019 q 801 936 926 1019 q 633 757 685 856 q 951 836 796 765 q 1106 976 1106 907 m 1092 1082 q 1086 1078 1092 1079 q 997 1140 1063 1078 q 928 1246 928 1206 q 956 1271 928 1271 q 994 1231 983 1271 q 1026 1149 1011 1169 q 1068 1104 1040 1128 q 1092 1082 1092 1086 z "},"":{"ha":1161,"x_min":76,"x_max":1446,"o":"m 1442 968 q 1403 944 1428 958 q 1414 939 1411 943 q 1408 926 1417 933 q 1297 790 1333 858 q 1219 578 1294 785 q 1081 307 1158 408 q 792 84 976 171 q 426 -3 607 -3 q 161 65 254 -3 q 76 239 76 129 q 290 500 76 397 q 626 583 464 583 q 888 538 803 583 q 885 525 892 531 q 868 521 879 519 q 682 554 814 554 q 328 450 507 554 q 135 204 135 339 q 218 67 135 114 q 424 25 293 25 q 758 119 593 25 q 1001 347 918 211 q 1122 590 1039 410 q 1236 794 1190 740 q 1375 931 1304 878 q 1197 885 1279 885 q 908 945 1106 885 q 599 1006 711 1006 q 282 903 424 1006 q 151 713 151 808 q 158 660 151 676 q 135 664 151 646 q 121 718 121 688 q 261 944 121 854 q 674 1043 415 1043 q 1033 997 815 1043 q 1283 950 1251 950 q 1424 985 1368 950 q 1440 981 1435 986 q 1442 968 1446 976 m 1189 1244 q 1128 1140 1189 1204 q 1044 1076 1068 1076 q 1032 1077 1039 1076 q 1025 1081 1025 1078 q 1049 1103 1025 1085 q 1091 1147 1076 1126 q 1122 1229 1106 1168 q 1161 1269 1133 1269 q 1189 1244 1189 1269 z "},"":{"ha":1161,"x_min":76,"x_max":1446,"o":"m 1442 968 q 1403 944 1428 958 q 1414 939 1411 943 q 1408 926 1417 933 q 1297 790 1333 858 q 1219 578 1294 785 q 1081 307 1158 408 q 792 84 976 171 q 426 -3 607 -3 q 161 65 254 -3 q 76 239 76 129 q 290 500 76 397 q 626 583 464 583 q 888 538 803 583 q 885 525 892 531 q 868 521 879 519 q 682 554 814 554 q 328 450 507 554 q 135 204 135 339 q 218 67 135 114 q 424 25 293 25 q 758 119 593 25 q 1001 347 918 211 q 1122 590 1039 410 q 1236 794 1190 740 q 1375 931 1304 878 q 1197 885 1279 885 q 908 945 1106 885 q 599 1006 711 1006 q 282 903 424 1006 q 151 713 151 808 q 158 660 151 676 q 135 664 151 646 q 121 718 121 688 q 261 944 121 854 q 674 1043 415 1043 q 1033 997 815 1043 q 1283 950 1251 950 q 1424 985 1368 950 q 1440 981 1435 986 q 1442 968 1446 976 m 1279 1081 q 1276 1079 1278 1079 q 1231 1133 1263 1079 q 1194 1203 1201 1182 q 1096 1122 1153 1164 q 1031 1079 1039 1079 q 1026 1081 1026 1079 q 1092 1144 1026 1083 q 1204 1272 1165 1214 l 1221 1272 q 1253 1145 1226 1214 q 1279 1081 1279 1076 z "},"":{"ha":1161,"x_min":76,"x_max":1446,"o":"m 1442 968 q 1403 944 1428 958 q 1414 939 1411 943 q 1408 926 1417 933 q 1297 790 1333 858 q 1219 578 1294 785 q 1081 307 1158 408 q 792 84 976 171 q 426 -3 607 -3 q 161 65 254 -3 q 76 239 76 129 q 290 500 76 397 q 626 583 464 583 q 888 538 803 583 q 885 525 892 531 q 868 521 879 519 q 682 554 814 554 q 328 450 507 554 q 135 204 135 339 q 218 67 135 114 q 424 25 293 25 q 758 119 593 25 q 1001 347 918 211 q 1122 590 1039 410 q 1236 794 1190 740 q 1375 931 1304 878 q 1197 885 1279 885 q 908 945 1106 885 q 599 1006 711 1006 q 282 903 424 1006 q 151 713 151 808 q 158 660 151 676 q 135 664 151 646 q 121 718 121 688 q 261 944 121 854 q 674 1043 415 1043 q 1033 997 815 1043 q 1283 950 1251 950 q 1424 985 1368 950 q 1440 981 1435 986 q 1442 968 1446 976 m 1164 1163 q 1118 1111 1164 1111 q 1089 1144 1089 1111 q 1131 1192 1089 1192 q 1164 1163 1164 1192 m 1022 1163 q 976 1111 1022 1111 q 946 1144 946 1111 q 988 1192 946 1192 q 1022 1163 1022 1192 z "},"":{"ha":1161,"x_min":76,"x_max":1446,"o":"m 1442 968 q 1403 944 1428 958 q 1414 939 1411 943 q 1408 926 1417 933 q 1297 790 1333 858 q 1219 578 1294 785 q 1081 307 1158 408 q 792 84 976 171 q 426 -3 607 -3 q 161 65 254 -3 q 76 239 76 129 q 290 500 76 397 q 626 583 464 583 q 888 538 803 583 q 885 525 892 531 q 868 521 879 519 q 682 554 814 554 q 328 450 507 554 q 135 204 135 339 q 218 67 135 114 q 424 25 293 25 q 758 119 593 25 q 1001 347 918 211 q 1122 590 1039 410 q 1236 794 1190 740 q 1375 931 1304 878 q 1197 885 1279 885 q 908 945 1106 885 q 599 1006 711 1006 q 282 903 424 1006 q 151 713 151 808 q 158 660 151 676 q 135 664 151 646 q 121 718 121 688 q 261 944 121 854 q 674 1043 415 1043 q 1033 997 815 1043 q 1283 950 1251 950 q 1424 985 1368 950 q 1440 981 1435 986 q 1442 968 1446 976 m 1185 1072 q 1179 1068 1185 1069 q 1090 1131 1156 1068 q 1021 1236 1021 1196 q 1049 1261 1021 1261 q 1088 1221 1076 1261 q 1119 1139 1104 1160 q 1161 1094 1133 1118 q 1185 1072 1185 1076 z "},"":{"ha":1208,"x_min":79,"x_max":1322,"o":"m 1322 779 q 1169 386 1322 575 q 815 103 1032 213 q 400 -6 597 -6 q 329 0 364 -6 q 385 -90 346 -47 q 376 -105 386 -99 q 357 -107 367 -111 q 292 7 310 -62 q 79 281 79 57 q 236 665 79 479 q 599 940 376 832 q 1007 1044 815 1044 q 1204 1015 1133 1044 q 1204 1001 1208 1008 q 1190 993 1199 994 q 1007 1015 1129 1015 q 631 892 836 1015 q 296 593 431 771 q 151 226 151 401 q 285 38 151 81 q 276 136 276 82 q 390 531 276 331 q 679 857 503 731 q 1063 992 868 992 q 1258 926 1188 992 q 1322 779 1322 868 m 1269 797 q 1211 919 1269 876 q 1063 963 1153 963 q 708 817 892 963 q 427 481 542 683 q 313 110 313 278 q 321 29 313 67 q 365 25 344 25 q 754 141 539 25 q 1113 429 969 257 q 1269 797 1269 618 m 1231 1256 q 1161 1150 1231 1215 q 1074 1088 1097 1088 q 1068 1092 1068 1089 q 1092 1114 1068 1096 q 1134 1158 1119 1138 q 1165 1240 1149 1179 q 1204 1281 1176 1281 q 1231 1256 1231 1281 z "},"":{"ha":1208,"x_min":79,"x_max":1322,"o":"m 1322 779 q 1169 386 1322 575 q 815 103 1032 213 q 400 -6 597 -6 q 329 0 364 -6 q 385 -90 346 -47 q 376 -105 386 -99 q 357 -107 367 -111 q 292 7 310 -62 q 79 281 79 57 q 236 665 79 479 q 599 940 376 832 q 1007 1044 815 1044 q 1204 1015 1133 1044 q 1204 1001 1208 1008 q 1190 993 1199 994 q 1007 1015 1129 1015 q 631 892 836 1015 q 296 593 431 771 q 151 226 151 401 q 285 38 151 81 q 276 136 276 82 q 390 531 276 331 q 679 857 503 731 q 1063 992 868 992 q 1258 926 1188 992 q 1322 779 1322 868 m 1269 797 q 1211 919 1269 876 q 1063 963 1153 963 q 708 817 892 963 q 427 481 542 683 q 313 110 313 278 q 321 29 313 67 q 365 25 344 25 q 754 141 539 25 q 1113 429 969 257 q 1269 797 1269 618 m 1243 1083 q 1242 1081 1243 1081 q 1194 1135 1228 1081 q 1158 1204 1165 1183 q 1061 1123 1118 1165 q 996 1081 1004 1081 q 992 1083 992 1081 q 1056 1146 992 1085 q 1169 1274 1131 1217 l 1186 1274 q 1218 1144 1190 1215 q 1243 1083 1243 1079 z "},"":{"ha":1208,"x_min":79,"x_max":1322,"o":"m 1322 779 q 1169 386 1322 575 q 815 103 1032 213 q 400 -6 597 -6 q 329 0 364 -6 q 385 -90 346 -47 q 376 -105 386 -99 q 357 -107 367 -111 q 292 7 310 -62 q 79 281 79 57 q 236 665 79 479 q 599 940 376 832 q 1007 1044 815 1044 q 1204 1015 1133 1044 q 1204 1001 1208 1008 q 1190 993 1199 994 q 1007 1015 1129 1015 q 631 892 836 1015 q 296 593 431 771 q 151 226 151 401 q 285 38 151 81 q 276 136 276 82 q 390 531 276 331 q 679 857 503 731 q 1063 992 868 992 q 1258 926 1188 992 q 1322 779 1322 868 m 1269 797 q 1211 919 1269 876 q 1063 963 1153 963 q 708 817 892 963 q 427 481 542 683 q 313 110 313 278 q 321 29 313 67 q 365 25 344 25 q 754 141 539 25 q 1113 429 969 257 q 1269 797 1269 618 m 1196 1079 q 1190 1075 1196 1076 q 1101 1138 1167 1075 q 1032 1243 1032 1203 q 1060 1268 1032 1268 q 1099 1228 1088 1268 q 1130 1146 1115 1167 q 1172 1101 1144 1125 q 1196 1079 1196 1083 z "},"":{"ha":1704,"x_min":60,"x_max":1817,"o":"m 1810 1008 q 1590 547 1746 874 q 1401 61 1401 144 q 1410 41 1401 51 q 1431 31 1419 31 q 1582 132 1488 31 q 1699 288 1656 213 q 1717 294 1708 294 q 1726 283 1726 293 q 1619 118 1692 203 q 1424 -1 1517 -1 q 1318 101 1318 -1 q 1456 478 1318 207 q 1290 274 1354 344 q 885 -8 1035 -8 q 779 101 779 -8 q 889 371 779 185 q 1092 690 890 375 q 1201 911 1201 863 q 1147 983 1201 954 q 1008 1013 1092 1013 q 565 896 789 1013 q 236 647 372 797 q 108 411 108 506 q 243 292 108 292 q 460 338 340 292 q 686 467 585 386 q 890 679 793 551 q 996 850 975 790 q 1024 896 1011 896 q 1032 879 1032 896 q 1025 844 1032 865 q 933 675 1006 781 q 708 433 836 535 q 471 301 601 349 q 250 260 353 260 q 60 426 60 260 q 186 694 60 549 q 510 935 313 839 q 961 1040 729 1040 q 1265 860 1265 1040 q 1156 589 1265 776 q 951 268 1124 535 q 840 63 840 99 q 900 24 840 24 q 1062 108 951 24 q 1267 308 1172 193 q 1579 718 1400 471 l 1718 990 q 1751 1019 1725 1010 q 1807 1039 1806 1039 q 1817 1029 1817 1039 q 1810 1008 1817 1022 m 1651 1229 q 1582 1124 1651 1190 q 1493 1063 1517 1063 q 1488 1067 1488 1064 q 1513 1091 1488 1069 q 1553 1133 1539 1113 q 1585 1215 1568 1154 q 1624 1256 1596 1256 q 1651 1229 1651 1256 z "},"":{"ha":1704,"x_min":60,"x_max":1817,"o":"m 1810 1008 q 1590 547 1746 874 q 1401 61 1401 144 q 1410 41 1401 51 q 1431 31 1419 31 q 1582 132 1488 31 q 1699 288 1656 213 q 1717 294 1708 294 q 1726 283 1726 293 q 1619 118 1692 203 q 1424 -1 1517 -1 q 1318 101 1318 -1 q 1456 478 1318 207 q 1290 274 1354 344 q 885 -8 1035 -8 q 779 101 779 -8 q 889 371 779 185 q 1092 690 890 375 q 1201 911 1201 863 q 1147 983 1201 954 q 1008 1013 1092 1013 q 565 896 789 1013 q 236 647 372 797 q 108 411 108 506 q 243 292 108 292 q 460 338 340 292 q 686 467 585 386 q 890 679 793 551 q 996 850 975 790 q 1024 896 1011 896 q 1032 879 1032 896 q 1025 844 1032 865 q 933 675 1006 781 q 708 433 836 535 q 471 301 601 349 q 250 260 353 260 q 60 426 60 260 q 186 694 60 549 q 510 935 313 839 q 961 1040 729 1040 q 1265 860 1265 1040 q 1156 589 1265 776 q 951 268 1124 535 q 840 63 840 99 q 900 24 840 24 q 1062 108 951 24 q 1267 308 1172 193 q 1579 718 1400 471 l 1718 990 q 1751 1019 1725 1010 q 1807 1039 1806 1039 q 1817 1029 1817 1039 q 1810 1008 1817 1022 m 1635 1072 q 1632 1071 1633 1071 q 1586 1125 1618 1071 q 1550 1194 1557 1174 q 1451 1113 1508 1156 q 1386 1071 1394 1071 q 1382 1072 1382 1071 q 1447 1136 1382 1075 q 1560 1264 1521 1206 l 1576 1264 q 1608 1137 1582 1206 q 1635 1072 1635 1068 z "},"":{"ha":1704,"x_min":60,"x_max":1817,"o":"m 1810 1008 q 1590 547 1746 874 q 1401 61 1401 144 q 1410 41 1401 51 q 1431 31 1419 31 q 1582 132 1488 31 q 1699 288 1656 213 q 1717 294 1708 294 q 1726 283 1726 293 q 1619 118 1692 203 q 1424 -1 1517 -1 q 1318 101 1318 -1 q 1456 478 1318 207 q 1290 274 1354 344 q 885 -8 1035 -8 q 779 101 779 -8 q 889 371 779 185 q 1092 690 890 375 q 1201 911 1201 863 q 1147 983 1201 954 q 1008 1013 1092 1013 q 565 896 789 1013 q 236 647 372 797 q 108 411 108 506 q 243 292 108 292 q 460 338 340 292 q 686 467 585 386 q 890 679 793 551 q 996 850 975 790 q 1024 896 1011 896 q 1032 879 1032 896 q 1025 844 1032 865 q 933 675 1006 781 q 708 433 836 535 q 471 301 601 349 q 250 260 353 260 q 60 426 60 260 q 186 694 60 549 q 510 935 313 839 q 961 1040 729 1040 q 1265 860 1265 1040 q 1156 589 1265 776 q 951 268 1124 535 q 840 63 840 99 q 900 24 840 24 q 1062 108 951 24 q 1267 308 1172 193 q 1579 718 1400 471 l 1718 990 q 1751 1019 1725 1010 q 1807 1039 1806 1039 q 1817 1029 1817 1039 q 1810 1008 1817 1022 m 1561 1074 q 1556 1069 1561 1071 q 1468 1132 1532 1069 q 1399 1238 1399 1199 q 1425 1263 1399 1263 q 1464 1224 1453 1263 q 1495 1140 1481 1161 q 1538 1097 1510 1119 q 1561 1074 1561 1078 z "},"":{"ha":378,"x_min":49,"x_max":301,"o":"m 301 911 q 299 910 300 910 q 253 964 285 910 q 217 1033 224 1013 q 118 952 175 994 q 53 910 61 910 q 49 911 49 910 q 114 975 49 914 q 226 1103 188 1044 l 243 1103 q 275 976 249 1044 q 301 911 301 907 z "},"":{"ha":396,"x_min":43,"x_max":347,"o":"m 347 1058 q 325 1017 344 1040 q 254 988 297 983 q 184 1013 229 990 q 114 1039 139 1036 q 68 1020 88 1042 q 47 1000 49 999 q 44 1007 43 1000 q 68 1049 46 1022 q 128 1079 96 1083 q 202 1051 153 1076 q 276 1025 251 1026 q 324 1044 307 1021 q 343 1067 342 1067 q 347 1058 347 1067 z "},"":{"ha":374,"x_min":53,"x_max":332,"o":"m 332 1076 q 272 1053 332 1053 l 64 1053 q 53 1063 53 1053 q 67 1078 53 1069 q 101 1086 81 1086 l 315 1086 q 332 1076 332 1086 z "},"":{"ha":282,"x_min":42,"x_max":249,"o":"m 92 -228 q 50 -224 64 -228 q 43 -217 42 -222 q 51 -210 44 -210 q 196 -143 176 -218 q 197 -132 197 -137 q 151 -103 197 -103 l 119 -103 l 113 -89 l 175 0 l 199 0 l 144 -79 l 163 -79 q 249 -125 249 -79 q 190 -204 249 -174 q 92 -228 143 -228 z "},"":{"ha":1257,"x_min":63,"x_max":1751,"o":"m 1613 960 q 1508 735 1613 861 q 1232 510 1399 603 q 481 -1 1025 -1 q 176 79 290 -1 q 63 289 63 160 q 286 606 63 481 q 703 713 481 713 q 950 665 865 713 q 933 644 950 644 q 736 683 854 683 q 339 571 525 683 q 136 279 136 447 q 229 94 136 157 q 490 31 322 31 q 1101 447 892 31 q 763 382 932 382 q 546 426 614 382 q 540 439 540 432 q 557 451 540 451 q 749 422 638 422 q 1122 490 950 422 q 1182 640 1153 558 q 1354 939 1243 818 q 1536 1050 1457 1050 q 1613 960 1613 1050 m 1569 983 q 1536 1022 1569 1022 q 1403 918 1474 1022 q 1272 624 1326 807 q 1250 556 1263 590 q 1492 783 1400 647 q 1569 983 1569 899 m 1751 1290 q 1682 1226 1751 1288 q 1558 1099 1601 1157 l 1542 1099 q 1519 1228 1542 1157 q 1499 1290 1500 1294 q 1501 1292 1500 1292 q 1543 1238 1515 1292 q 1574 1168 1569 1189 q 1678 1249 1618 1207 q 1747 1292 1739 1292 q 1751 1290 1751 1292 z "},"":{"ha":346,"x_min":-14,"x_max":526,"o":"m 326 461 q 301 431 326 451 q 275 382 275 410 q 287 326 275 358 q 299 256 299 294 q 230 74 299 147 q 72 0 161 0 q -14 79 -14 0 q 6 140 -14 117 q 49 164 25 164 q 96 115 96 164 q 76 71 96 88 q 35 54 57 54 q 24 46 22 54 q 64 21 31 21 q 168 96 122 21 q 214 267 214 171 q 200 310 214 297 q 182 310 192 319 q 111 235 151 276 q 96 239 104 232 q 89 253 88 246 q 194 374 121 286 q 253 450 224 411 q 303 485 279 485 q 326 461 326 485 m 526 714 q 457 650 526 711 q 333 522 376 581 l 317 522 q 294 651 317 581 q 274 714 274 718 q 276 715 275 715 q 318 661 289 715 q 349 592 344 613 q 453 673 393 631 q 522 715 514 715 q 526 714 526 715 z "},"":{"ha":1714,"x_min":40,"x_max":1743,"o":"m 1743 569 q 1513 158 1743 322 q 958 -1 1288 -1 q 627 40 835 -1 q 246 81 419 81 q 61 14 144 81 q 46 17 51 10 q 44 35 40 24 q 139 103 71 67 q 340 154 236 154 q 730 101 465 154 q 1106 47 994 47 q 1461 179 1300 47 q 1640 549 1640 328 q 1504 817 1640 706 q 1296 475 1461 761 l 1467 475 l 1435 421 l 1264 421 q 1176 283 1215 339 q 1085 181 1143 235 q 974 100 1019 118 q 956 107 956 93 q 967 122 956 115 q 1090 254 1031 160 q 1183 421 1129 318 l 979 421 l 1011 475 l 1211 475 q 1464 847 1346 732 q 899 989 1254 989 q 394 856 610 989 q 193 586 193 731 q 356 357 193 442 q 764 274 513 274 q 915 294 835 274 q 1015 333 989 314 q 1038 322 1038 340 q 1035 313 1038 317 q 904 244 992 279 q 715 200 796 200 q 317 303 472 200 q 156 582 156 408 q 407 900 156 756 q 940 1043 654 1043 q 1536 904 1308 1043 q 1667 967 1617 960 q 1672 958 1672 964 q 1665 947 1672 951 q 1569 882 1617 921 q 1743 569 1743 760 z "},"":{"ha":419,"x_min":17,"x_max":413,"o":"m 407 196 q 354 172 383 172 q 342 174 350 172 q 239 49 301 100 q 124 -1 176 -1 q 17 106 17 -1 q 115 335 17 232 q 308 433 210 433 q 264 572 308 494 q 168 689 221 644 l 121 643 l 104 660 l 149 703 q 67 732 129 715 q 22 765 22 743 q 54 803 22 803 q 186 739 119 803 l 232 783 l 249 767 l 203 722 q 292 590 254 668 q 333 440 333 504 q 314 411 333 411 q 157 275 236 411 q 85 65 85 150 q 126 21 85 21 q 213 72 164 21 q 297 193 263 124 q 253 286 253 226 q 276 368 253 339 q 322 393 297 393 q 382 314 382 393 q 353 197 382 258 q 364 196 363 196 q 399 211 381 196 q 407 196 413 208 m 336 321 q 317 368 336 368 q 292 290 292 368 q 310 218 292 240 q 336 321 336 279 z "},"":{"ha":1508,"x_min":67,"x_max":1799,"o":"m 1794 1004 q 1565 579 1726 904 q 1388 207 1476 393 q 1211 -94 1282 -10 q 833 -315 1029 -315 q 747 -284 781 -315 q 713 -201 713 -253 q 735 -139 713 -162 q 792 -115 758 -115 q 842 -135 821 -115 q 863 -187 863 -156 q 842 -236 863 -215 q 796 -257 822 -257 q 776 -262 779 -257 q 785 -277 774 -268 q 829 -286 796 -286 q 1124 -75 974 -286 q 1279 199 1176 0 q 1439 514 1360 356 q 1221 263 1313 358 q 833 -1 969 -1 q 733 106 733 -1 q 839 351 733 179 q 1035 653 936 501 q 1140 889 1140 821 q 976 1003 1140 1003 q 533 888 749 1003 q 226 639 351 789 q 111 403 111 500 q 147 310 111 342 q 228 282 179 282 q 647 458 443 282 q 844 667 750 546 q 950 835 933 779 q 979 829 968 858 q 886 660 961 768 q 667 425 789 521 q 243 250 447 250 q 67 418 67 250 q 185 688 67 540 q 489 932 304 835 q 910 1040 694 1040 q 1211 849 1211 1040 q 1103 568 1211 750 q 900 267 1060 496 q 792 74 792 110 q 839 35 792 35 q 1199 297 953 35 q 1564 750 1474 592 l 1710 1007 q 1763 1024 1711 1011 q 1799 1015 1799 1033 q 1794 1004 1799 1011 m 1618 1236 q 1558 1132 1618 1196 q 1474 1068 1497 1068 q 1461 1069 1468 1068 q 1454 1072 1454 1069 q 1478 1094 1454 1076 q 1520 1139 1506 1118 q 1551 1221 1535 1160 q 1590 1261 1563 1261 q 1618 1236 1618 1261 z "},"":{"ha":444,"x_min":-79,"x_max":436,"o":"m 431 404 q 313 85 424 389 q 365 132 351 113 q 389 114 382 132 q 296 40 365 86 l 286 13 q 160 -197 244 -99 q -21 -308 63 -308 q -79 -250 -79 -308 q -40 -167 -79 -217 q 57 -78 -1 -118 q 201 14 96 -51 l 244 121 q 168 46 215 83 q 78 -1 110 -1 q 31 18 50 -1 q 13 65 13 38 q 79 224 13 106 q 151 371 151 351 q 133 393 151 393 q 78 371 118 393 q 58 390 63 375 q 161 429 89 429 q 226 372 226 429 q 151 201 226 342 q 75 46 75 61 q 89 31 75 31 q 210 121 131 31 q 300 253 278 201 l 357 392 q 382 421 369 418 q 410 425 401 425 q 433 413 433 425 q 431 404 433 410 m 185 -29 q 97 -86 117 -71 q 19 -168 53 -124 q -19 -250 -19 -219 q 3 -275 -19 -275 q 89 -209 39 -275 q 174 -58 139 -143 l 185 -29 m 436 640 q 374 535 436 601 q 293 474 315 474 q 282 474 288 474 q 274 478 274 475 q 299 502 274 481 q 340 544 325 524 q 371 626 354 565 q 410 667 382 667 q 436 640 436 667 z "},"":{"ha":1528,"x_min":13,"x_max":1524,"o":"m 1524 424 q 1329 97 1524 249 q 940 -51 1140 -51 q 843 -42 888 -51 q 383 -299 606 -299 q 242 -258 286 -299 q 261 -236 232 -237 q 372 -267 314 -267 q 769 -15 578 -267 q 661 158 661 39 q 804 417 661 310 q 996 508 906 494 q 1011 499 1007 506 q 1008 488 1015 493 q 851 393 936 469 q 729 146 729 285 q 789 10 729 49 q 981 331 875 131 q 1154 664 1068 497 q 610 538 875 664 q 206 229 361 418 q 49 -156 49 36 q 61 -249 49 -204 q 46 -268 64 -268 q 33 -264 39 -268 q 13 -108 13 -218 q 190 315 13 121 q 611 597 350 490 q 1107 699 863 699 q 1172 697 1142 699 q 1232 797 1208 760 q 1360 969 1300 903 q 1440 1036 1419 1036 q 1461 1025 1461 1036 q 1444 1007 1461 1025 q 1256 688 1386 944 q 1524 424 1524 643 m 1433 461 q 1242 658 1433 631 q 1071 301 1157 489 q 865 -17 992 128 q 924 -21 892 -21 q 1274 149 1106 -21 q 1433 461 1433 310 z "},"":{"ha":422,"x_min":-147,"x_max":421,"o":"m 421 360 q 335 136 421 264 q 153 -1 242 -1 q 75 24 106 -1 q -74 -282 17 -103 q -94 -299 -78 -290 q -125 -308 -111 -308 q -147 -292 -147 -308 q -144 -278 -147 -286 l 276 682 q 281 700 281 692 q 264 722 281 722 q 231 699 257 722 q 204 714 208 690 q 307 772 243 772 q 356 714 356 772 q 278 506 356 693 q 176 268 206 326 q 350 429 281 429 q 421 360 421 429 m 343 371 q 331 394 343 394 q 238 299 310 394 q 119 122 174 213 q 86 46 103 83 q 131 28 106 28 q 274 167 197 28 q 343 371 343 293 z "},"":{"ha":1778,"x_min":89,"x_max":1846,"o":"m 1846 864 q 1501 468 1846 646 q 789 272 1181 301 q 646 153 719 193 q 660 154 650 153 q 674 154 668 154 q 1031 125 850 154 q 1294 71 1115 111 q 1476 42 1424 42 q 1689 94 1632 42 q 1715 72 1718 93 q 1604 19 1689 43 q 1357 -8 1499 -8 q 924 53 1207 -8 q 628 114 640 114 q 571 106 585 114 q 432 47 529 81 q 185 1 294 1 q 89 24 89 1 q 192 90 89 53 q 593 153 338 144 q 661 219 622 175 q 694 268 674 235 q 669 268 671 268 q 392 328 456 268 q 390 335 390 332 q 418 347 390 349 q 533 315 443 331 q 693 299 622 299 q 713 299 688 299 q 844 540 756 378 l 643 471 l 643 517 l 876 597 q 935 694 910 658 q 1156 917 1028 829 q 1568 1042 1340 1042 q 1786 988 1715 1042 q 1846 864 1846 942 m 1775 879 q 1578 1014 1775 1014 q 1276 914 1431 1014 q 1054 690 1135 821 q 1031 651 1043 672 l 1254 729 l 1254 683 l 999 594 q 913 447 938 489 q 815 304 861 363 q 1281 425 1051 326 q 1636 643 1497 517 q 1775 879 1775 769 z "},"":{"ha":306,"x_min":10,"x_max":543,"o":"m 543 667 l 447 610 q 382 518 418 560 q 194 347 296 413 q 75 44 75 79 q 94 24 75 24 q 171 56 124 24 q 225 101 211 82 q 246 85 246 99 q 190 35 226 60 q 83 -1 136 -1 q 10 64 10 -1 q 149 433 10 142 l 49 374 l 49 415 l 176 492 q 213 558 197 531 q 333 728 268 657 q 461 808 408 808 q 504 757 504 808 q 479 671 504 724 l 543 708 l 543 667 m 454 758 q 442 774 454 774 q 376 705 425 774 q 292 560 328 636 l 400 624 q 454 758 454 719 m 361 558 l 265 503 l 219 401 q 361 558 303 469 z "},"":{"ha":1560,"x_min":35,"x_max":1779,"o":"m 1779 1017 q 1676 939 1779 985 q 1419 864 1564 888 q 1339 796 1374 832 q 1122 549 1283 733 l 1274 547 q 1410 556 1386 547 q 1428 553 1424 561 q 1415 536 1431 544 q 1254 503 1360 503 q 1081 503 1210 503 q 918 331 989 403 q 1197 149 1022 283 q 1403 44 1332 44 q 1515 78 1471 44 q 1535 63 1533 78 q 1460 22 1510 40 q 1338 -1 1397 -1 q 1179 49 1260 -1 q 1035 160 1135 75 q 871 283 936 244 q 821 238 842 256 q 243 -10 546 -10 q 35 107 35 -10 q 192 306 35 217 q 586 400 358 400 q 869 350 735 400 q 1006 504 921 406 l 785 504 q 768 529 763 504 q 800 554 774 554 q 1046 550 801 554 q 1210 726 1154 675 q 1372 857 1304 811 q 1244 850 1306 850 q 847 919 1096 850 q 507 988 597 988 q 244 896 364 988 q 133 722 133 810 q 142 664 133 682 q 115 657 135 649 q 97 732 97 679 q 249 949 97 858 q 574 1033 393 1033 q 999 959 686 1033 q 1403 885 1311 885 q 1531 968 1467 926 q 1738 1042 1657 1042 q 1779 1017 1779 1042 m 829 306 q 565 368 706 368 q 239 282 392 368 q 86 100 86 196 q 232 22 86 22 q 829 306 557 22 m 1290 1290 q 1221 1226 1289 1288 q 1097 1099 1140 1157 l 1081 1099 q 1058 1228 1079 1157 q 1038 1290 1038 1294 q 1040 1292 1038 1292 q 1082 1238 1053 1292 q 1113 1168 1107 1189 q 1217 1249 1157 1207 q 1285 1292 1276 1292 q 1290 1290 1290 1292 z "},"":{"ha":464,"x_min":0,"x_max":497,"o":"m 460 397 q 417 335 460 365 q 336 306 374 306 q 311 308 324 306 q 267 244 290 288 l 346 244 q 358 232 358 244 q 346 219 358 219 l 253 219 q 228 172 243 203 q 299 126 272 160 q 329 72 304 119 q 363 46 344 46 q 421 111 392 46 q 442 96 439 114 q 401 36 428 65 q 333 -1 368 -1 q 263 51 292 -1 q 210 135 222 124 q 54 -4 133 -4 q 0 40 0 -4 q 53 133 0 89 q 171 178 106 178 q 196 176 182 178 q 217 219 208 203 l 164 219 q 151 232 151 219 q 164 244 151 244 l 232 244 q 290 315 258 285 q 225 353 257 335 q 142 376 183 376 q 90 356 111 376 q 69 311 69 336 q 75 282 69 292 q 64 276 72 279 q 50 278 56 275 q 43 311 43 293 q 87 390 43 351 q 183 429 131 429 q 272 397 226 429 q 326 364 317 364 q 431 415 390 415 q 460 397 460 415 m 183 150 q 158 154 171 154 q 83 115 115 154 q 54 51 54 83 q 72 24 54 24 q 183 150 118 24 m 497 653 q 428 589 496 650 q 304 461 347 519 l 288 461 q 265 590 288 519 q 244 653 244 657 q 247 654 246 654 q 289 600 260 654 q 319 531 315 551 q 424 612 364 569 q 493 654 485 654 q 497 653 497 654 z "},"":{"ha":582,"x_min":-94,"x_max":611,"o":"m 611 569 q 594 523 611 544 q 551 501 576 501 q 504 556 504 501 q 522 602 504 581 q 564 624 539 624 q 611 569 611 624 m 553 408 q 463 225 507 317 q 392 51 392 76 q 406 33 392 33 q 468 68 426 33 q 521 119 503 96 q 532 116 525 121 q 538 104 539 111 q 483 46 519 76 q 382 -1 428 -1 q 313 65 313 -1 q 394 275 313 100 q 233 233 340 233 q 200 233 222 233 q 167 235 175 235 q -33 -249 82 26 q -76 -281 -42 -267 q -90 -278 -86 -283 q -92 -257 -94 -274 q 88 236 -85 -219 q 57 236 65 236 q 26 236 18 236 q 13 249 13 238 q 47 272 13 256 q 117 314 93 296 l 167 444 q 299 679 215 565 q 474 815 400 815 q 521 767 521 815 q 356 488 521 672 q 215 354 279 404 l 183 278 q 253 276 224 276 q 432 353 400 276 l 439 369 q 429 385 446 385 q 399 406 399 385 q 424 425 399 426 q 536 431 482 421 q 552 426 546 432 q 553 408 558 419 m 474 767 q 457 789 474 789 q 329 628 415 789 q 235 404 313 594 q 357 543 306 474 q 474 767 474 703 z "},"":{"ha":597,"x_min":-94,"x_max":796,"o":"m 796 757 q 758 644 796 717 q 675 518 724 578 q 488 347 588 413 q 367 44 367 79 q 386 24 367 24 q 463 56 417 24 q 518 101 503 82 q 538 85 538 99 q 482 35 519 60 q 375 -1 428 -1 q 301 64 301 -1 q 375 286 301 110 q 193 233 283 233 q 167 235 179 233 q -33 -249 82 26 q -76 -281 -42 -267 q -90 -278 -86 -283 q -92 -257 -94 -274 q 88 236 -85 -219 q 57 236 65 236 q 26 236 18 236 q 13 249 13 238 q 47 272 13 256 q 117 314 93 296 l 167 444 q 299 679 215 565 q 474 815 400 815 q 521 767 521 815 q 356 488 521 672 q 215 354 279 404 l 183 278 q 211 276 199 276 q 390 322 293 276 q 504 558 453 468 q 625 728 560 657 q 753 808 700 808 q 796 757 796 808 m 746 758 q 733 774 746 774 q 667 703 717 774 q 582 556 617 633 l 511 401 q 658 565 599 474 q 746 758 746 704 m 474 767 q 457 789 474 789 q 329 628 415 789 q 235 404 313 594 q 357 543 306 474 q 474 767 474 703 z "},"":{"ha":2351,"x_min":32,"x_max":2311,"o":"m 2311 739 q 2290 724 2311 728 q 2260 718 2275 721 q 2181 676 2224 707 q 2121 626 2164 665 q 2065 578 2078 588 q 2032 567 2049 567 q 1996 638 1996 567 q 1994 640 1996 639 q 1924 569 1981 635 q 1865 504 1868 504 q 1861 515 1861 507 q 1996 671 1861 538 q 1996 681 1996 674 q 1997 689 1997 686 q 1985 707 1997 707 q 1924 653 1974 707 q 1846 599 1875 599 q 1825 603 1836 599 q 1751 565 1793 565 q 1705 590 1721 565 q 1693 642 1689 615 q 1622 596 1650 596 q 1603 600 1613 596 q 1532 565 1568 565 q 1482 633 1482 565 q 1482 636 1482 635 q 1367 567 1413 567 q 1303 636 1303 567 q 1304 651 1303 643 q 1208 569 1236 569 q 1161 600 1179 569 q 1144 656 1146 624 q 1201 697 1165 664 q 1238 749 1238 729 q 1232 753 1238 753 q 1194 731 1219 753 q 1086 557 1121 664 q 1057 588 1057 568 q 1071 643 1057 604 q 975 567 1003 567 q 944 610 944 567 q 949 653 944 631 q 854 567 896 567 q 821 610 821 567 q 878 761 821 685 q 908 788 897 788 q 938 781 918 788 q 957 768 957 775 q 918 715 938 742 q 881 626 881 660 q 886 618 881 618 q 962 701 906 618 q 1021 783 1018 783 q 1054 776 1032 786 q 1076 754 1076 765 q 1030 694 1057 738 q 1003 631 1003 650 q 1011 618 1003 618 q 1088 689 1022 618 q 1164 853 1121 772 q 1236 953 1210 939 q 1254 957 1244 957 q 1300 943 1288 957 q 1307 929 1308 936 q 1301 919 1307 924 q 1233 846 1276 903 q 1160 728 1188 783 q 1244 794 1218 794 q 1297 733 1297 794 q 1267 682 1297 710 q 1211 650 1236 654 q 1228 610 1211 610 q 1265 640 1238 610 q 1314 694 1289 668 q 1425 796 1350 796 q 1463 781 1446 796 q 1481 743 1481 765 q 1440 681 1481 706 q 1368 663 1400 657 q 1363 632 1363 644 q 1383 596 1363 596 q 1485 663 1422 596 q 1576 874 1499 767 q 1665 942 1625 942 q 1713 921 1706 942 q 1704 907 1714 914 q 1581 763 1626 857 q 1582 761 1581 760 q 1617 774 1596 774 q 1664 722 1664 774 q 1621 619 1664 674 q 1663 640 1632 611 q 1697 678 1681 658 q 1751 768 1713 729 q 1833 807 1790 807 q 1874 794 1857 807 q 1896 753 1896 779 q 1844 628 1896 692 q 1853 625 1847 625 q 1915 678 1874 625 q 1975 740 1939 710 q 2028 769 2011 769 q 2056 740 2056 769 q 2054 728 2056 736 q 2054 719 2054 721 q 2054 715 2054 717 l 2075 736 q 2172 811 2153 811 q 2188 803 2178 811 q 2197 789 2197 794 l 2196 789 q 2157 765 2183 782 q 2053 683 2099 726 q 2049 646 2049 660 q 2063 611 2049 611 q 2153 687 2071 611 q 2286 763 2235 763 q 2311 739 2311 763 m 824 1260 q 807 1244 824 1244 q 800 1244 803 1244 q 781 1195 794 1229 q 678 1161 768 1161 q 569 1197 583 1160 l 553 1243 q 551 1243 553 1243 q 535 1258 535 1243 q 551 1274 535 1274 q 569 1258 569 1274 q 567 1251 569 1254 l 592 1235 l 603 1290 q 588 1307 588 1293 q 606 1322 588 1322 q 622 1307 622 1322 q 614 1293 622 1297 l 644 1244 l 675 1336 q 663 1351 663 1339 q 681 1367 663 1367 q 697 1351 697 1367 q 685 1336 697 1339 l 710 1242 l 742 1292 q 733 1306 733 1296 q 750 1321 733 1321 q 768 1306 768 1321 q 751 1289 768 1290 l 754 1235 l 790 1254 q 789 1260 789 1257 q 807 1275 789 1275 q 824 1260 824 1275 m 2085 490 l 1446 114 l 790 488 l 1446 324 l 2085 490 m 736 729 q 736 738 738 735 q 718 733 732 743 q 610 692 693 718 q 422 658 497 657 q 221 800 221 664 q 397 1017 221 906 q 717 1122 569 1126 q 854 943 854 1118 q 682 453 854 728 q 407 135 567 269 q 136 0 247 0 q 65 22 94 0 q 32 85 32 46 q 264 369 32 189 q 490 514 350 438 q 657 594 607 578 q 682 619 669 600 q 736 729 733 699 m 1867 742 q 1860 751 1867 751 q 1828 715 1844 751 q 1811 658 1811 678 q 1822 636 1811 642 q 1850 687 1833 649 q 1867 742 1867 725 m 1806 618 q 1783 678 1783 636 q 1789 719 1783 697 q 1786 721 1788 721 q 1751 626 1751 683 q 1771 599 1751 599 q 1806 618 1794 599 m 1604 718 q 1594 732 1604 732 q 1576 708 1583 732 q 1569 668 1569 683 q 1581 633 1569 642 q 1604 718 1604 668 m 1568 614 q 1547 664 1547 628 q 1551 699 1547 651 q 1546 694 1551 697 q 1528 621 1528 657 q 1544 592 1528 592 q 1568 614 1556 592 m 1454 735 q 1442 750 1454 750 q 1375 685 1397 750 q 1426 703 1397 686 q 1454 735 1454 719 m 2000 450 l 1446 217 l 1446 129 l 2000 450 m 1446 221 l 1446 311 l 886 456 l 1446 221 m 772 826 q 794 954 794 897 q 769 1022 794 1007 q 722 1033 751 1033 q 479 949 640 1033 q 342 856 397 906 q 286 778 286 807 q 357 750 286 750 q 563 778 439 750 q 676 813 622 792 q 726 832 724 832 q 748 822 738 832 q 761 813 758 813 q 772 826 767 814 m 593 482 q 483 422 583 485 q 297 294 378 357 q 147 158 208 226 q 90 71 90 96 q 106 60 90 60 q 228 117 142 60 q 393 248 315 174 q 538 400 471 322 q 593 482 604 478 z "},"":{"ha":292,"x_min":22,"x_max":267,"o":"m 263 408 q 172 225 217 317 q 100 51 100 76 q 115 33 100 33 q 178 68 136 33 q 231 119 213 96 q 242 116 235 121 q 247 104 249 111 q 193 46 228 76 q 92 -1 138 -1 q 22 65 22 -1 q 88 238 22 93 q 149 369 114 292 q 139 385 154 385 q 108 406 108 385 q 132 425 108 426 q 246 431 192 421 q 261 426 256 432 q 263 408 267 419 z "},"":{"ha":401,"x_min":63,"x_max":356,"o":"m 356 1076 q 172 958 263 958 q 92 996 121 958 q 63 1081 63 1033 q 68 1088 63 1088 q 82 1061 69 1088 q 182 1001 108 1001 q 294 1041 236 1001 q 349 1081 353 1081 q 356 1076 356 1081 z "},"":{"ha":314,"x_min":125,"x_max":200,"o":"m 200 1063 q 154 1011 200 1011 q 125 1044 125 1011 q 167 1092 125 1092 q 200 1063 200 1092 z "},"":{"ha":336,"x_min":63,"x_max":275,"o":"m 275 1021 q 236 934 275 972 q 147 896 197 896 q 87 918 111 896 q 63 976 63 940 q 102 1065 63 1026 q 192 1103 142 1103 q 251 1080 228 1103 q 275 1021 275 1057 m 238 1013 q 183 1065 238 1065 q 126 1041 151 1065 q 100 985 100 1017 q 154 932 100 932 q 212 957 186 932 q 238 1013 238 982 z "},"":{"ha":361,"x_min":43,"x_max":325,"o":"m 325 1076 q 258 972 325 1036 q 167 908 190 908 q 161 913 161 910 q 185 935 161 917 q 227 979 213 958 q 258 1061 242 1000 q 297 1101 269 1101 q 325 1076 325 1101 m 206 1076 q 138 972 206 1036 q 49 908 71 908 q 43 913 43 910 q 65 935 43 917 q 108 979 94 958 q 140 1061 122 1000 q 178 1101 151 1101 q 206 1076 206 1101 z "},"":{"ha":357,"x_min":44,"x_max":285,"o":"m 285 -6 q 90 -151 90 -56 q 153 -211 90 -211 q 235 -190 194 -211 q 272 -168 275 -168 q 279 -176 279 -168 q 239 -208 279 -186 q 131 -235 189 -235 q 67 -212 90 -235 q 44 -161 44 -190 q 132 -51 44 -103 q 285 4 203 -10 l 285 -6 z "},"":{"ha":356,"x_min":64,"x_max":317,"o":"m 317 1100 q 247 1036 317 1097 q 124 908 167 967 l 107 908 q 85 1038 107 967 q 64 1100 64 1104 q 67 1101 65 1101 q 108 1047 79 1101 q 139 978 135 999 q 244 1059 183 1017 q 313 1101 304 1101 q 317 1100 317 1101 z "},"":{"ha":1851,"x_min":58,"x_max":2040,"o":"m 2036 1025 q 1771 560 1953 876 q 1665 369 1718 469 q 1776 367 1746 367 q 1871 375 1810 367 q 1875 347 1889 367 q 1643 326 1832 326 q 1619 282 1631 304 q 1711 142 1711 231 q 1665 35 1711 75 q 1561 -4 1618 -4 q 1477 32 1511 -4 q 1443 125 1443 68 q 1507 292 1443 174 q 1286 325 1418 318 q 486 -8 871 -8 q 193 65 311 -8 q 58 299 58 149 q 250 594 58 474 q 644 706 426 706 q 1008 614 875 706 q 1013 606 1013 610 q 988 589 1013 582 q 692 668 889 668 q 307 547 483 668 q 121 254 121 421 q 228 82 121 149 q 471 21 328 21 q 1235 326 851 21 l 1101 329 l 524 332 q 478 332 485 332 q 464 346 464 335 q 502 380 464 358 q 571 401 540 401 q 836 393 592 401 q 1214 381 1110 383 l 1299 379 q 1360 435 1335 410 q 1954 1018 1649 718 q 2011 1046 1976 1038 q 2040 1038 2040 1053 q 2036 1025 2040 1033 m 1911 932 l 1900 933 q 1718 744 1890 922 q 1464 485 1535 556 q 1349 378 1410 431 l 1551 372 q 1686 585 1593 440 l 1911 932 m 1650 165 q 1603 249 1650 213 q 1524 58 1524 92 q 1558 18 1524 18 q 1620 64 1590 18 q 1650 165 1650 110 z "},"":{"ha":1803,"x_min":90,"x_max":1949,"o":"m 1514 593 q 1553 599 1535 596 q 1592 601 1572 601 q 1740 551 1686 601 q 1793 411 1793 500 q 1758 272 1793 343 q 1667 143 1722 201 q 1542 47 1611 85 q 1406 10 1474 10 q 1254 143 1254 10 q 1277 210 1254 181 q 1332 239 1300 239 q 1393 169 1393 239 q 1378 122 1393 140 q 1344 95 1363 104 q 1311 82 1326 86 q 1296 76 1296 78 q 1322 53 1296 65 q 1378 42 1349 42 q 1486 75 1429 42 q 1590 160 1543 108 q 1668 277 1638 213 q 1699 404 1699 342 q 1653 524 1699 479 q 1546 568 1608 568 q 1469 551 1508 568 q 1403 517 1433 536 q 1386 481 1394 496 q 1360 425 1367 439 l 1332 372 q 1210 212 1282 278 q 1021 90 1138 146 q 606 -6 822 -6 q 392 17 488 -6 q 230 82 297 40 q 126 183 163 124 q 90 314 90 242 q 137 459 90 389 q 262 584 183 529 q 442 672 340 639 q 657 704 544 704 q 779 694 719 704 l 779 696 q 865 828 803 765 q 1014 940 926 892 q 1207 1016 1101 988 q 1422 1044 1313 1044 q 1672 990 1510 1044 q 1802 950 1756 963 q 1858 938 1849 938 q 1926 982 1899 938 q 1936 985 1931 985 q 1949 971 1949 985 q 1932 931 1949 950 q 1890 896 1915 911 q 1833 871 1864 881 q 1776 861 1803 861 q 1556 925 1729 861 q 1274 989 1385 989 q 1133 963 1204 989 q 999 894 1061 936 q 889 798 936 851 q 822 689 842 744 l 821 688 q 897 667 860 679 q 1097 572 1011 631 l 1100 564 q 1083 553 1100 553 q 1071 556 1082 553 q 815 660 967 625 q 810 622 810 633 q 828 542 810 582 l 828 539 q 818 531 828 531 q 799 543 807 531 q 785 572 790 556 q 776 606 779 589 q 774 633 774 624 l 774 646 q 775 660 774 653 l 775 665 q 735 669 750 668 q 696 671 715 671 q 500 640 596 671 q 329 556 404 608 q 209 438 254 504 q 164 299 164 371 q 195 183 164 233 q 285 97 226 132 q 426 42 343 61 q 615 24 510 24 q 962 110 810 25 q 1218 371 1114 194 l 1249 422 q 1299 517 1272 467 q 1353 612 1326 567 q 1403 694 1379 657 q 1447 751 1428 732 q 1494 793 1465 771 q 1554 834 1524 815 q 1612 865 1585 853 q 1654 876 1639 876 q 1667 868 1667 876 q 1649 850 1667 856 q 1598 822 1622 839 q 1549 775 1574 804 q 1497 702 1524 746 q 1440 594 1471 658 q 1426 565 1433 579 q 1460 579 1443 572 q 1514 593 1492 592 z "},"":{"ha":1494,"x_min":25,"x_max":1611,"o":"m 1611 903 q 1474 671 1611 781 q 1206 528 1367 585 q 1282 535 1244 535 q 1429 485 1378 535 q 1476 363 1476 439 q 1358 119 1476 240 q 1100 -4 1236 -4 q 953 117 953 -4 q 975 178 953 151 q 1028 206 997 206 q 1088 142 1088 206 q 1063 85 1088 107 q 1010 64 1039 64 q 992 57 992 64 q 1013 39 992 50 q 1072 25 1039 25 q 1273 126 1174 25 q 1372 347 1372 228 q 1324 460 1372 419 q 1224 496 1282 496 q 1156 488 1181 496 q 1135 476 1144 482 q 1124 485 1128 476 q 1122 500 1119 493 q 1167 518 1133 510 q 1160 526 1160 521 q 1171 538 1160 533 q 1393 676 1293 586 q 1518 910 1518 792 q 1483 986 1518 961 q 1333 1014 1440 1014 q 813 883 1108 1014 q 318 564 518 751 q 99 172 99 357 q 158 60 99 101 q 317 19 217 19 q 633 122 478 19 q 858 339 763 207 q 1036 607 896 392 q 1193 828 1147 778 q 1336 947 1304 947 q 1353 933 1353 947 q 1326 907 1353 931 q 1265 838 1292 875 q 1156 642 1211 740 q 965 356 1057 467 q 307 -10 667 -10 q 101 52 178 -10 q 25 222 25 114 q 253 601 25 401 q 771 913 463 786 q 1336 1042 1086 1042 q 1611 903 1611 1042 z "},"":{"ha":1632,"x_min":90,"x_max":1951,"o":"m 793 664 q 735 669 756 668 q 696 671 715 671 q 319 551 483 671 q 164 299 164 438 q 303 86 164 158 q 615 24 421 24 q 1218 371 1006 24 l 1249 422 q 1301 519 1275 471 q 1356 615 1328 567 q 1447 751 1408 710 q 1568 842 1493 801 q 1649 876 1621 872 q 1667 868 1667 878 q 1649 850 1667 856 q 1507 719 1579 821 q 1440 594 1483 686 q 1387 481 1407 524 q 1360 425 1367 439 l 1332 372 q 1271 278 1301 314 q 1021 90 1185 169 q 606 -6 822 -6 q 229 82 368 -6 q 90 314 90 171 q 251 578 90 458 q 657 704 421 704 q 721 702 689 704 q 783 694 753 700 q 1097 572 965 660 q 1100 564 1100 567 q 1083 553 1100 553 q 1071 556 1079 553 q 793 664 961 631 m 822 689 q 810 622 810 640 q 828 542 810 583 q 821 531 829 532 q 801 538 813 529 q 774 633 774 585 q 774 647 774 640 q 775 660 774 653 l 779 696 q 993 929 824 828 q 1422 1044 1183 1044 q 1672 990 1510 1044 q 1858 938 1839 938 q 1926 982 1899 938 q 1943 983 1936 988 q 1947 963 1951 976 q 1894 900 1932 926 q 1776 861 1843 861 q 1556 925 1731 861 q 1274 989 1382 989 q 999 896 1135 989 q 822 689 861 803 z "},"":{"ha":1710,"x_min":40,"x_max":1743,"o":"m 1743 569 q 1513 158 1743 322 q 958 -1 1288 -1 q 627 40 835 -1 q 246 81 419 81 q 61 14 144 81 q 46 17 51 10 q 44 35 40 24 q 139 103 71 67 q 340 154 236 154 q 730 101 465 154 q 1106 47 994 47 q 1461 179 1300 47 q 1640 549 1640 328 q 1504 817 1640 706 q 1374 601 1465 768 q 1219 342 1274 418 q 1501 493 1347 389 q 1524 482 1524 500 q 1521 472 1524 478 q 1176 283 1389 360 q 1085 181 1143 235 q 974 100 1019 118 q 956 107 956 93 q 967 122 956 115 q 1090 254 1033 161 q 715 200 903 200 q 315 303 469 200 q 156 582 156 408 q 407 900 156 756 q 940 1043 654 1043 q 1536 904 1308 1043 q 1667 967 1617 960 q 1672 958 1672 965 q 1665 947 1671 951 q 1569 882 1624 926 q 1743 569 1743 760 m 1464 847 q 899 989 1254 989 q 394 856 610 989 q 193 586 193 731 q 356 357 193 443 q 764 274 514 274 q 1122 311 974 274 q 1274 593 1197 451 q 1464 847 1365 751 z "},"":{"ha":985,"x_min":53,"x_max":1156,"o":"m 1156 965 q 988 797 1156 863 q 618 729 839 739 q 607 675 607 700 q 626 625 607 643 q 794 638 713 638 q 935 626 881 638 q 989 597 989 614 q 936 565 989 579 q 817 551 883 551 q 625 593 707 551 q 296 423 429 547 q 163 169 163 299 q 360 33 163 33 q 988 286 729 33 q 1001 267 1007 286 q 714 67 910 143 q 365 -3 536 -3 q 125 64 207 -3 q 53 229 53 125 q 218 482 53 372 q 588 618 365 579 q 532 728 533 663 q 293 779 421 732 q 150 856 181 819 q 153 869 147 863 q 165 875 158 875 q 282 815 192 850 q 533 758 404 767 q 701 956 553 865 q 1011 1046 850 1046 q 1156 965 1156 1046 m 1101 976 q 1032 1019 1101 1019 q 797 936 922 1019 q 629 757 681 856 q 947 836 792 765 q 1101 976 1101 907 z "},"":{"ha":1976,"x_min":29,"x_max":2238,"o":"m 1260 306 q 1209 219 1226 256 q 1183 163 1192 183 q 1148 47 1156 96 q 1147 -36 1140 -3 q 1133 -49 1144 -46 q 1113 -47 1122 -51 q 1113 57 1101 -24 q 1147 176 1124 106 q 1199 307 1171 246 q 1238 386 1218 347 q 1281 464 1257 425 q 1286 474 1283 469 l 1176 471 q 1133 397 1157 433 q 1081 329 1108 361 q 949 198 1018 254 q 800 94 879 142 q 497 -4 636 -4 q 417 24 449 -4 q 385 97 385 51 q 412 164 385 138 q 472 190 439 190 q 542 128 542 190 q 514 72 542 94 q 454 49 486 49 l 438 51 q 431 47 431 51 q 447 29 431 39 q 492 19 464 19 q 761 125 614 19 q 1015 378 900 222 q 1045 423 1031 400 q 1074 469 1060 446 l 1101 521 q 1167 673 1142 599 q 1193 804 1193 747 q 915 1011 1193 1011 q 532 894 742 1011 q 356 775 440 843 q 206 636 271 707 q 103 498 142 565 q 64 379 64 431 q 97 291 64 325 q 182 257 129 257 q 622 469 361 257 q 924 819 864 667 q 932 821 926 821 q 946 817 939 821 q 954 807 953 814 q 654 440 889 638 q 206 226 399 226 q 76 268 124 226 q 29 389 29 310 q 154 669 29 513 q 471 928 281 825 q 903 1043 686 1043 q 1172 978 1076 1043 q 1268 794 1268 914 q 1251 675 1268 749 q 1199 521 1235 601 q 1254 520 1226 521 q 1314 519 1282 519 q 1365 599 1336 554 q 1420 688 1393 644 q 1468 767 1447 731 q 1497 821 1489 803 q 1518 878 1510 850 q 1533 926 1526 906 q 1536 976 1536 954 q 1532 1015 1536 999 q 1549 1032 1536 1032 q 1561 1018 1557 1031 q 1567 987 1565 1006 q 1566 944 1568 968 q 1558 899 1564 921 q 1532 808 1550 856 q 1494 707 1514 760 q 1453 626 1479 675 q 1394 521 1426 578 q 1517 525 1454 521 q 1597 648 1554 588 q 1685 760 1640 708 q 1774 854 1731 813 q 1857 922 1818 896 q 1999 1000 1932 972 q 2128 1028 2065 1028 q 2209 1003 2181 1028 q 2238 938 2238 978 q 2230 897 2238 917 q 2210 862 2222 878 q 2180 837 2197 846 q 2144 828 2163 828 q 2083 896 2083 828 q 2110 958 2083 931 q 2169 986 2136 986 q 2179 993 2179 986 q 2142 1006 2179 1006 q 1838 821 2014 1006 q 1726 689 1782 763 q 1590 479 1669 615 q 1564 431 1576 456 q 1540 381 1551 406 q 1464 111 1464 218 q 1488 48 1464 72 q 1547 24 1511 24 q 1648 47 1589 24 q 1766 108 1707 71 q 1876 188 1825 144 q 1954 272 1926 232 l 1957 272 q 1976 256 1974 272 q 1904 168 1956 214 q 1790 84 1853 122 q 1663 20 1728 46 q 1549 -6 1597 -6 q 1477 10 1506 -6 q 1431 51 1449 25 q 1407 110 1414 76 q 1400 179 1400 143 q 1407 263 1400 221 q 1425 339 1414 304 q 1453 406 1438 372 q 1489 476 1469 440 q 1435 476 1465 476 q 1368 475 1406 475 q 1315 389 1343 432 q 1260 306 1288 346 z "},"":{"ha":944,"x_min":65,"x_max":1197,"o":"m 922 1063 q 774 1047 851 1063 q 624 1002 697 1031 q 485 935 551 974 q 368 851 418 897 q 285 704 285 776 q 298 660 285 679 q 333 629 311 642 q 382 610 354 617 q 439 604 410 604 q 535 616 486 604 q 632 649 585 628 q 722 697 679 669 q 800 757 764 725 q 827 785 814 769 q 851 815 840 801 q 867 837 861 828 q 876 846 874 846 q 887 842 883 846 q 890 835 890 838 q 856 785 879 811 q 799 728 832 758 q 616 602 711 647 q 429 557 521 557 q 362 567 393 557 q 307 594 331 576 q 269 637 283 613 q 256 689 256 661 q 285 782 256 735 q 368 878 315 829 q 488 967 421 928 q 628 1033 554 1006 q 780 1076 703 1061 q 931 1090 857 1090 q 1047 1072 997 1090 q 1131 1024 1097 1054 q 1181 955 1164 994 q 1197 874 1197 915 q 1158 748 1197 807 q 1055 641 1119 689 q 907 554 990 593 q 765 500 838 522 q 861 421 831 469 q 899 301 899 364 q 862 172 899 235 q 760 62 825 110 q 606 -15 696 14 q 410 -43 515 -43 q 281 -24 343 -43 q 170 31 218 -4 q 94 114 122 65 q 65 222 65 163 q 92 304 65 269 q 160 339 119 339 q 212 319 192 339 q 232 276 232 300 q 211 214 232 232 q 165 191 190 196 q 119 187 140 186 q 99 182 99 188 q 101 165 99 175 q 108 146 104 156 q 117 128 113 136 q 125 118 122 121 q 250 24 183 51 q 385 -4 317 -4 q 546 31 468 -4 q 685 119 624 65 q 783 238 746 174 q 819 360 819 301 q 793 443 819 406 q 736 492 774 471 q 667 479 701 483 q 600 475 632 475 q 528 479 554 475 q 500 496 503 483 q 514 510 501 503 q 545 522 526 517 q 587 530 564 526 q 632 533 610 533 q 685 528 660 533 q 736 513 711 522 q 867 578 804 538 q 978 669 931 618 q 1055 780 1026 719 q 1083 904 1083 840 q 1073 964 1083 935 q 1042 1015 1063 993 q 992 1049 1022 1036 q 922 1063 963 1063 z "},"":{"ha":1704,"x_min":56,"x_max":1813,"o":"m 1806 1008 q 1586 547 1742 874 q 1397 61 1397 144 q 1406 41 1397 51 q 1426 31 1415 31 q 1578 132 1483 31 q 1694 288 1651 213 q 1713 294 1704 294 q 1722 283 1722 293 q 1615 118 1688 203 q 1419 -1 1513 -1 q 1314 101 1314 -1 q 1451 478 1314 207 q 1286 274 1350 344 q 881 -8 1031 -8 q 775 101 775 -8 q 885 371 775 185 q 1088 690 886 375 q 1197 911 1197 863 q 1142 983 1197 954 q 1004 1013 1088 1013 q 561 896 785 1013 q 232 647 368 797 q 104 411 104 506 q 239 292 104 292 q 456 338 336 292 q 682 467 581 386 q 886 679 789 551 q 992 850 971 790 q 1019 896 1007 896 q 1028 879 1028 896 q 1021 844 1028 865 q 929 675 1001 781 q 704 433 832 535 q 467 301 597 349 q 246 260 349 260 q 56 426 56 260 q 182 694 56 549 q 506 935 308 839 q 957 1040 725 1040 q 1261 860 1261 1040 q 1151 589 1261 776 q 947 268 1119 535 q 836 63 836 99 q 896 24 836 24 q 1058 108 947 24 q 1263 308 1168 193 q 1575 718 1396 471 l 1714 990 q 1747 1019 1721 1010 q 1803 1039 1801 1039 q 1813 1029 1813 1039 q 1806 1008 1813 1022 z "},"":{"ha":1704,"x_min":56,"x_max":1813,"o":"m 1806 1008 q 1786 968 1801 1000 q 1750 892 1771 936 q 1704 794 1729 847 q 1656 693 1679 742 q 1613 606 1632 644 q 1586 547 1594 567 q 1444 224 1490 344 q 1397 61 1397 103 q 1406 41 1397 51 q 1426 31 1415 31 q 1485 54 1450 31 q 1559 115 1521 78 q 1633 197 1597 151 q 1694 288 1669 243 q 1713 294 1706 294 q 1722 283 1722 293 q 1663 180 1699 231 q 1585 89 1626 129 q 1500 24 1543 49 q 1419 -1 1457 -1 q 1314 101 1314 -1 q 1451 478 1314 207 q 1359 360 1400 411 q 1286 274 1318 310 q 881 -8 1029 -8 q 775 101 775 -8 q 885 371 775 186 q 936 453 886 374 q 1088 690 986 532 q 1197 911 1197 863 q 1183 951 1197 932 q 1142 983 1168 969 q 1081 1005 1117 997 q 1004 1013 1046 1013 q 561 896 783 1013 q 388 786 471 850 q 242 656 306 722 q 142 524 179 589 q 104 411 104 460 q 239 292 104 292 q 346 305 289 292 q 461 341 403 318 q 576 396 519 364 q 682 467 633 428 q 778 557 728 504 q 872 665 828 610 q 948 769 915 719 q 992 850 981 818 q 1019 896 1006 896 q 1028 879 1028 896 q 1000 793 1028 849 q 926 674 972 738 q 822 546 881 610 q 704 433 764 482 q 597 361 654 393 q 479 307 539 329 q 360 272 419 285 q 246 260 300 260 q 56 426 56 260 q 90 557 56 488 q 184 694 124 626 q 327 825 244 763 q 506 935 410 888 q 957 1040 722 1040 q 1261 860 1261 1040 q 1151 589 1261 775 q 1138 569 1151 590 q 1103 515 1125 549 q 1052 436 1081 481 q 994 344 1024 392 q 937 251 965 297 q 886 165 908 204 q 850 99 864 126 q 836 63 836 71 q 896 24 836 24 q 964 47 921 24 q 1058 110 1007 71 q 1163 201 1110 150 q 1263 308 1217 253 q 1407 492 1329 390 q 1575 718 1485 593 l 1714 990 q 1734 1013 1718 1003 q 1767 1028 1750 1022 q 1795 1036 1783 1033 q 1803 1039 1807 1039 q 1813 1029 1813 1039 q 1806 1008 1813 1025 m 1446 1214 q 1463 1193 1451 1210 q 1496 1147 1475 1176 q 1550 1115 1518 1115 q 1646 1194 1597 1115 q 1679 1176 1675 1199 q 1652 1139 1668 1157 q 1614 1103 1636 1121 q 1503 1057 1560 1057 q 1429 1076 1457 1057 q 1394 1120 1401 1094 q 1399 1172 1386 1146 q 1446 1214 1411 1199 z "},"":{"ha":1840,"x_min":68,"x_max":2072,"o":"m 2072 1022 q 2056 1014 2072 1013 q 2033 1016 2051 1014 q 2001 1018 2014 1018 q 1842 921 1929 1018 q 1693 721 1799 872 q 1553 549 1603 590 q 1394 446 1476 486 q 1306 413 1336 418 q 1289 408 1293 411 q 1293 399 1288 406 q 1519 125 1381 286 q 1688 40 1603 40 q 1811 103 1750 40 q 1829 85 1829 101 q 1769 33 1811 56 q 1643 4 1714 4 q 1306 217 1469 4 q 1228 313 1247 292 q 1154 365 1189 354 q 833 92 1025 189 q 419 -6 640 -6 q 168 50 263 -6 q 68 221 68 111 q 218 451 68 354 q 638 556 381 556 q 829 529 761 556 q 832 514 835 524 q 822 503 831 506 q 669 525 771 525 q 301 428 471 525 q 124 186 124 324 q 201 68 124 114 q 390 22 278 22 q 1000 294 756 22 q 1181 569 1063 364 q 1356 824 1290 763 q 1475 922 1406 872 q 1249 874 1338 874 q 912 935 1181 874 q 531 996 643 996 q 237 886 368 996 q 106 653 106 776 q 114 593 106 621 q 104 585 111 588 q 92 588 96 583 q 75 679 75 619 q 260 951 75 849 q 628 1042 419 1042 q 1013 996 719 1042 q 1357 950 1307 950 q 1589 1000 1496 950 q 1599 990 1594 999 q 1597 975 1601 981 q 1514 938 1581 963 q 1506 915 1521 926 q 1419 828 1468 889 q 1329 664 1399 803 q 1190 418 1250 508 q 1451 547 1338 432 q 1593 735 1482 578 q 1772 947 1694 879 q 2004 1047 1886 1047 q 2072 1022 2072 1047 z "},"":{"ha":1888,"x_min":68,"x_max":1963,"o":"m 1888 1025 q 1935 1042 1900 1033 q 1963 1031 1963 1049 q 1957 1021 1963 1026 q 1818 794 1918 986 q 1785 737 1799 763 q 1760 685 1772 711 q 1732 629 1747 660 q 1696 557 1717 599 q 1561 267 1621 410 q 1496 64 1496 107 q 1531 26 1496 26 q 1708 115 1597 26 q 1850 265 1814 199 q 1876 251 1871 271 q 1817 174 1854 214 q 1724 90 1779 133 q 1531 -3 1606 -3 q 1406 129 1406 -3 q 1451 292 1406 193 q 1558 489 1481 357 q 1750 806 1650 640 l 1801 904 q 1635 722 1736 833 q 1394 456 1533 611 q 1032 163 1247 286 q 458 -3 746 -3 q 181 71 288 -3 q 68 285 68 147 q 294 611 68 476 q 790 740 511 740 q 1021 713 914 740 q 1129 665 1101 689 q 1119 657 1131 661 q 1096 656 1108 653 q 807 708 997 708 q 349 563 567 708 q 129 258 129 418 q 463 28 129 28 q 949 157 696 28 q 1353 464 1183 275 q 1715 858 1582 718 q 1888 1025 1849 997 z "},"":{"ha":2174,"x_min":68,"x_max":2267,"o":"m 2251 1021 q 1992 557 2139 847 q 1857 267 1917 410 q 1792 64 1792 108 q 1826 26 1792 26 q 2004 115 1892 26 q 2146 265 2111 199 q 2172 251 2167 272 q 2019 90 2129 176 q 1826 -3 1901 -3 q 1701 129 1701 -3 q 1747 292 1701 193 q 1854 489 1776 357 q 2046 806 1946 640 l 2031 796 q 1725 393 1932 663 q 1489 140 1636 283 q 1342 7 1369 25 q 1321 1 1328 -3 q 1322 26 1311 7 q 1456 260 1360 85 q 1676 678 1576 506 q 1811 903 1736 779 l 1801 904 q 1394 456 1672 765 q 1032 163 1246 285 q 458 -3 746 -3 q 181 71 286 -3 q 68 285 68 149 q 294 611 68 475 q 790 740 511 740 q 1021 713 917 740 q 1129 665 1100 690 q 1119 657 1131 661 q 1096 656 1108 653 q 807 708 999 708 q 349 563 568 708 q 129 258 129 418 q 463 28 129 28 q 949 157 697 28 q 1353 464 1183 276 q 1888 1025 1810 969 q 1935 1042 1900 1033 q 1963 1031 1963 1049 q 1957 1021 1963 1026 q 1818 794 1918 986 q 1590 347 1738 631 q 1469 164 1514 217 l 1474 160 q 1592 292 1493 176 q 1819 572 1717 438 q 2160 1008 1983 783 q 2210 1036 2169 1021 q 2244 1043 2231 1043 q 2251 1021 2267 1043 z "},"":{"ha":1703,"x_min":36,"x_max":1950,"o":"m 1601 1019 q 1481 956 1558 988 q 1297 913 1378 913 q 1014 954 1218 913 q 676 996 810 996 q 313 919 464 996 q 124 757 192 858 q 69 614 69 678 q 75 560 69 583 q 65 547 75 551 q 49 551 57 544 q 36 621 36 579 q 317 961 36 840 q 757 1051 526 1051 q 1106 1015 906 1051 q 1354 979 1307 979 q 1583 1042 1507 979 q 1603 1024 1603 1043 q 1601 1019 1603 1021 m 1950 985 q 1867 831 1950 917 q 1600 653 1772 732 q 1522 622 1565 638 q 1325 90 1325 283 q 1390 26 1325 26 q 1563 94 1463 26 q 1692 214 1644 151 q 1708 217 1701 219 q 1714 204 1715 214 q 1603 88 1678 147 q 1371 -3 1488 -3 q 1232 133 1232 -3 q 1408 585 1232 299 q 1254 547 1335 563 q 1039 265 1149 367 q 721 70 911 144 q 357 -4 531 -4 q 185 38 249 -4 q 121 154 121 79 q 242 361 121 264 q 582 518 364 458 q 886 568 710 553 q 1185 590 1035 579 q 1346 832 1247 690 q 1489 947 1396 890 q 1503 943 1499 949 q 1501 932 1507 938 q 1415 842 1456 906 q 1288 603 1379 774 q 1440 633 1371 615 q 1672 918 1554 806 q 1881 1042 1800 1042 q 1950 985 1950 1042 m 1899 986 q 1872 1015 1899 1015 q 1731 914 1822 1015 q 1551 669 1643 818 q 1764 792 1658 711 q 1899 986 1899 897 m 1142 526 q 811 485 1065 514 q 540 440 626 463 q 282 324 396 401 q 151 153 151 236 q 204 58 151 94 q 343 22 257 22 q 641 83 483 22 q 913 243 799 144 q 1142 526 1006 325 z "},"":{"ha":1208,"x_min":75,"x_max":1318,"o":"m 1318 779 q 1165 386 1318 575 q 810 103 1028 213 q 396 -6 593 -6 q 325 0 360 -6 q 381 -90 342 -47 q 372 -105 382 -99 q 353 -107 363 -111 q 288 7 306 -62 q 75 281 75 57 q 232 665 75 479 q 594 940 372 832 q 1003 1044 811 1044 q 1200 1015 1129 1044 q 1200 1001 1204 1008 q 1186 993 1194 994 q 1003 1015 1125 1015 q 626 892 832 1015 q 292 593 426 771 q 147 226 147 401 q 281 38 147 81 q 272 136 272 82 q 385 531 272 331 q 675 857 499 731 q 1058 992 864 992 q 1254 926 1183 992 q 1318 779 1318 868 m 1265 797 q 1207 919 1265 876 q 1058 963 1149 963 q 704 817 888 963 q 423 481 538 683 q 308 110 308 278 q 317 29 308 67 q 361 25 340 25 q 750 141 535 25 q 1108 429 965 257 q 1265 797 1265 618 z "},"":{"ha":1608,"x_min":-24,"x_max":1700,"o":"m 1368 463 q 1431 565 1394 507 q 1506 682 1468 622 q 1574 799 1543 742 q 1620 902 1606 857 q 1627 975 1635 947 q 1578 1003 1619 1003 q 1411 918 1525 1003 q 1295 826 1354 875 q 1186 718 1236 776 q 1114 635 1151 678 q 1035 543 1076 592 q 950 437 994 494 q 857 308 906 379 l 686 28 q 660 10 678 18 q 625 -2 642 1 q 598 -3 608 -6 q 594 10 588 -1 q 617 53 597 15 q 667 149 636 90 q 736 282 697 207 q 818 439 775 357 q 992 782 818 444 q 1081 1015 1085 967 q 1063 1053 1079 1036 q 1020 1080 1047 1069 q 958 1093 993 1090 q 881 1090 922 1096 q 449 917 663 1064 q 281 783 357 854 q 143 628 204 711 q 36 378 28 474 q 181 276 47 257 q 392 350 278 289 q 607 507 514 414 q 792 744 703 603 q 851 851 829 806 q 882 928 874 896 q 906 976 894 975 q 915 961 913 978 q 915 946 915 954 q 913 926 915 938 q 886 849 906 893 q 835 746 867 804 q 632 478 753 597 q 526 388 583 429 q 407 315 469 347 q 190 246 290 258 q -12 386 3 221 q 89 667 -24 507 q 389 949 203 828 q 831 1113 597 1081 q 1150 972 1135 1153 q 1065 690 1157 889 q 1056 672 1061 682 q 1044 648 1051 663 q 1027 613 1038 633 q 1001 564 1017 593 q 1092 674 1054 631 q 1164 753 1131 717 q 1409 965 1299 894 q 1594 1035 1519 1035 q 1696 925 1700 1035 q 1681 865 1694 904 q 1644 772 1668 825 q 1588 655 1621 718 q 1513 525 1554 592 q 1317 199 1390 326 q 1236 31 1243 72 q 1242 10 1235 21 q 1261 -1 1250 0 q 1425 93 1321 -4 q 1501 169 1467 132 q 1563 243 1536 207 q 1583 249 1574 249 q 1590 238 1592 247 q 1461 78 1546 160 q 1250 -32 1339 -37 q 1158 75 1143 -28 q 1179 140 1163 101 q 1224 229 1196 179 q 1288 338 1251 279 q 1368 463 1325 396 z "},"":{"ha":1453,"x_min":104,"x_max":1615,"o":"m 1615 768 q 1421 440 1615 593 q 1032 293 1232 293 q 990 294 1010 293 q 686 -119 878 51 q 306 -299 486 -299 q 164 -258 208 -299 q 183 -236 156 -237 q 294 -267 236 -267 q 516 -189 404 -267 q 725 29 628 -111 q 889 315 792 126 q 753 503 753 367 q 896 761 753 654 q 1088 851 997 838 q 1103 843 1099 850 q 1100 832 1107 838 q 943 738 1028 814 q 821 490 821 629 q 903 343 821 379 q 1001 533 953 438 q 1093 693 1056 635 q 1222 867 1161 799 q 1300 932 1279 932 q 1321 921 1321 932 q 1283 878 1304 900 q 1003 324 1221 801 l 1015 324 q 1365 492 1197 321 q 1525 804 1525 654 q 1249 1008 1525 1008 q 703 882 968 1008 q 297 572 454 764 q 140 188 140 381 q 153 94 140 140 q 138 76 156 76 q 125 79 131 76 q 104 235 104 125 q 282 660 104 464 q 703 942 442 835 q 1199 1043 954 1043 q 1615 768 1615 1043 z "},"":{"ha":1356,"x_min":47,"x_max":1601,"o":"m 1601 924 q 1374 632 1601 781 q 908 413 1194 514 q 524 307 672 329 q 489 165 489 226 q 542 65 489 101 q 676 29 594 29 q 1025 103 840 29 q 1314 265 1186 167 q 1335 247 1340 265 q 1058 79 1232 153 q 688 -7 860 -7 q 411 243 411 -7 q 417 296 411 267 q 354 293 381 293 q 154 328 247 293 q 51 392 75 357 q 54 408 47 403 q 75 413 61 413 q 360 329 179 329 q 425 332 388 329 q 651 668 469 497 q 1040 935 821 829 q 1438 1043 1265 1043 q 1561 1008 1517 1043 q 1601 924 1601 978 m 1557 946 q 1463 1014 1557 1014 q 932 793 1218 1014 q 544 351 669 590 q 894 467 669 376 q 1338 688 1165 575 q 1557 946 1557 831 z "},"":{"ha":2172,"x_min":-24,"x_max":2226,"o":"m 686 28 q 651 10 678 18 q 598 0 625 3 q 552 0 571 -3 q 540 14 533 3 q 626 158 575 78 q 736 335 676 239 q 861 544 796 432 q 992 782 926 656 q 1081 1015 1085 967 q 1063 1053 1079 1036 q 1020 1080 1047 1069 q 958 1093 993 1090 q 881 1090 922 1096 q 449 917 663 1064 q 281 783 357 854 q 143 628 204 711 q 36 378 28 474 q 181 276 47 257 q 392 350 278 289 q 607 507 514 414 q 792 744 703 603 q 851 851 829 806 q 882 928 874 896 q 906 976 894 975 q 915 961 913 978 q 915 946 915 954 q 913 926 915 938 q 886 849 906 893 q 835 746 867 804 q 632 478 753 597 q 526 388 583 429 q 407 315 469 347 q 190 246 290 258 q -12 386 3 221 q 89 667 -24 507 q 389 949 203 828 q 831 1113 597 1081 q 1150 972 1135 1153 q 1065 690 1157 889 q 1056 672 1061 682 q 1044 648 1051 663 q 1027 613 1038 633 q 1001 564 1017 593 q 1092 674 1054 631 q 1164 753 1131 717 q 1409 965 1299 894 q 1594 1035 1519 1035 q 1673 1008 1647 1035 q 1703 925 1699 981 q 1686 813 1706 881 q 1633 667 1667 746 q 1756 793 1690 729 q 1888 910 1822 857 q 2012 996 1953 963 q 2115 1029 2071 1029 q 2194 1002 2168 1029 q 2224 919 2219 975 q 2207 826 2226 881 q 2155 706 2188 771 q 2079 571 2122 642 q 1992 430 2036 500 q 1907 294 1949 360 q 1835 173 1865 228 q 1790 78 1806 118 q 1782 18 1774 38 q 1790 -1 1785 10 q 1807 -14 1796 -12 q 1971 81 1867 -17 q 2047 157 2013 119 q 2108 231 2082 194 q 2129 236 2119 236 q 2136 225 2138 235 q 2007 65 2092 147 q 1796 -44 1885 -50 q 1721 16 1740 -18 q 1712 101 1701 50 q 1758 225 1722 153 q 1851 397 1794 297 q 1979 631 1907 497 q 2135 939 2051 765 q 2138 962 2140 951 q 2126 980 2135 972 q 2103 989 2117 988 q 2074 985 2090 990 q 1992 938 2043 974 q 1875 844 1940 901 q 1734 712 1810 788 q 1579 544 1658 636 q 1494 378 1539 461 q 1406 224 1449 296 q 1329 97 1364 153 q 1276 15 1294 42 q 1238 1 1267 6 q 1181 -1 1210 -3 q 1133 6 1153 0 q 1121 24 1113 13 q 1157 78 1125 32 q 1236 194 1189 124 q 1340 351 1283 264 q 1449 527 1396 438 q 1547 701 1503 617 q 1613 853 1590 786 q 1629 960 1635 919 q 1578 1003 1624 1001 q 1411 918 1528 1004 q 1295 826 1354 875 q 1186 718 1236 776 q 1114 635 1151 678 q 1035 543 1076 592 q 950 437 994 494 q 857 308 906 379 l 686 28 z "},"":{"ha":1500,"x_min":63,"x_max":1794,"o":"m 1790 1004 q 1561 579 1722 904 q 1383 207 1472 393 q 1207 -94 1278 -10 q 829 -315 1025 -315 q 742 -284 776 -315 q 708 -201 708 -253 q 731 -139 708 -162 q 788 -115 754 -115 q 838 -135 817 -115 q 858 -187 858 -156 q 838 -236 858 -215 q 792 -257 818 -257 q 772 -262 775 -257 q 781 -277 769 -268 q 825 -286 792 -286 q 1119 -75 969 -286 q 1275 199 1172 0 q 1435 514 1356 356 q 1217 263 1308 358 q 829 -1 965 -1 q 729 106 729 -1 q 835 351 729 179 q 1031 653 932 501 q 1136 889 1136 821 q 972 1003 1136 1003 q 529 888 744 1003 q 222 639 347 789 q 107 403 107 500 q 143 310 107 342 q 224 282 175 282 q 643 458 439 282 q 840 667 746 546 q 946 835 929 779 q 975 829 964 858 q 882 660 957 768 q 663 425 785 521 q 239 250 443 250 q 63 418 63 250 q 181 688 63 540 q 485 932 300 835 q 906 1040 690 1040 q 1207 849 1207 1040 q 1099 568 1207 750 q 896 267 1056 496 q 788 74 788 110 q 835 35 788 35 q 1194 297 949 35 q 1560 750 1469 592 l 1706 1007 q 1758 1024 1707 1011 q 1794 1015 1794 1033 q 1790 1004 1794 1011 z "},"":{"ha":1657,"x_min":72,"x_max":1768,"o":"m 1461 990 q 1444 979 1454 985 q 1422 965 1435 974 q 1433 957 1433 963 q 1428 947 1433 951 q 1361 878 1389 911 q 1314 808 1333 844 q 1313 803 1314 807 q 1308 793 1311 800 q 1391 825 1349 813 q 1463 838 1433 838 q 1590 817 1533 838 q 1687 763 1647 796 q 1747 689 1726 731 q 1768 606 1768 647 q 1739 483 1768 542 q 1660 376 1710 424 q 1545 297 1611 329 q 1406 256 1479 265 q 1255 264 1332 247 q 1107 331 1178 281 l 1094 314 q 967 186 1040 243 q 800 85 894 129 q 428 -3 614 -3 q 166 60 260 -3 q 72 244 72 122 q 290 511 72 407 q 558 593 428 579 q 616 693 576 646 q 709 776 656 740 q 826 833 763 811 q 959 857 890 854 q 1097 842 1028 860 q 1229 779 1165 824 q 1242 798 1236 790 q 1253 813 1247 806 q 1323 892 1289 856 q 1393 951 1357 928 q 1213 904 1294 904 q 1091 919 1164 904 q 918 965 1018 935 q 604 1028 715 1028 q 440 1001 522 1028 q 294 931 358 974 q 189 835 229 889 q 149 729 149 782 q 151 697 149 710 q 156 675 153 685 q 147 668 153 668 q 126 690 133 668 q 118 735 118 713 q 160 869 118 808 q 276 974 201 931 q 453 1042 350 1018 q 681 1067 557 1067 q 780 1060 719 1067 q 908 1042 840 1053 q 1045 1019 976 1031 q 1169 996 1114 1007 q 1261 978 1225 985 q 1300 971 1297 971 q 1379 980 1344 971 q 1443 1007 1414 989 l 1447 1007 q 1463 997 1463 1007 q 1461 990 1463 992 m 328 460 q 132 208 132 344 q 207 72 132 119 q 425 25 282 25 q 767 122 596 25 q 983 310 900 197 q 910 283 946 293 q 849 274 874 274 q 721 294 778 274 q 624 349 664 315 q 564 424 585 382 q 543 507 543 465 q 543 528 543 518 q 546 550 543 539 q 438 514 492 536 q 328 460 383 492 m 899 544 q 892 535 899 538 q 878 533 886 533 q 689 567 824 567 q 674 567 682 567 q 660 565 667 567 l 660 563 q 659 434 644 496 q 718 337 674 372 q 838 303 763 301 q 1019 367 913 306 q 1053 436 1031 389 q 1103 540 1076 483 q 1159 653 1131 596 q 1213 751 1188 710 q 1014 810 1104 806 q 854 788 924 815 q 738 708 785 760 q 669 596 690 656 q 744 590 704 594 q 819 580 785 586 q 876 565 853 574 q 899 544 899 556 m 1235 590 q 1183 465 1211 522 q 1125 360 1156 407 q 1330 301 1239 303 q 1488 333 1421 300 q 1595 426 1554 367 q 1651 550 1636 485 q 1651 678 1665 617 q 1593 776 1638 740 q 1473 809 1549 811 q 1290 746 1397 807 q 1267 680 1281 718 q 1235 590 1253 642 m 1189 701 q 1190 706 1190 704 q 1193 711 1190 708 q 1189 701 1190 714 z "},"":{"ha":1603,"x_min":29,"x_max":1883,"o":"m 1883 938 q 1858 864 1883 897 q 1790 828 1829 828 q 1729 896 1729 828 q 1756 958 1729 931 q 1815 986 1782 986 q 1825 993 1825 986 q 1788 1006 1825 1006 q 1483 821 1660 1006 q 1210 429 1322 651 q 1474 437 1436 435 q 1558 446 1511 439 q 1606 451 1600 451 q 1613 438 1613 451 q 1558 404 1613 424 q 1442 385 1500 385 q 1186 381 1396 385 q 1110 111 1110 217 q 1133 48 1110 72 q 1193 24 1157 24 q 1426 115 1289 24 q 1600 272 1547 196 q 1622 256 1619 275 q 1446 88 1581 175 q 1194 -6 1301 -6 q 1088 37 1128 -6 q 1047 147 1047 79 q 1081 339 1047 233 q 800 94 958 189 q 497 -4 638 -4 q 417 24 449 -4 q 385 97 385 51 q 412 164 385 138 q 472 190 439 190 q 542 128 542 190 q 514 72 542 94 q 454 49 486 49 l 438 51 q 431 47 431 51 q 447 29 431 39 q 492 19 464 19 q 761 125 613 19 q 1015 378 900 224 l 840 375 q 813 390 813 375 q 825 413 813 403 q 850 422 838 422 q 1050 426 868 422 q 1193 804 1193 638 q 915 1011 1193 1011 q 532 894 742 1011 q 203 635 342 788 q 64 379 64 483 q 97 291 64 325 q 182 257 129 257 q 622 469 361 257 q 924 819 863 665 q 942 819 932 822 q 954 807 953 815 q 654 440 890 638 q 206 226 397 226 q 83 263 131 226 q 29 389 29 306 q 155 669 29 514 q 471 928 281 825 q 903 1043 685 1043 q 1182 971 1086 1043 q 1268 794 1268 906 q 1251 665 1268 732 q 1503 922 1367 825 q 1774 1028 1649 1028 q 1855 1003 1826 1028 q 1883 938 1883 978 z "},"":{"ha":1626,"x_min":56,"x_max":1813,"o":"m 1583 122 q 1544 -19 1567 33 q 1499 -101 1522 -72 q 1454 -141 1476 -131 q 1414 -157 1432 -151 q 1251 -149 1385 -169 q 1162 -139 1207 -142 q 1078 -149 1117 -136 q 1026 -183 1050 -158 q 983 -235 1001 -207 q 952 -292 964 -264 q 938 -339 940 -321 q 935 -360 936 -346 q 933 -390 935 -375 q 931 -415 932 -404 q 928 -426 929 -426 q 917 -421 921 -429 q 911 -401 914 -412 q 911 -336 906 -367 q 919 -294 917 -306 q 960 -219 936 -253 q 1013 -158 985 -185 q 1073 -111 1042 -131 q 1133 -79 1104 -92 q 1211 -69 1164 -68 q 1318 -76 1258 -69 q 1418 -80 1376 -90 q 1488 -43 1460 -69 q 1533 22 1517 -17 q 1556 85 1547 53 q 1524 42 1540 61 q 1482 10 1506 22 q 1419 -1 1458 -1 q 1314 101 1314 -1 q 1451 478 1314 207 q 1359 360 1400 411 q 1286 274 1318 310 q 881 -8 1029 -8 q 775 101 775 -8 q 885 371 775 186 q 936 453 886 374 q 1088 690 986 532 q 1197 911 1197 863 q 1183 951 1197 932 q 1142 983 1168 969 q 1081 1005 1117 997 q 1004 1013 1046 1013 q 561 896 783 1013 q 388 785 471 849 q 242 655 306 722 q 142 524 179 588 q 104 411 104 460 q 239 292 104 292 q 346 305 289 292 q 461 341 403 318 q 576 396 519 364 q 682 467 633 428 q 778 557 728 504 q 872 665 828 610 q 948 769 915 719 q 992 850 981 818 q 1019 896 1006 896 q 1028 879 1028 896 q 1000 793 1028 849 q 926 674 972 738 q 822 546 881 610 q 704 433 764 482 q 597 361 654 393 q 479 307 539 329 q 360 272 419 285 q 246 260 300 260 q 56 426 56 260 q 92 563 56 492 q 190 703 128 635 q 339 832 253 771 q 525 940 425 893 q 735 1013 625 986 q 957 1040 846 1040 q 1261 860 1261 1040 q 1151 589 1261 775 q 1138 569 1151 590 q 1103 515 1125 549 q 1052 436 1081 481 q 994 344 1024 392 q 937 251 965 297 q 886 165 908 204 q 850 99 864 126 q 836 63 836 71 q 896 24 836 24 q 964 47 921 24 q 1058 110 1007 71 q 1163 201 1110 150 q 1263 308 1217 253 q 1407 492 1329 390 q 1575 718 1485 593 l 1714 990 q 1733 1011 1718 1003 q 1763 1026 1747 1019 q 1792 1035 1779 1032 l 1804 1039 q 1813 1029 1813 1038 q 1806 1008 1813 1025 q 1786 968 1801 1000 q 1750 892 1771 936 q 1704 794 1729 847 q 1656 693 1679 742 q 1613 606 1632 644 q 1586 547 1594 567 q 1444 224 1490 344 q 1397 61 1397 103 q 1406 41 1397 51 q 1426 31 1415 31 q 1478 42 1456 31 q 1517 69 1500 53 q 1546 106 1533 86 q 1568 144 1558 126 q 1586 151 1579 151 q 1596 140 1596 150 q 1574 113 1583 126 q 1576 113 1575 113 q 1583 122 1581 114 z "},"":{"ha":1704,"x_min":56,"x_max":1813,"o":"m 1710 990 q 1723 1007 1713 1000 q 1747 1019 1733 1014 q 1803 1039 1803 1039 q 1813 1029 1813 1039 q 1806 1008 1813 1025 q 1719 826 1774 940 q 1586 547 1665 711 q 1397 61 1397 147 q 1406 41 1397 51 q 1426 31 1415 31 q 1578 132 1485 31 q 1694 288 1651 214 q 1713 294 1706 294 q 1722 283 1722 293 q 1615 118 1686 201 q 1419 -1 1513 -1 q 1314 101 1314 -1 q 1346 248 1314 154 q 1447 478 1378 342 l 1508 599 q 1491 577 1500 588 q 1475 558 1482 567 q 1245 351 1346 417 q 1069 285 1144 285 q 964 394 964 285 q 1074 664 964 479 q 1124 747 1101 707 q 1163 819 1147 786 q 1188 875 1179 851 q 1197 911 1197 899 q 1183 951 1197 932 q 1142 983 1168 969 q 1081 1005 1117 997 q 1004 1013 1046 1013 q 561 896 783 1013 q 232 647 368 799 q 104 411 104 504 q 239 292 104 292 q 456 338 336 292 q 682 467 579 385 q 886 679 788 551 q 992 850 971 788 q 1019 896 1006 896 q 1028 879 1028 896 q 1021 844 1028 868 q 929 675 1003 782 q 704 433 831 535 q 592 358 651 390 q 467 301 533 325 q 246 260 347 260 q 56 426 56 260 q 182 693 56 550 q 506 935 310 840 q 957 1040 722 1040 q 1261 860 1261 1040 q 1231 738 1261 818 q 1136 561 1200 658 q 1025 356 1025 392 q 1085 317 1025 317 q 1246 401 1136 317 q 1352 489 1301 444 q 1451 589 1403 533 q 1531 685 1494 638 q 1601 781 1567 732 l 1710 990 z "},"":{"ha":2229,"x_min":56,"x_max":2310,"o":"m 1592 543 q 1571 509 1590 542 q 1522 427 1551 476 q 1460 319 1493 378 q 1398 206 1426 260 q 1350 113 1369 153 q 1331 61 1331 74 q 1390 22 1331 22 q 1458 46 1415 22 q 1553 109 1501 69 q 1658 200 1604 149 q 1757 307 1711 251 q 1896 479 1824 389 q 2072 714 1968 569 l 2211 986 q 2229 1007 2215 999 q 2258 1022 2243 1015 q 2286 1031 2274 1028 q 2300 1035 2299 1033 q 2310 1025 2310 1035 q 2303 1004 2310 1021 q 2283 964 2299 996 q 2247 888 2268 932 q 2201 790 2226 843 q 2153 689 2176 738 q 2110 601 2129 640 q 2083 543 2092 563 q 1941 219 1988 340 q 1894 57 1894 99 q 1903 37 1894 47 q 1924 26 1913 26 q 1983 50 1947 26 q 2056 110 2018 74 q 2131 193 2094 147 q 2192 283 2167 239 q 2210 290 2203 290 q 2219 279 2219 289 q 2160 176 2196 226 q 2082 85 2124 125 q 1997 19 2040 44 q 1917 -6 1954 -6 q 1811 97 1811 -6 q 1949 476 1811 206 q 1855 359 1897 410 q 1781 272 1813 308 q 1375 -10 1524 -10 q 1269 100 1269 -10 q 1290 165 1269 121 q 1339 263 1310 208 q 1401 373 1368 317 q 1461 474 1435 429 q 1422 432 1449 461 q 1368 370 1396 403 q 1317 310 1340 338 q 1286 274 1294 282 q 881 -8 1029 -8 q 775 101 775 -8 q 885 371 775 186 q 936 453 886 374 q 1088 690 986 532 q 1197 911 1197 863 q 1183 951 1197 932 q 1142 983 1168 969 q 1081 1005 1117 997 q 1004 1013 1046 1013 q 561 896 783 1013 q 388 786 471 850 q 242 656 306 722 q 142 524 179 589 q 104 411 104 460 q 239 292 104 292 q 346 305 289 292 q 461 341 403 318 q 576 396 519 364 q 682 467 633 428 q 778 557 728 504 q 872 665 828 610 q 948 769 915 719 q 992 850 981 818 q 1019 896 1006 896 q 1028 879 1028 896 q 1000 793 1028 849 q 926 674 972 738 q 822 546 881 610 q 704 433 764 482 q 597 361 654 393 q 479 307 539 329 q 360 272 419 285 q 246 260 300 260 q 56 426 56 260 q 90 557 56 488 q 184 694 124 626 q 327 825 244 763 q 506 935 410 888 q 957 1040 722 1040 q 1261 860 1261 1040 q 1151 589 1261 775 q 1138 569 1151 590 q 1103 515 1125 549 q 1052 436 1081 481 q 994 344 1024 392 q 937 251 965 297 q 886 165 908 204 q 850 99 864 126 q 836 63 836 71 q 896 24 836 24 q 964 47 921 24 q 1058 110 1007 71 q 1163 201 1110 150 q 1263 308 1217 253 q 1335 390 1290 342 q 1442 517 1381 439 q 1579 708 1503 594 q 1746 986 1656 822 q 1764 1007 1750 999 q 1793 1022 1778 1015 q 1821 1031 1808 1028 q 1835 1035 1833 1033 q 1844 1025 1844 1035 q 1838 1004 1844 1021 q 1819 968 1833 996 q 1783 900 1804 940 q 1737 811 1763 860 q 1685 714 1711 763 q 1635 620 1660 665 q 1592 543 1610 575 z "},"":{"ha":2101,"x_min":56,"x_max":2310,"o":"m 1592 543 q 1571 509 1590 542 q 1522 427 1551 476 q 1460 319 1493 378 q 1398 206 1426 260 q 1350 113 1369 153 q 1331 61 1331 74 q 1390 22 1331 22 q 1458 46 1415 22 q 1553 109 1501 69 q 1658 200 1604 149 q 1757 307 1711 251 q 1903 489 1824 389 q 2072 714 1982 589 l 2211 986 q 2229 1007 2215 999 q 2258 1022 2243 1015 q 2286 1031 2274 1028 q 2300 1035 2299 1033 q 2310 1025 2310 1035 q 2303 1004 2310 1021 q 2283 964 2299 996 q 2247 888 2268 932 q 2201 790 2226 843 q 2153 689 2176 738 q 2110 601 2129 640 q 2083 543 2092 563 q 1941 219 1988 340 q 1894 57 1894 99 q 1903 35 1894 47 q 1924 26 1913 24 q 2014 68 1982 35 q 2040 100 2028 82 q 2044 107 2042 107 q 2074 161 2060 131 q 2092 168 2085 168 q 2101 157 2101 167 q 2068 104 2083 133 q 2054 79 2063 92 q 2019 -24 2038 17 q 1972 -104 1996 -76 q 1926 -142 1949 -132 q 1885 -157 1903 -153 q 1722 -142 1853 -168 q 1633 -129 1678 -133 q 1549 -136 1589 -125 q 1496 -167 1521 -144 q 1451 -218 1471 -190 q 1418 -274 1431 -246 q 1401 -321 1406 -303 q 1399 -342 1400 -328 l 1396 -371 q 1392 -397 1394 -386 q 1389 -408 1390 -408 q 1379 -401 1382 -410 q 1374 -382 1376 -393 q 1376 -317 1369 -347 q 1385 -275 1382 -286 q 1483 -143 1421 -194 q 1607 -68 1546 -92 q 1685 -60 1638 -58 q 1792 -72 1732 -62 q 1891 -80 1849 -89 q 1963 -45 1933 -71 q 2011 18 1993 -19 l 2018 33 q 1988 11 2004 21 q 1917 -6 1960 -6 q 1811 97 1811 -6 q 1949 476 1811 206 q 1855 359 1897 410 q 1781 272 1813 308 q 1375 -10 1524 -10 q 1269 100 1269 -10 q 1290 165 1269 121 q 1339 263 1310 208 q 1401 373 1368 317 q 1461 474 1435 429 q 1422 432 1449 461 q 1368 370 1396 403 q 1317 310 1340 338 q 1286 274 1294 282 q 881 -8 1029 -8 q 775 101 775 -8 q 885 371 775 186 q 936 453 886 374 q 1088 690 986 532 q 1197 911 1197 863 q 1183 951 1197 932 q 1142 983 1168 969 q 1081 1005 1117 997 q 1004 1013 1046 1013 q 561 896 783 1013 q 388 786 471 850 q 242 656 306 722 q 142 524 179 589 q 104 411 104 460 q 239 292 104 292 q 346 305 289 292 q 461 341 403 318 q 576 396 519 364 q 682 467 633 428 q 778 557 728 504 q 872 665 828 610 q 948 769 915 719 q 992 850 981 818 q 1019 896 1006 896 q 1028 879 1028 896 q 1000 793 1028 849 q 926 674 972 738 q 822 546 881 610 q 704 433 764 482 q 597 361 654 393 q 479 307 539 329 q 360 272 419 285 q 246 260 300 260 q 56 426 56 260 q 90 557 56 488 q 184 694 124 626 q 327 825 244 763 q 506 935 410 888 q 957 1040 722 1040 q 1261 860 1261 1040 q 1151 589 1261 775 q 1138 569 1151 590 q 1103 515 1125 549 q 1052 436 1081 481 q 994 344 1024 392 q 937 251 965 297 q 886 165 908 204 q 850 99 864 126 q 836 63 836 71 q 896 24 836 24 q 964 47 921 24 q 1058 110 1007 71 q 1163 201 1110 150 q 1263 308 1217 253 q 1335 390 1290 342 q 1442 517 1381 439 q 1579 708 1503 594 q 1746 986 1656 822 q 1764 1007 1750 999 q 1793 1022 1778 1015 q 1821 1031 1808 1028 q 1835 1035 1833 1033 q 1844 1025 1844 1035 q 1838 1004 1844 1021 q 1819 968 1833 996 q 1783 900 1804 940 q 1736 811 1763 860 l 1685 714 q 1635 620 1660 665 q 1592 543 1610 575 z "},"":{"ha":694,"x_min":88,"x_max":608,"o":"m 88 0 l 88 1299 l 608 1299 l 608 0 l 88 0 m 174 88 l 521 88 l 521 1213 l 174 1213 l 174 88 z "},"":{"ha":694,"x_min":88,"x_max":608,"o":"m 88 0 l 88 1299 l 608 1299 l 608 0 l 88 0 m 174 88 l 521 88 l 521 1213 l 174 1213 l 174 88 z "},"":{"ha":694,"x_min":88,"x_max":608,"o":"m 88 0 l 88 1299 l 608 1299 l 608 0 l 88 0 m 174 88 l 521 88 l 521 1213 l 174 1213 l 174 88 z "},"":{"ha":1418,"x_min":64,"x_max":1479,"o":"m 1186 517 q 1246 637 1225 581 q 1273 739 1267 693 q 1278 817 1279 785 q 1274 865 1278 849 q 1271 879 1271 882 q 1252 938 1271 911 q 1203 983 1233 964 q 1133 1012 1172 1001 q 1053 1022 1094 1022 q 974 1017 1011 1022 q 899 1001 936 1011 q 821 975 861 990 q 735 942 781 960 q 446 779 571 876 q 424 790 424 779 q 425 797 424 794 q 547 883 476 844 q 701 965 618 921 q 859 1028 776 1006 q 1022 1053 942 1051 q 1172 1035 1101 1054 q 1294 975 1243 1017 q 1373 868 1346 933 q 1390 713 1400 803 q 1321 511 1379 615 l 1319 508 q 1349 511 1335 510 q 1449 539 1408 518 q 1454 539 1450 539 q 1472 538 1464 539 q 1478 533 1479 538 q 1453 515 1478 528 q 1372 467 1425 479 q 1289 458 1335 458 q 1171 311 1240 382 q 1020 181 1103 242 q 844 74 938 119 q 651 3 751 29 q 449 -24 550 -24 q 247 9 328 -24 q 124 95 167 42 q 72 215 81 149 q 85 347 64 281 q 157 472 107 413 q 281 573 207 532 q 449 628 354 614 q 657 617 544 642 q 772 590 706 606 q 912 558 838 574 q 1064 528 986 542 q 1183 513 1126 518 q 1186 517 1185 515 m 1085 386 q 1153 469 1124 428 q 1107 478 1131 472 q 953 513 1031 493 q 806 551 876 532 q 682 581 736 569 q 504 585 588 600 q 353 533 421 571 q 236 440 285 494 q 162 326 188 386 q 137 208 136 267 q 170 105 138 150 q 269 33 203 60 q 443 8 336 6 q 625 41 539 11 q 790 121 711 71 q 942 239 869 171 q 1085 386 1015 307 m 1453 542 q 1449 539 1450 540 q 1453 542 1451 540 z "},"":{"ha":2375,"x_min":72,"x_max":2515,"o":"m 947 468 q 926 483 926 468 q 950 509 926 501 q 1014 519 974 517 q 1086 521 1044 521 q 1118 590 1100 553 q 1232 794 1186 740 q 1371 931 1300 878 q 1193 885 1275 885 q 904 945 1101 885 q 594 1006 707 1006 q 278 903 419 1006 q 147 713 147 808 q 154 660 147 676 q 131 664 147 646 q 117 718 117 688 q 257 944 117 854 q 669 1043 411 1043 q 1029 997 811 1043 q 1279 950 1247 950 q 1419 985 1364 950 q 1436 981 1431 986 q 1438 968 1442 976 q 1399 944 1424 958 q 1410 939 1407 943 q 1404 926 1413 933 q 1293 790 1329 858 q 1215 578 1290 785 q 1193 521 1204 549 l 1226 521 q 1354 524 1288 521 q 1425 639 1383 582 q 1768 939 1553 817 q 2168 1071 1978 1058 q 2227 1073 2193 1072 q 2292 1072 2261 1074 q 2346 1064 2324 1069 q 2368 1049 2368 1058 q 2365 1038 2369 1042 q 2354 1033 2360 1035 q 2277 1044 2322 1043 q 2169 1042 2232 1046 q 1803 893 2001 1032 q 1489 572 1613 758 q 1465 535 1476 553 q 1488 539 1476 536 q 1510 543 1503 542 q 1521 544 1517 544 q 1528 531 1528 544 q 1515 513 1528 522 q 1483 496 1503 504 q 1442 482 1464 488 q 1436 481 1439 482 q 1371 196 1361 331 q 1517 17 1381 50 q 1508 63 1511 39 q 1501 114 1504 86 q 1586 515 1489 310 q 1854 861 1686 725 q 2226 1022 2035 1010 q 2333 1014 2285 1026 q 2418 976 2382 1001 q 2476 913 2454 950 q 2500 829 2497 875 q 2375 426 2515 625 q 2040 118 2250 243 q 1635 -18 1831 -6 q 1599 -20 1617 -19 q 1564 -18 1582 -21 q 1625 -104 1585 -64 q 1606 -124 1628 -121 q 1582 -111 1594 -124 q 1558 -81 1569 -99 q 1539 -45 1547 -64 q 1526 -14 1531 -26 q 1294 244 1311 21 q 1333 476 1286 361 q 1207 474 1285 475 l 1172 472 q 1076 307 1128 375 q 788 84 972 171 q 422 -3 603 -3 q 157 65 250 -3 q 72 239 72 129 q 286 500 72 397 q 622 583 460 583 q 883 538 799 583 q 881 525 888 531 q 864 521 875 519 q 678 554 810 554 q 324 450 503 554 q 131 204 131 339 q 214 67 131 114 q 419 25 289 25 q 754 119 589 25 q 997 347 914 211 q 1061 471 1021 386 l 947 468 m 2447 843 q 2380 961 2440 922 q 2229 993 2319 1000 q 1886 824 2058 982 q 1628 468 1728 678 q 1540 90 1528 260 q 1554 11 1543 44 q 1576 9 1565 10 q 1599 10 1588 8 q 1978 151 1771 22 q 2315 465 2182 279 q 2447 843 2460 667 z "},"":{"ha":1783,"x_min":24,"x_max":2450,"o":"m 1710 878 q 1723 885 1713 881 q 1747 892 1733 889 q 1774 898 1760 896 q 1801 900 1789 900 q 1814 893 1814 900 q 1808 878 1814 883 q 1758 803 1781 835 q 1711 735 1735 771 q 1660 653 1688 700 q 1596 535 1633 607 l 1564 471 q 1599 464 1581 468 q 1679 436 1644 454 q 1733 395 1714 418 q 1751 347 1753 372 q 1732 310 1750 322 q 1689 290 1714 297 q 1678 291 1683 289 q 1674 296 1674 293 q 1700 344 1704 318 q 1672 393 1696 371 q 1610 429 1647 415 q 1549 440 1579 440 q 1522 381 1536 410 q 1458 232 1486 301 q 1413 111 1431 163 q 1396 42 1396 60 q 1431 4 1396 4 q 1507 29 1460 4 q 1602 91 1554 54 q 1691 169 1650 128 q 1750 243 1732 210 q 1760 244 1751 244 q 1776 229 1772 244 q 1710 147 1754 192 q 1616 65 1667 103 q 1515 1 1565 26 q 1431 -25 1465 -25 q 1306 107 1306 -25 q 1313 167 1306 138 q 1339 235 1321 196 q 1386 329 1357 274 q 1444 442 1410 375 q 1426 443 1435 442 q 1288 421 1363 453 q 1133 335 1214 389 q 964 216 1051 282 q 785 93 876 150 q 601 -2 694 36 q 414 -40 507 -40 q 136 33 243 -40 q 24 247 24 110 q 250 574 24 439 q 746 703 467 703 q 976 675 869 703 q 1085 628 1057 651 q 1075 619 1086 624 q 1051 618 1064 615 q 763 671 953 671 q 304 525 522 671 q 85 221 85 381 q 118 103 85 151 q 208 28 151 56 q 342 -7 265 0 q 504 -1 418 -14 q 669 59 589 17 q 824 154 749 101 q 973 263 900 207 q 1118 367 1046 319 q 1263 443 1190 414 q 1379 472 1321 468 q 1289 519 1331 490 q 1199 613 1233 557 q 1171 740 1165 668 q 1229 893 1176 826 q 1360 1003 1282 960 q 1531 1066 1439 1047 q 1707 1076 1624 1085 q 1760 1073 1729 1076 q 1824 1064 1790 1069 q 1890 1051 1857 1058 q 1951 1035 1924 1043 q 2035 1008 1990 1021 q 2127 986 2079 994 q 2226 976 2175 978 q 2329 983 2276 974 q 2360 989 2342 985 l 2396 999 q 2428 1008 2414 1004 q 2446 1010 2443 1011 q 2447 1001 2450 1006 q 2424 984 2442 992 q 2381 970 2406 976 q 2325 958 2356 964 q 2265 949 2294 953 q 2110 941 2179 933 q 1981 967 2042 949 q 1863 1007 1921 985 q 1738 1044 1804 1029 q 1679 1049 1708 1049 q 1536 1019 1606 1049 q 1413 940 1467 990 q 1326 822 1358 890 q 1293 676 1293 754 q 1309 587 1293 624 q 1353 526 1325 550 q 1419 489 1382 501 q 1464 478 1440 482 q 1511 561 1483 514 q 1580 672 1544 615 q 1650 783 1615 729 q 1710 878 1685 838 z "},"":{"ha":489,"x_min":4,"x_max":461,"o":"m 461 414 q 453 397 461 410 q 379 231 450 393 q 317 57 317 88 q 333 36 317 36 q 439 122 365 36 q 451 118 444 124 q 456 106 457 113 q 300 -1 381 -1 q 235 64 235 -1 q 257 146 235 86 q 75 1 143 1 q 4 89 4 1 q 125 322 4 211 q 365 429 242 429 q 456 421 428 429 q 461 414 461 418 m 343 368 q 324 393 343 393 q 170 260 267 393 q 74 61 74 126 q 96 36 74 36 q 242 174 132 36 q 317 289 292 238 q 343 368 343 340 z "},"":{"ha":399,"x_min":24,"x_max":936,"o":"m 325 419 l 326 419 q 308 542 303 488 q 340 637 314 596 q 407 708 365 678 q 499 759 449 738 q 603 793 549 781 q 710 813 658 806 q 822 831 782 822 q 868 844 861 839 q 915 928 903 864 q 931 940 925 940 q 936 922 936 935 q 926 867 936 892 q 899 821 915 842 q 863 785 883 800 q 825 757 843 769 q 753 735 803 743 q 647 722 704 728 q 538 709 590 715 q 457 690 485 703 q 367 624 393 664 q 339 541 342 583 q 348 458 336 499 q 372 390 360 418 q 379 378 376 385 q 385 365 382 372 l 390 354 l 388 354 q 393 313 393 336 q 367 204 393 260 q 302 103 342 149 q 217 28 263 57 q 131 -1 171 -1 q 24 106 24 -1 q 42 213 24 161 q 94 303 61 264 q 175 367 128 343 q 279 390 222 390 q 299 382 299 390 q 279 368 299 368 q 208 337 242 368 q 149 260 175 306 q 107 161 122 214 q 92 65 92 108 q 133 21 92 21 q 188 44 160 21 q 243 103 217 67 q 292 185 269 140 q 326 274 314 229 q 340 357 339 318 q 325 419 340 396 z "},"":{"ha":415,"x_min":18,"x_max":506,"o":"m 506 779 q 481 696 506 749 q 397 572 450 632 q 215 424 331 499 q 179 340 197 382 q 322 429 263 429 q 400 346 400 429 q 307 121 400 239 q 114 -1 210 -1 q 43 22 68 -1 q 18 81 18 46 q 94 354 18 169 q 265 674 171 539 q 450 829 374 829 q 506 779 506 829 m 453 774 q 435 796 453 796 q 372 739 413 796 q 292 596 331 682 q 240 483 271 553 q 374 607 318 529 q 453 774 453 717 m 317 361 q 294 389 317 389 q 226 344 274 389 q 138 235 175 296 q 85 63 85 96 q 118 26 85 26 q 246 154 174 26 q 317 361 317 278 z "},"":{"ha":292,"x_min":17,"x_max":281,"o":"m 106 239 q 149 297 125 267 q 188 351 172 326 q 203 393 203 376 q 175 410 203 410 q 117 386 149 410 q 57 318 85 363 q 43 315 46 315 q 31 326 33 315 q 103 405 61 374 q 181 439 144 436 q 262 424 243 444 q 272 367 281 403 q 235 286 264 332 q 176 194 207 240 q 120 108 146 149 q 92 43 94 68 q 98 29 90 33 q 113 25 106 25 q 138 35 121 25 q 174 59 156 44 q 211 90 193 74 q 240 119 229 107 l 242 119 q 252 115 247 119 q 257 104 257 111 q 221 63 242 83 q 178 27 200 43 q 134 3 156 11 q 96 -1 113 -6 q 31 33 46 8 q 25 92 17 58 q 57 163 33 125 q 106 239 81 201 z "},"":{"ha":446,"x_min":-74,"x_max":453,"o":"m 451 414 q 444 397 450 410 q 319 86 406 303 q 371 132 357 114 q 394 114 388 132 q 301 40 371 86 l 292 13 q 165 -196 250 -99 q -15 -308 68 -308 q -74 -250 -74 -308 q -35 -167 -74 -217 q 63 -78 4 -118 q 207 14 101 -50 q 256 146 225 64 q 75 1 142 1 q 3 89 3 1 q 124 322 3 211 q 364 429 242 429 q 447 421 418 429 q 451 414 453 418 m 342 368 q 322 393 342 393 q 170 260 267 393 q 74 61 74 126 q 96 36 74 36 q 242 174 132 36 q 316 289 290 238 q 342 368 342 340 m 190 -29 q 103 -86 122 -71 q 25 -168 58 -124 q -14 -250 -14 -219 q 8 -275 -14 -275 q 94 -209 44 -275 q 179 -58 144 -143 l 190 -29 z "},"":{"ha":371,"x_min":17,"x_max":358,"o":"m 358 368 q 254 206 358 278 q 101 143 171 150 q 85 75 85 99 q 136 26 85 26 q 231 64 178 26 q 294 125 272 94 q 317 113 313 135 q 251 47 293 79 q 124 0 186 0 q 17 106 17 0 q 110 322 17 213 q 285 431 203 431 q 358 368 358 431 m 301 376 q 282 403 301 403 q 199 325 253 403 q 113 174 149 256 q 238 246 175 176 q 301 376 301 315 z "},"":{"ha":863,"x_min":13,"x_max":858,"o":"m 351 56 q 442 317 351 136 l 438 322 q 422 303 435 319 q 390 265 408 288 q 349 219 371 243 q 307 172 328 194 q 285 149 294 160 q 254 108 271 128 q 170 30 217 61 q 82 -1 124 -1 q 13 74 13 -1 q 33 127 13 108 q 75 146 53 146 q 117 106 117 146 q 110 86 117 96 q 95 68 103 76 q 81 53 88 60 q 74 43 74 47 q 88 29 74 29 q 142 71 111 29 q 200 169 172 113 q 247 281 228 225 q 265 367 265 338 q 239 397 265 397 q 203 386 224 397 q 160 358 182 375 q 121 323 139 342 q 93 289 103 304 q 89 288 92 288 q 76 294 82 288 q 71 308 71 300 q 110 354 88 332 q 156 393 132 376 q 206 420 181 410 q 253 431 231 431 q 343 315 343 431 q 325 229 343 275 q 392 307 353 263 q 475 390 440 363 q 526 417 510 417 q 547 413 546 417 q 547 401 547 408 q 532 371 547 406 q 481 252 501 300 q 447 172 460 204 q 428 122 433 140 q 422 92 422 104 l 417 68 q 436 90 421 72 q 472 131 451 107 q 517 181 493 154 q 553 221 535 201 q 616 322 578 275 q 701 401 654 369 q 789 432 747 432 q 858 357 858 432 q 838 303 858 322 q 796 285 818 285 q 754 325 754 285 q 761 344 754 335 q 776 363 768 354 q 790 377 783 371 q 797 388 797 383 q 783 401 797 401 q 729 360 760 401 q 671 262 699 318 q 624 149 643 206 q 606 64 606 93 q 632 33 606 33 q 667 44 646 33 q 710 72 689 56 q 750 108 732 89 q 778 142 768 126 l 782 143 q 794 137 789 143 q 800 122 800 131 q 761 76 783 99 q 715 38 739 54 q 665 10 690 21 q 618 0 640 0 q 528 115 528 0 q 532 157 528 135 q 499 118 517 139 q 418 31 449 60 q 369 0 388 1 q 356 5 363 0 q 349 26 349 10 q 349 40 349 32 q 351 56 350 49 z "},"":{"ha":392,"x_min":-222,"x_max":453,"o":"m -119 -294 q -176 -276 -154 -290 q -208 -245 -197 -262 q -221 -209 -219 -228 q -215 -176 -222 -190 q -183 -146 -206 -154 q -140 -141 -161 -137 q -107 -158 -119 -144 q -103 -194 -94 -172 q -136 -221 -112 -214 q -179 -218 -160 -228 l -189 -212 q -194 -212 -194 -210 q -192 -226 -196 -215 q -177 -247 -187 -236 q -151 -267 -167 -258 q -112 -275 -135 -275 q -3 -233 -56 -276 q 88 -129 49 -189 q 151 -10 128 -69 q 172 82 174 50 q 168 131 174 110 q 138 104 154 115 q 92 86 114 88 q 51 95 68 85 q 36 122 35 106 q 53 173 38 154 q 92 198 69 192 q 143 200 115 204 q 182 190 164 197 q 210 229 196 208 l 283 325 q 214 367 243 347 q 147 386 185 386 q 96 366 117 386 q 75 321 75 346 q 81 292 75 301 q 75 288 79 290 q 65 285 71 285 q 51 297 54 285 q 49 321 49 310 q 60 361 49 340 q 92 399 72 382 q 138 428 113 417 q 189 439 163 439 q 230 428 208 439 q 270 406 251 418 q 302 384 289 394 q 319 374 315 374 q 424 425 383 425 q 453 407 453 425 q 440 374 453 390 q 409 345 428 358 q 369 324 390 332 q 329 315 347 315 q 322 313 322 315 q 315 313 322 311 q 296 298 308 314 q 267 257 283 282 q 228 203 250 232 q 207 175 218 189 q 235 150 222 165 q 254 104 251 131 q 243 21 258 67 q 199 -72 228 -25 q 133 -161 171 -118 q 51 -235 94 -204 q -36 -284 8 -267 q -119 -294 -81 -301 m 140 142 q 156 157 147 149 l 154 160 q 106 183 133 183 q 82 172 93 183 q 65 148 71 161 q 63 122 60 135 q 85 108 67 110 q 109 116 94 107 q 140 142 124 125 z "},"":{"ha":500,"x_min":18,"x_max":476,"o":"m 467 411 q 313 53 313 119 q 326 31 313 31 q 385 72 347 31 q 435 139 424 113 q 463 133 456 147 q 406 56 447 99 q 300 -1 351 -1 q 263 15 279 -1 q 242 64 242 33 q 265 158 242 94 q 81 0 143 0 q 18 61 18 0 q 75 218 18 96 q 146 369 110 294 q 135 385 151 385 q 104 406 104 385 q 129 425 104 426 q 242 431 188 421 q 258 426 253 433 q 258 410 264 421 q 175 242 217 326 q 97 58 97 82 q 111 46 97 46 q 315 275 146 46 q 379 404 346 338 q 404 428 390 428 q 427 429 410 428 q 450 431 444 431 q 467 411 476 431 z "},"":{"ha":500,"x_min":18,"x_max":507,"o":"m 467 411 q 313 53 313 119 q 326 31 313 31 q 385 72 347 31 q 435 139 424 113 q 463 133 456 147 q 406 56 447 99 q 300 -1 351 -1 q 263 15 279 -1 q 242 64 242 33 q 265 158 242 94 q 81 0 143 0 q 18 61 18 0 q 75 218 18 96 q 146 369 110 294 q 135 385 151 385 q 104 406 104 385 q 129 425 104 426 q 242 431 188 421 q 258 426 253 433 q 258 410 264 421 q 175 242 217 326 q 97 58 97 82 q 111 46 97 46 q 315 275 146 46 q 379 404 346 338 q 404 428 390 428 q 427 429 410 428 q 450 431 444 431 q 467 411 476 431 m 304 668 q 319 651 310 665 q 347 611 329 636 q 394 585 368 585 q 478 651 436 585 q 507 636 503 656 q 483 605 496 621 q 450 574 469 589 q 354 535 406 535 q 290 551 314 535 q 258 588 265 567 q 263 633 251 610 q 304 668 274 656 z "},"":{"ha":485,"x_min":-17,"x_max":522,"o":"m 522 750 q 403 535 522 667 q 208 371 299 418 q 151 231 182 304 q 242 331 210 301 q 408 425 344 425 q 471 368 471 425 q 385 242 471 307 q 207 160 299 176 q 332 43 286 47 q 417 74 383 38 q 424 78 419 78 q 440 63 440 78 q 436 54 440 58 q 297 0 371 0 q 194 51 246 0 q 118 146 185 61 q 76 39 81 53 q -1 0 71 21 q -12 3 -10 -3 q -11 24 -17 10 l 206 546 q 322 728 249 647 q 468 814 403 814 q 522 750 522 814 m 468 757 q 451 779 468 779 q 358 685 417 779 q 231 422 314 617 q 379 571 297 461 q 468 757 468 690 m 389 381 q 374 393 389 393 q 246 293 339 393 q 157 189 157 200 q 181 181 157 181 q 312 254 235 181 q 389 381 389 328 z "},"":{"ha":557,"x_min":0,"x_max":553,"o":"m 458 432 q 499 431 479 432 q 538 431 518 431 q 553 417 553 431 q 551 408 553 411 q 490 285 519 346 q 438 174 461 224 q 402 91 415 124 q 389 51 389 58 q 404 33 389 33 q 428 42 413 33 q 460 63 443 50 q 492 92 476 76 q 519 119 508 107 l 521 119 q 531 115 526 119 q 536 104 536 111 q 501 64 521 83 q 461 30 482 44 q 419 7 440 15 q 381 -1 397 -1 q 311 65 311 -1 q 322 105 311 75 q 349 179 332 135 q 392 281 367 224 q 446 401 417 338 q 386 368 413 399 q 335 294 360 338 q 285 199 310 250 q 230 105 260 149 q 164 31 200 61 q 82 0 128 1 q 24 26 47 0 q 0 90 0 53 q 20 144 0 125 q 63 163 40 163 q 104 122 104 163 q 94 95 104 107 q 73 72 83 83 q 59 51 63 61 q 71 32 56 42 q 144 52 111 25 q 208 124 178 79 q 265 222 238 168 q 322 322 292 275 q 384 399 351 368 q 457 431 417 431 q 458 432 458 431 z "},"":{"ha":756,"x_min":6,"x_max":750,"o":"m 504 361 q 481 257 504 321 q 413 101 457 193 l 417 96 q 444 128 425 104 q 487 183 463 151 q 538 250 511 214 q 590 319 565 286 q 634 377 614 351 q 664 414 654 403 q 677 420 667 417 q 700 426 688 424 q 724 431 713 429 q 739 433 735 433 q 750 424 750 433 q 742 401 750 418 q 723 356 735 383 q 696 296 711 329 q 665 226 681 263 q 601 53 601 76 q 618 32 601 32 q 669 49 638 32 q 674 42 672 49 q 676 28 676 35 q 661 10 676 18 q 626 -2 646 3 q 590 -9 607 -7 q 568 -11 572 -11 q 517 42 517 -11 q 524 79 517 58 l 611 286 l 604 283 q 521 176 560 228 q 450 85 482 125 q 392 22 418 46 q 350 -1 367 -1 q 310 14 310 -1 q 306 17 310 13 q 310 39 303 22 q 366 163 336 101 q 418 276 396 225 q 451 363 440 328 q 453 406 463 397 q 395 376 421 406 q 345 303 369 347 q 296 208 321 260 q 241 110 271 156 q 174 34 211 65 q 88 0 136 3 q 29 26 53 0 q 6 90 6 53 q 26 144 6 125 q 68 163 46 163 q 110 122 110 163 q 99 95 110 107 q 78 72 89 83 q 65 51 68 61 q 76 31 61 40 q 156 56 121 24 q 222 138 192 88 q 279 245 251 188 q 338 349 307 303 q 403 417 368 394 q 486 422 439 440 q 501 394 499 408 q 504 361 504 381 z "},"":{"ha":482,"x_min":-1,"x_max":449,"o":"m 364 410 q 399 424 379 419 q 433 428 418 428 q 449 413 449 428 q 435 388 447 413 q 406 326 424 364 q 367 244 388 289 q 330 160 347 200 q 301 90 313 119 q 290 51 290 60 q 315 31 290 31 q 417 119 365 31 q 432 122 428 122 q 443 111 443 122 q 376 31 418 64 q 300 -1 335 -1 q 244 14 260 -1 q 229 61 229 29 q 243 138 229 92 q 265 206 253 171 l 263 206 q 203 204 235 206 q 158 203 179 204 q 153 192 156 197 l 79 25 q 51 6 68 10 q 15 3 35 3 q -1 19 -1 3 q 75 185 -1 24 q 142 354 142 328 q 122 381 142 381 q 68 365 118 381 q 57 379 57 369 q 72 400 57 392 q 106 415 86 408 q 144 424 125 421 q 172 426 164 426 q 208 413 192 426 q 224 376 224 400 q 171 228 224 339 q 210 228 188 228 q 274 226 236 226 q 276 232 275 229 q 321 329 297 282 q 364 410 344 376 z "},"":{"ha":422,"x_min":24,"x_max":419,"o":"m 414 196 q 361 172 390 172 q 349 174 357 172 q 246 49 308 100 q 131 -1 183 -1 q 24 106 24 -1 q 115 327 24 221 q 321 433 207 433 q 340 425 340 433 q 321 411 340 411 q 164 275 243 411 q 92 65 92 150 q 133 21 92 21 q 220 72 171 21 q 304 193 269 124 q 260 286 260 226 q 283 368 260 339 q 329 393 304 393 q 389 314 389 393 q 360 197 389 258 q 371 196 369 196 q 406 211 388 196 q 414 196 419 208 m 343 321 q 324 368 343 368 q 299 290 299 368 q 317 218 299 240 q 343 321 343 279 z "},"":{"ha":482,"x_min":-1,"x_max":449,"o":"m 449 413 q 429 378 449 417 q 351 210 400 319 q 290 51 290 72 q 315 31 290 31 q 417 119 365 31 q 443 111 443 128 q 392 44 424 76 q 300 -1 343 -1 q 221 61 221 -1 q 264 206 221 106 q 318 315 294 275 l 313 322 q 178 174 279 303 q 72 32 113 89 q 15 3 53 3 q -1 19 -1 3 q 75 185 -1 22 q 142 354 142 328 q 122 381 142 381 q 68 365 115 381 q 58 388 53 371 q 172 426 111 426 q 208 413 192 426 q 224 376 224 400 q 153 192 224 333 l 158 189 q 269 317 199 244 q 371 409 340 390 q 433 428 401 428 q 449 413 449 428 z "},"":{"ha":422,"x_min":-147,"x_max":421,"o":"m 421 360 q 335 136 421 264 q 153 -1 242 -1 q 75 24 106 -1 q -74 -282 17 -103 q -94 -299 -78 -290 q -125 -308 -111 -308 q -147 -292 -147 -308 q -144 -278 -147 -286 l 124 339 q 128 357 128 349 q 111 379 128 379 q 78 356 106 379 q 51 371 57 347 q 154 429 92 429 q 203 371 203 429 q 176 268 203 321 q 350 429 281 429 q 421 360 421 429 m 343 371 q 331 394 343 394 q 238 299 310 394 q 119 122 174 213 q 86 46 103 83 q 131 28 106 28 q 274 167 197 28 q 343 371 343 293 z "},"":{"ha":364,"x_min":21,"x_max":351,"o":"m 351 356 q 331 302 351 321 q 289 283 311 283 q 247 324 247 283 q 269 360 247 343 q 290 386 290 378 q 276 400 290 400 q 161 258 229 400 q 99 63 99 125 q 125 32 99 32 q 211 76 160 32 q 271 140 254 113 q 285 137 278 143 q 293 121 293 131 q 228 51 268 86 q 111 -1 167 -1 q 21 114 21 -1 q 109 322 21 214 q 282 431 197 431 q 351 356 351 431 z "},"":{"ha":669,"x_min":0,"x_max":636,"o":"m 636 413 q 617 378 636 417 q 539 210 588 319 q 478 51 478 72 q 503 31 478 31 q 604 119 553 31 q 631 111 629 128 q 578 44 611 76 q 488 -1 531 -1 q 408 61 408 -1 q 451 206 408 106 q 504 315 481 275 l 500 322 q 365 174 465 303 q 269 25 314 106 q 203 0 261 7 q 183 7 183 -3 q 247 147 183 14 q 325 313 317 290 l 319 319 q 185 171 286 301 q 79 31 119 88 q 54 12 75 22 q 17 1 33 1 q 0 18 0 1 q 76 182 0 28 q 144 356 144 321 q 125 382 144 382 q 76 367 122 382 q 67 376 71 367 q 67 389 64 385 q 176 426 117 426 q 232 378 232 426 q 160 189 232 333 l 165 188 q 276 315 206 243 q 378 406 347 388 q 446 425 408 425 q 465 414 465 425 q 446 376 465 415 l 367 217 q 558 408 486 365 q 619 428 589 428 q 636 413 636 428 z "},"":{"ha":444,"x_min":-83,"x_max":429,"o":"m 426 404 q 308 85 419 389 q 361 132 347 113 q 385 114 378 132 q 292 40 361 86 l 282 13 q 156 -197 240 -99 q -25 -308 58 -308 q -83 -250 -83 -308 q -44 -167 -83 -217 q 53 -78 -6 -118 q 197 14 92 -51 l 240 121 q 164 46 211 83 q 74 -1 106 -1 q 27 18 46 -1 q 8 65 8 38 q 75 224 8 106 q 147 371 147 351 q 129 393 147 393 q 74 371 114 393 q 54 390 58 375 q 157 429 85 429 q 222 372 222 429 q 147 201 222 342 q 71 46 71 61 q 85 31 71 31 q 206 121 126 31 q 296 253 274 201 l 353 392 q 378 421 365 418 q 406 425 397 425 q 429 413 429 425 q 426 404 429 410 m 181 -29 q 93 -86 113 -71 q 15 -168 49 -124 q -24 -250 -24 -219 q -1 -275 -24 -275 q 85 -209 35 -275 q 169 -58 135 -143 l 181 -29 z "}}}
